G04 #@! TF.FileFunction,Legend,Top*
%FSLAX46Y46*%
G04 Gerber Fmt 4.6, Leading zero omitted, Abs format (unit mm)*
G04 Created by KiCad (PCBNEW 4.0.6-e0-6349~53~ubuntu16.04.1) date Tue Jun 20 20:26:24 2017*
%MOMM*%
%LPD*%
G01*
G04 APERTURE LIST*
%ADD10C,0.100000*%
%ADD11C,0.150000*%
%ADD12C,0.200000*%
%ADD13C,0.250000*%
%ADD14C,0.120000*%
%ADD15C,0.010000*%
G04 APERTURE END LIST*
D10*
D11*
X61402381Y-96686905D02*
X61183333Y-96305952D01*
X60945238Y-96686905D02*
X61045238Y-95886905D01*
X61350000Y-95886905D01*
X61421429Y-95925000D01*
X61454762Y-95963095D01*
X61483333Y-96039286D01*
X61469048Y-96153571D01*
X61421429Y-96229762D01*
X61378572Y-96267857D01*
X61297619Y-96305952D01*
X60992857Y-96305952D01*
X61745238Y-96686905D02*
X61811905Y-96153571D01*
X61845238Y-95886905D02*
X61802381Y-95925000D01*
X61835714Y-95963095D01*
X61878571Y-95925000D01*
X61845238Y-95886905D01*
X61835714Y-95963095D01*
X62435714Y-96648810D02*
X62354762Y-96686905D01*
X62202381Y-96686905D01*
X62130952Y-96648810D01*
X62102381Y-96572619D01*
X62140476Y-96267857D01*
X62188095Y-96191667D01*
X62269048Y-96153571D01*
X62421429Y-96153571D01*
X62492857Y-96191667D01*
X62521428Y-96267857D01*
X62511904Y-96344048D01*
X62121428Y-96420238D01*
X63221428Y-96153571D02*
X63140475Y-96801190D01*
X63092856Y-96877381D01*
X63049999Y-96915476D01*
X62969047Y-96953571D01*
X62854762Y-96953571D01*
X62783332Y-96915476D01*
X63159523Y-96648810D02*
X63078571Y-96686905D01*
X62926190Y-96686905D01*
X62854761Y-96648810D01*
X62821428Y-96610714D01*
X62792857Y-96534524D01*
X62821428Y-96305952D01*
X62869047Y-96229762D01*
X62911904Y-96191667D01*
X62992857Y-96153571D01*
X63145238Y-96153571D01*
X63216666Y-96191667D01*
X63650000Y-96686905D02*
X63578571Y-96648810D01*
X63545238Y-96610714D01*
X63516667Y-96534524D01*
X63545238Y-96305952D01*
X63592857Y-96229762D01*
X63635714Y-96191667D01*
X63716667Y-96153571D01*
X63830953Y-96153571D01*
X63902381Y-96191667D01*
X63935714Y-96229762D01*
X63964286Y-96305952D01*
X63935715Y-96534524D01*
X63888095Y-96610714D01*
X63845238Y-96648810D01*
X63764286Y-96686905D01*
X63650000Y-96686905D01*
X64859524Y-96458333D02*
X65240476Y-96458333D01*
X64754762Y-96686905D02*
X65121429Y-95886905D01*
X65288096Y-96686905D01*
X65964286Y-96153571D02*
X65897619Y-96686905D01*
X65621429Y-96153571D02*
X65569048Y-96572619D01*
X65597619Y-96648810D01*
X65669048Y-96686905D01*
X65783334Y-96686905D01*
X65864286Y-96648810D01*
X65907143Y-96610714D01*
X66230953Y-96153571D02*
X66535715Y-96153571D01*
X66378572Y-95886905D02*
X66292858Y-96572619D01*
X66321429Y-96648810D01*
X66392858Y-96686905D01*
X66469048Y-96686905D01*
X66850001Y-96686905D02*
X66778572Y-96648810D01*
X66745239Y-96610714D01*
X66716668Y-96534524D01*
X66745239Y-96305952D01*
X66792858Y-96229762D01*
X66835715Y-96191667D01*
X66916668Y-96153571D01*
X67030954Y-96153571D01*
X67102382Y-96191667D01*
X67135715Y-96229762D01*
X67164287Y-96305952D01*
X67135716Y-96534524D01*
X67088096Y-96610714D01*
X67045239Y-96648810D01*
X66964287Y-96686905D01*
X66850001Y-96686905D01*
X67459525Y-96686905D02*
X67526192Y-96153571D01*
X67516668Y-96229762D02*
X67559525Y-96191667D01*
X67640478Y-96153571D01*
X67754764Y-96153571D01*
X67826192Y-96191667D01*
X67854763Y-96267857D01*
X67802382Y-96686905D01*
X67854763Y-96267857D02*
X67902383Y-96191667D01*
X67983335Y-96153571D01*
X68097621Y-96153571D01*
X68169049Y-96191667D01*
X68197620Y-96267857D01*
X68145239Y-96686905D01*
X68869049Y-96686905D02*
X68921430Y-96267857D01*
X68892859Y-96191667D01*
X68821431Y-96153571D01*
X68669050Y-96153571D01*
X68588097Y-96191667D01*
X68873811Y-96648810D02*
X68792859Y-96686905D01*
X68602383Y-96686905D01*
X68530954Y-96648810D01*
X68502383Y-96572619D01*
X68511906Y-96496429D01*
X68559525Y-96420238D01*
X68640478Y-96382143D01*
X68830954Y-96382143D01*
X68911906Y-96344048D01*
X69202383Y-96153571D02*
X69507145Y-96153571D01*
X69350002Y-95886905D02*
X69264288Y-96572619D01*
X69292859Y-96648810D01*
X69364288Y-96686905D01*
X69440478Y-96686905D01*
X69707145Y-96686905D02*
X69773812Y-96153571D01*
X69807145Y-95886905D02*
X69764288Y-95925000D01*
X69797621Y-95963095D01*
X69840478Y-95925000D01*
X69807145Y-95886905D01*
X69797621Y-95963095D01*
X70435716Y-96648810D02*
X70354764Y-96686905D01*
X70202383Y-96686905D01*
X70130954Y-96648810D01*
X70097621Y-96610714D01*
X70069050Y-96534524D01*
X70097621Y-96305952D01*
X70145240Y-96229762D01*
X70188097Y-96191667D01*
X70269050Y-96153571D01*
X70421431Y-96153571D01*
X70492859Y-96191667D01*
X70888097Y-96686905D02*
X70816668Y-96648810D01*
X70783335Y-96610714D01*
X70754764Y-96534524D01*
X70783335Y-96305952D01*
X70830954Y-96229762D01*
X70873811Y-96191667D01*
X70954764Y-96153571D01*
X71069050Y-96153571D01*
X71140478Y-96191667D01*
X71173811Y-96229762D01*
X71202383Y-96305952D01*
X71173812Y-96534524D01*
X71126192Y-96610714D01*
X71083335Y-96648810D01*
X71002383Y-96686905D01*
X70888097Y-96686905D01*
X72073812Y-96648810D02*
X72183336Y-96686905D01*
X72373812Y-96686905D01*
X72454764Y-96648810D01*
X72497622Y-96610714D01*
X72545241Y-96534524D01*
X72554764Y-96458333D01*
X72526193Y-96382143D01*
X72492859Y-96344048D01*
X72421431Y-96305952D01*
X72273812Y-96267857D01*
X72202383Y-96229762D01*
X72169050Y-96191667D01*
X72140479Y-96115476D01*
X72150002Y-96039286D01*
X72197621Y-95963095D01*
X72240478Y-95925000D01*
X72321431Y-95886905D01*
X72511907Y-95886905D01*
X72621431Y-95925000D01*
X72869050Y-96686905D02*
X72969050Y-95886905D01*
X73164288Y-96458333D01*
X73502384Y-95886905D01*
X73402384Y-96686905D01*
X73783336Y-96686905D02*
X73883336Y-95886905D01*
X74073812Y-95886905D01*
X74183336Y-95925000D01*
X74250003Y-96001190D01*
X74278574Y-96077381D01*
X74297622Y-96229762D01*
X74283336Y-96344048D01*
X74226193Y-96496429D01*
X74178575Y-96572619D01*
X74092860Y-96648810D01*
X73973812Y-96686905D01*
X73783336Y-96686905D01*
X60930952Y-97236905D02*
X61097619Y-98036905D01*
X61464286Y-97236905D01*
X62050000Y-98036905D02*
X61592857Y-98036905D01*
X61821428Y-98036905D02*
X61921428Y-97236905D01*
X61830952Y-97351190D01*
X61745237Y-97427381D01*
X61664286Y-97465476D01*
X62402381Y-97960714D02*
X62435714Y-97998810D01*
X62392857Y-98036905D01*
X62359524Y-97998810D01*
X62402381Y-97960714D01*
X62392857Y-98036905D01*
X63026190Y-97236905D02*
X63102381Y-97236905D01*
X63173809Y-97275000D01*
X63207142Y-97313095D01*
X63235714Y-97389286D01*
X63254762Y-97541667D01*
X63230952Y-97732143D01*
X63173810Y-97884524D01*
X63126190Y-97960714D01*
X63083333Y-97998810D01*
X63002381Y-98036905D01*
X62926190Y-98036905D01*
X62854762Y-97998810D01*
X62821428Y-97960714D01*
X62792857Y-97884524D01*
X62773809Y-97732143D01*
X62797619Y-97541667D01*
X62854761Y-97389286D01*
X62902380Y-97313095D01*
X62945238Y-97275000D01*
X63026190Y-97236905D01*
X64564286Y-98036905D02*
X64107143Y-98036905D01*
X64335714Y-98036905D02*
X64435714Y-97236905D01*
X64345238Y-97351190D01*
X64259523Y-97427381D01*
X64178572Y-97465476D01*
X64930953Y-97236905D02*
X65464286Y-97236905D01*
X65021429Y-98036905D01*
X65707143Y-97732143D02*
X66316667Y-97732143D01*
X66911905Y-97236905D02*
X66988096Y-97236905D01*
X67059524Y-97275000D01*
X67092857Y-97313095D01*
X67121429Y-97389286D01*
X67140477Y-97541667D01*
X67116667Y-97732143D01*
X67059525Y-97884524D01*
X67011905Y-97960714D01*
X66969048Y-97998810D01*
X66888096Y-98036905D01*
X66811905Y-98036905D01*
X66740477Y-97998810D01*
X66707143Y-97960714D01*
X66678572Y-97884524D01*
X66659524Y-97732143D01*
X66683334Y-97541667D01*
X66740476Y-97389286D01*
X66788095Y-97313095D01*
X66830953Y-97275000D01*
X66911905Y-97236905D01*
X67864286Y-97236905D02*
X67711905Y-97236905D01*
X67630953Y-97275000D01*
X67588096Y-97313095D01*
X67497619Y-97427381D01*
X67440477Y-97579762D01*
X67402382Y-97884524D01*
X67430953Y-97960714D01*
X67464286Y-97998810D01*
X67535715Y-98036905D01*
X67688096Y-98036905D01*
X67769048Y-97998810D01*
X67811906Y-97960714D01*
X67859525Y-97884524D01*
X67883334Y-97694048D01*
X67854763Y-97617857D01*
X67821429Y-97579762D01*
X67750001Y-97541667D01*
X67597620Y-97541667D01*
X67516667Y-97579762D01*
X67473810Y-97617857D01*
X67426191Y-97694048D01*
X68221429Y-97732143D02*
X68830953Y-97732143D01*
X69226191Y-97313095D02*
X69269048Y-97275000D01*
X69350001Y-97236905D01*
X69540477Y-97236905D01*
X69611905Y-97275000D01*
X69645239Y-97313095D01*
X69673810Y-97389286D01*
X69664287Y-97465476D01*
X69611906Y-97579762D01*
X69097620Y-98036905D01*
X69592858Y-98036905D01*
X70188096Y-97236905D02*
X70264287Y-97236905D01*
X70335715Y-97275000D01*
X70369048Y-97313095D01*
X70397620Y-97389286D01*
X70416668Y-97541667D01*
X70392858Y-97732143D01*
X70335716Y-97884524D01*
X70288096Y-97960714D01*
X70245239Y-97998810D01*
X70164287Y-98036905D01*
X70088096Y-98036905D01*
X70016668Y-97998810D01*
X69983334Y-97960714D01*
X69954763Y-97884524D01*
X69935715Y-97732143D01*
X69959525Y-97541667D01*
X70016667Y-97389286D01*
X70064286Y-97313095D01*
X70107144Y-97275000D01*
X70188096Y-97236905D01*
X71116668Y-98036905D02*
X70659525Y-98036905D01*
X70888096Y-98036905D02*
X70988096Y-97236905D01*
X70897620Y-97351190D01*
X70811905Y-97427381D01*
X70730954Y-97465476D01*
X71483335Y-97236905D02*
X72016668Y-97236905D01*
X71573811Y-98036905D01*
X73159526Y-97236905D02*
X73088097Y-97808333D01*
X73035716Y-97922619D01*
X72950002Y-97998810D01*
X72830954Y-98036905D01*
X72754764Y-98036905D01*
X73450002Y-97960714D02*
X73483335Y-97998810D01*
X73440478Y-98036905D01*
X73407145Y-97998810D01*
X73450002Y-97960714D01*
X73440478Y-98036905D01*
X73873811Y-97617857D02*
X74140478Y-97617857D01*
X74202383Y-98036905D02*
X73821430Y-98036905D01*
X73921430Y-97236905D01*
X74302383Y-97236905D01*
X74659526Y-98036905D02*
X74588097Y-97998810D01*
X74559526Y-97922619D01*
X74645240Y-97236905D01*
X74964288Y-98036905D02*
X75030955Y-97503571D01*
X75145241Y-97198810D02*
X75016669Y-97313095D01*
X75459526Y-98036905D02*
X75388097Y-97998810D01*
X75354764Y-97960714D01*
X75326193Y-97884524D01*
X75354764Y-97655952D01*
X75402383Y-97579762D01*
X75445240Y-97541667D01*
X75526193Y-97503571D01*
X75640479Y-97503571D01*
X75711907Y-97541667D01*
X75745240Y-97579762D01*
X75773812Y-97655952D01*
X75745241Y-97884524D01*
X75697621Y-97960714D01*
X75654764Y-97998810D01*
X75573812Y-98036905D01*
X75459526Y-98036905D01*
D12*
X53478572Y-76111905D02*
X53745239Y-76911905D01*
X54011906Y-76111905D01*
X54735715Y-76835714D02*
X54697620Y-76873810D01*
X54583334Y-76911905D01*
X54507144Y-76911905D01*
X54392858Y-76873810D01*
X54316667Y-76797619D01*
X54278572Y-76721429D01*
X54240477Y-76569048D01*
X54240477Y-76454762D01*
X54278572Y-76302381D01*
X54316667Y-76226190D01*
X54392858Y-76150000D01*
X54507144Y-76111905D01*
X54583334Y-76111905D01*
X54697620Y-76150000D01*
X54735715Y-76188095D01*
X55535715Y-76835714D02*
X55497620Y-76873810D01*
X55383334Y-76911905D01*
X55307144Y-76911905D01*
X55192858Y-76873810D01*
X55116667Y-76797619D01*
X55078572Y-76721429D01*
X55040477Y-76569048D01*
X55040477Y-76454762D01*
X55078572Y-76302381D01*
X55116667Y-76226190D01*
X55192858Y-76150000D01*
X55307144Y-76111905D01*
X55383334Y-76111905D01*
X55497620Y-76150000D01*
X55535715Y-76188095D01*
X56450001Y-76073810D02*
X55764286Y-77102381D01*
X57135715Y-76150000D02*
X57059524Y-76111905D01*
X56945239Y-76111905D01*
X56830953Y-76150000D01*
X56754762Y-76226190D01*
X56716667Y-76302381D01*
X56678572Y-76454762D01*
X56678572Y-76569048D01*
X56716667Y-76721429D01*
X56754762Y-76797619D01*
X56830953Y-76873810D01*
X56945239Y-76911905D01*
X57021429Y-76911905D01*
X57135715Y-76873810D01*
X57173810Y-76835714D01*
X57173810Y-76569048D01*
X57021429Y-76569048D01*
X57516667Y-76911905D02*
X57516667Y-76111905D01*
X57973810Y-76911905D01*
X57973810Y-76111905D01*
X58354762Y-76911905D02*
X58354762Y-76111905D01*
X58545238Y-76111905D01*
X58659524Y-76150000D01*
X58735715Y-76226190D01*
X58773810Y-76302381D01*
X58811905Y-76454762D01*
X58811905Y-76569048D01*
X58773810Y-76721429D01*
X58735715Y-76797619D01*
X58659524Y-76873810D01*
X58545238Y-76911905D01*
X58354762Y-76911905D01*
X59726191Y-76073810D02*
X59040476Y-77102381D01*
X59954762Y-76873810D02*
X60069048Y-76911905D01*
X60259524Y-76911905D01*
X60335714Y-76873810D01*
X60373810Y-76835714D01*
X60411905Y-76759524D01*
X60411905Y-76683333D01*
X60373810Y-76607143D01*
X60335714Y-76569048D01*
X60259524Y-76530952D01*
X60107143Y-76492857D01*
X60030952Y-76454762D01*
X59992857Y-76416667D01*
X59954762Y-76340476D01*
X59954762Y-76264286D01*
X59992857Y-76188095D01*
X60030952Y-76150000D01*
X60107143Y-76111905D01*
X60297619Y-76111905D01*
X60411905Y-76150000D01*
X61211905Y-76835714D02*
X61173810Y-76873810D01*
X61059524Y-76911905D01*
X60983334Y-76911905D01*
X60869048Y-76873810D01*
X60792857Y-76797619D01*
X60754762Y-76721429D01*
X60716667Y-76569048D01*
X60716667Y-76454762D01*
X60754762Y-76302381D01*
X60792857Y-76226190D01*
X60869048Y-76150000D01*
X60983334Y-76111905D01*
X61059524Y-76111905D01*
X61173810Y-76150000D01*
X61211905Y-76188095D01*
X61935715Y-76911905D02*
X61554762Y-76911905D01*
X61554762Y-76111905D01*
X62773810Y-76073810D02*
X62088095Y-77102381D01*
X63002381Y-76873810D02*
X63116667Y-76911905D01*
X63307143Y-76911905D01*
X63383333Y-76873810D01*
X63421429Y-76835714D01*
X63459524Y-76759524D01*
X63459524Y-76683333D01*
X63421429Y-76607143D01*
X63383333Y-76569048D01*
X63307143Y-76530952D01*
X63154762Y-76492857D01*
X63078571Y-76454762D01*
X63040476Y-76416667D01*
X63002381Y-76340476D01*
X63002381Y-76264286D01*
X63040476Y-76188095D01*
X63078571Y-76150000D01*
X63154762Y-76111905D01*
X63345238Y-76111905D01*
X63459524Y-76150000D01*
X63802381Y-76911905D02*
X63802381Y-76111905D01*
X63992857Y-76111905D01*
X64107143Y-76150000D01*
X64183334Y-76226190D01*
X64221429Y-76302381D01*
X64259524Y-76454762D01*
X64259524Y-76569048D01*
X64221429Y-76721429D01*
X64183334Y-76797619D01*
X64107143Y-76873810D01*
X63992857Y-76911905D01*
X63802381Y-76911905D01*
X64564286Y-76683333D02*
X64945238Y-76683333D01*
X64488095Y-76911905D02*
X64754762Y-76111905D01*
X65021429Y-76911905D01*
X57040476Y-78273810D02*
X57154762Y-78311905D01*
X57345238Y-78311905D01*
X57421428Y-78273810D01*
X57459524Y-78235714D01*
X57497619Y-78159524D01*
X57497619Y-78083333D01*
X57459524Y-78007143D01*
X57421428Y-77969048D01*
X57345238Y-77930952D01*
X57192857Y-77892857D01*
X57116666Y-77854762D01*
X57078571Y-77816667D01*
X57040476Y-77740476D01*
X57040476Y-77664286D01*
X57078571Y-77588095D01*
X57116666Y-77550000D01*
X57192857Y-77511905D01*
X57383333Y-77511905D01*
X57497619Y-77550000D01*
X57840476Y-77892857D02*
X58107143Y-77892857D01*
X58221429Y-78311905D02*
X57840476Y-78311905D01*
X57840476Y-77511905D01*
X58221429Y-77511905D01*
X58564286Y-78311905D02*
X58564286Y-77511905D01*
X59021429Y-78311905D01*
X59021429Y-77511905D01*
X59364286Y-78273810D02*
X59478572Y-78311905D01*
X59669048Y-78311905D01*
X59745238Y-78273810D01*
X59783334Y-78235714D01*
X59821429Y-78159524D01*
X59821429Y-78083333D01*
X59783334Y-78007143D01*
X59745238Y-77969048D01*
X59669048Y-77930952D01*
X59516667Y-77892857D01*
X59440476Y-77854762D01*
X59402381Y-77816667D01*
X59364286Y-77740476D01*
X59364286Y-77664286D01*
X59402381Y-77588095D01*
X59440476Y-77550000D01*
X59516667Y-77511905D01*
X59707143Y-77511905D01*
X59821429Y-77550000D01*
X60316667Y-77511905D02*
X60469048Y-77511905D01*
X60545239Y-77550000D01*
X60621429Y-77626190D01*
X60659524Y-77778571D01*
X60659524Y-78045238D01*
X60621429Y-78197619D01*
X60545239Y-78273810D01*
X60469048Y-78311905D01*
X60316667Y-78311905D01*
X60240477Y-78273810D01*
X60164286Y-78197619D01*
X60126191Y-78045238D01*
X60126191Y-77778571D01*
X60164286Y-77626190D01*
X60240477Y-77550000D01*
X60316667Y-77511905D01*
X61459524Y-78311905D02*
X61192857Y-77930952D01*
X61002381Y-78311905D02*
X61002381Y-77511905D01*
X61307143Y-77511905D01*
X61383334Y-77550000D01*
X61421429Y-77588095D01*
X61459524Y-77664286D01*
X61459524Y-77778571D01*
X61421429Y-77854762D01*
X61383334Y-77892857D01*
X61307143Y-77930952D01*
X61002381Y-77930952D01*
X67200000Y-73823810D02*
X67314286Y-73861905D01*
X67504762Y-73861905D01*
X67580952Y-73823810D01*
X67619048Y-73785714D01*
X67657143Y-73709524D01*
X67657143Y-73633333D01*
X67619048Y-73557143D01*
X67580952Y-73519048D01*
X67504762Y-73480952D01*
X67352381Y-73442857D01*
X67276190Y-73404762D01*
X67238095Y-73366667D01*
X67200000Y-73290476D01*
X67200000Y-73214286D01*
X67238095Y-73138095D01*
X67276190Y-73100000D01*
X67352381Y-73061905D01*
X67542857Y-73061905D01*
X67657143Y-73100000D01*
X68457143Y-73785714D02*
X68419048Y-73823810D01*
X68304762Y-73861905D01*
X68228572Y-73861905D01*
X68114286Y-73823810D01*
X68038095Y-73747619D01*
X68000000Y-73671429D01*
X67961905Y-73519048D01*
X67961905Y-73404762D01*
X68000000Y-73252381D01*
X68038095Y-73176190D01*
X68114286Y-73100000D01*
X68228572Y-73061905D01*
X68304762Y-73061905D01*
X68419048Y-73100000D01*
X68457143Y-73138095D01*
X69180953Y-73861905D02*
X68800000Y-73861905D01*
X68800000Y-73061905D01*
X70019048Y-73023810D02*
X69333333Y-74052381D01*
X70247619Y-73823810D02*
X70361905Y-73861905D01*
X70552381Y-73861905D01*
X70628571Y-73823810D01*
X70666667Y-73785714D01*
X70704762Y-73709524D01*
X70704762Y-73633333D01*
X70666667Y-73557143D01*
X70628571Y-73519048D01*
X70552381Y-73480952D01*
X70400000Y-73442857D01*
X70323809Y-73404762D01*
X70285714Y-73366667D01*
X70247619Y-73290476D01*
X70247619Y-73214286D01*
X70285714Y-73138095D01*
X70323809Y-73100000D01*
X70400000Y-73061905D01*
X70590476Y-73061905D01*
X70704762Y-73100000D01*
X71047619Y-73861905D02*
X71047619Y-73061905D01*
X71238095Y-73061905D01*
X71352381Y-73100000D01*
X71428572Y-73176190D01*
X71466667Y-73252381D01*
X71504762Y-73404762D01*
X71504762Y-73519048D01*
X71466667Y-73671429D01*
X71428572Y-73747619D01*
X71352381Y-73823810D01*
X71238095Y-73861905D01*
X71047619Y-73861905D01*
X71809524Y-73633333D02*
X72190476Y-73633333D01*
X71733333Y-73861905D02*
X72000000Y-73061905D01*
X72266667Y-73861905D01*
X73104762Y-73023810D02*
X72419047Y-74052381D01*
X73257142Y-73061905D02*
X73714285Y-73061905D01*
X73485714Y-73861905D02*
X73485714Y-73061905D01*
X73904762Y-73061905D02*
X74438095Y-73861905D01*
X74438095Y-73061905D02*
X73904762Y-73861905D01*
X75314286Y-73023810D02*
X74628571Y-74052381D01*
X76038095Y-73861905D02*
X75771428Y-73480952D01*
X75580952Y-73861905D02*
X75580952Y-73061905D01*
X75885714Y-73061905D01*
X75961905Y-73100000D01*
X76000000Y-73138095D01*
X76038095Y-73214286D01*
X76038095Y-73328571D01*
X76000000Y-73404762D01*
X75961905Y-73442857D01*
X75885714Y-73480952D01*
X75580952Y-73480952D01*
X76304762Y-73061905D02*
X76838095Y-73861905D01*
X76838095Y-73061905D02*
X76304762Y-73861905D01*
D13*
X119761905Y-80702381D02*
X119952381Y-80702381D01*
X120047620Y-80654762D01*
X120095239Y-80607143D01*
X120190477Y-80464286D01*
X120238096Y-80273810D01*
X120238096Y-79892857D01*
X120190477Y-79797619D01*
X120142858Y-79750000D01*
X120047620Y-79702381D01*
X119857143Y-79702381D01*
X119761905Y-79750000D01*
X119714286Y-79797619D01*
X119666667Y-79892857D01*
X119666667Y-80130952D01*
X119714286Y-80226190D01*
X119761905Y-80273810D01*
X119857143Y-80321429D01*
X120047620Y-80321429D01*
X120142858Y-80273810D01*
X120190477Y-80226190D01*
X120238096Y-80130952D01*
X120666667Y-80321429D02*
X121428572Y-80321429D01*
X122428572Y-80702381D02*
X121857143Y-80702381D01*
X122142857Y-80702381D02*
X122142857Y-79702381D01*
X122047619Y-79845238D01*
X121952381Y-79940476D01*
X121857143Y-79988095D01*
X122809524Y-79797619D02*
X122857143Y-79750000D01*
X122952381Y-79702381D01*
X123190477Y-79702381D01*
X123285715Y-79750000D01*
X123333334Y-79797619D01*
X123380953Y-79892857D01*
X123380953Y-79988095D01*
X123333334Y-80130952D01*
X122761905Y-80702381D01*
X123380953Y-80702381D01*
X123666667Y-79702381D02*
X124000000Y-80702381D01*
X124333334Y-79702381D01*
X125380953Y-79654762D02*
X124523810Y-80940476D01*
X126238096Y-79750000D02*
X126142858Y-79702381D01*
X126000001Y-79702381D01*
X125857143Y-79750000D01*
X125761905Y-79845238D01*
X125714286Y-79940476D01*
X125666667Y-80130952D01*
X125666667Y-80273810D01*
X125714286Y-80464286D01*
X125761905Y-80559524D01*
X125857143Y-80654762D01*
X126000001Y-80702381D01*
X126095239Y-80702381D01*
X126238096Y-80654762D01*
X126285715Y-80607143D01*
X126285715Y-80273810D01*
X126095239Y-80273810D01*
X126714286Y-80702381D02*
X126714286Y-79702381D01*
X127285715Y-80702381D01*
X127285715Y-79702381D01*
X127761905Y-80702381D02*
X127761905Y-79702381D01*
X128000000Y-79702381D01*
X128142858Y-79750000D01*
X128238096Y-79845238D01*
X128285715Y-79940476D01*
X128333334Y-80130952D01*
X128333334Y-80273810D01*
X128285715Y-80464286D01*
X128238096Y-80559524D01*
X128142858Y-80654762D01*
X128000000Y-80702381D01*
X127761905Y-80702381D01*
X111630953Y-76928571D02*
X111964287Y-76928571D01*
X112107144Y-77452381D02*
X111630953Y-77452381D01*
X111630953Y-76452381D01*
X112107144Y-76452381D01*
X112535715Y-77357143D02*
X112583334Y-77404762D01*
X112535715Y-77452381D01*
X112488096Y-77404762D01*
X112535715Y-77357143D01*
X112535715Y-77452381D01*
X112869048Y-76452381D02*
X113202381Y-77452381D01*
X113535715Y-76452381D01*
X113869048Y-77357143D02*
X113916667Y-77404762D01*
X113869048Y-77452381D01*
X113821429Y-77404762D01*
X113869048Y-77357143D01*
X113869048Y-77452381D01*
D11*
X77950000Y-84250000D02*
X102750000Y-84250000D01*
X77950000Y-69950000D02*
X77950000Y-84250000D01*
X102750000Y-69950000D02*
X77950000Y-69950000D01*
X102750000Y-84250000D02*
X102750000Y-69950000D01*
D14*
X100020000Y-82580000D02*
X102750000Y-82583500D01*
X102750500Y-82583500D02*
X102750500Y-72436200D01*
X97429200Y-72436200D02*
X102737800Y-72436200D01*
X97429200Y-72448890D02*
X97429200Y-79980000D01*
X97420000Y-79980000D02*
X100020000Y-79980000D01*
X100020000Y-79980000D02*
X100020000Y-82580000D01*
X98750000Y-82580000D02*
X97420000Y-82580000D01*
X97420000Y-82580000D02*
X97420000Y-81250000D01*
D11*
X109930920Y-70149040D02*
X115529080Y-70149040D01*
X115330960Y-69651200D02*
X115330960Y-70149040D01*
X110129040Y-70149040D02*
X110129040Y-69651200D01*
X112730000Y-69651200D02*
X112730000Y-70149040D01*
X115529080Y-75450020D02*
X109930920Y-75450020D01*
X115529080Y-69651200D02*
X109930920Y-69651200D01*
X109930920Y-69651200D02*
X109930920Y-75848800D01*
X109930920Y-75848800D02*
X115529080Y-75848800D01*
X115529080Y-75848800D02*
X115529080Y-69651200D01*
D14*
X116150000Y-90000000D02*
X116150000Y-91000000D01*
X117850000Y-91000000D02*
X117850000Y-90000000D01*
X105650000Y-90250000D02*
X105650000Y-91250000D01*
X107350000Y-91250000D02*
X107350000Y-90250000D01*
X96230000Y-86880000D02*
X91090000Y-86880000D01*
X91090000Y-86880000D02*
X91090000Y-92080000D01*
X91090000Y-92080000D02*
X98830000Y-92080000D01*
X98830000Y-92080000D02*
X98830000Y-89480000D01*
X98830000Y-89480000D02*
X96230000Y-89480000D01*
X96230000Y-89480000D02*
X96230000Y-86880000D01*
X97500000Y-86880000D02*
X98830000Y-86880000D01*
X98830000Y-86880000D02*
X98830000Y-88210000D01*
X69940000Y-72330000D02*
X77620000Y-72330000D01*
X77620000Y-72330000D02*
X77620000Y-69670000D01*
X77620000Y-69670000D02*
X69940000Y-69670000D01*
X69940000Y-69670000D02*
X69940000Y-72330000D01*
X68670000Y-72330000D02*
X67340000Y-72330000D01*
X67340000Y-72330000D02*
X67340000Y-71000000D01*
X114630000Y-80490000D02*
X113700000Y-80490000D01*
X111470000Y-80490000D02*
X112400000Y-80490000D01*
X111470000Y-80490000D02*
X111470000Y-82650000D01*
X114630000Y-80490000D02*
X114630000Y-81950000D01*
X55990000Y-83170000D02*
X55990000Y-84100000D01*
X55990000Y-86330000D02*
X55990000Y-85400000D01*
X55990000Y-86330000D02*
X58150000Y-86330000D01*
X55990000Y-83170000D02*
X57450000Y-83170000D01*
X106900000Y-81620000D02*
X108100000Y-81620000D01*
X108100000Y-83380000D02*
X106900000Y-83380000D01*
X62450000Y-84630000D02*
X61250000Y-84630000D01*
X61250000Y-82870000D02*
X62450000Y-82870000D01*
X106900000Y-79370000D02*
X108100000Y-79370000D01*
X108100000Y-81130000D02*
X106900000Y-81130000D01*
X62450000Y-87130000D02*
X61250000Y-87130000D01*
X61250000Y-85370000D02*
X62450000Y-85370000D01*
X113300000Y-91700000D02*
X113300000Y-92900000D01*
X113300000Y-92900000D02*
X110600000Y-92900000D01*
X109300000Y-88100000D02*
X113300000Y-88100000D01*
X113300000Y-88100000D02*
X113300000Y-89300000D01*
X119600000Y-90150000D02*
X122900000Y-90150000D01*
X122900000Y-90150000D02*
X122900000Y-83250000D01*
X119600000Y-90150000D02*
X119600000Y-83250000D01*
D11*
X123750000Y-69900000D02*
X123750000Y-69400000D01*
X123250000Y-73900000D02*
G75*
G03X123250000Y-73900000I-2000000J0D01*
G01*
X128250000Y-73900000D02*
G75*
G03X128250000Y-73900000I-2000000J0D01*
G01*
X128750000Y-71400000D02*
X118750000Y-71400000D01*
X128750000Y-76300000D02*
X118750000Y-76300000D01*
X128750000Y-69900000D02*
X118750000Y-69900000D01*
X128750000Y-69400000D02*
X118750000Y-69400000D01*
X118750000Y-69400000D02*
X118750000Y-79200000D01*
X118750000Y-79200000D02*
X128750000Y-79200000D01*
X128750000Y-79200000D02*
X128750000Y-69400000D01*
X53389020Y-75598800D02*
X63990980Y-75598800D01*
X63990980Y-75200020D02*
X53389020Y-75200020D01*
X63990980Y-69899040D02*
X53389020Y-69899040D01*
X53389020Y-69401200D02*
X63990980Y-69401200D01*
X56193180Y-69899040D02*
X56193180Y-69401200D01*
X58690000Y-69899040D02*
X58690000Y-69401200D01*
X63787780Y-69401200D02*
X63787780Y-69899040D01*
X53589680Y-69899040D02*
X53589680Y-69401200D01*
X61186820Y-69401200D02*
X61186820Y-69899040D01*
X53391560Y-69401200D02*
X53391560Y-75598800D01*
X63985900Y-75598800D02*
X63985900Y-69401200D01*
X83080000Y-86964000D02*
X83080000Y-91790000D01*
X83080000Y-91790000D02*
X72920000Y-91790000D01*
X72920000Y-91790000D02*
X72920000Y-86964000D01*
X72920000Y-86964000D02*
X83080000Y-86964000D01*
X72920000Y-88742000D02*
X73555000Y-88742000D01*
X73555000Y-88742000D02*
X73555000Y-90012000D01*
X73555000Y-90012000D02*
X72920000Y-90012000D01*
D15*
G36*
X67274394Y-90971684D02*
X67297347Y-90984307D01*
X67328215Y-91008227D01*
X67370002Y-91045800D01*
X67425716Y-91099382D01*
X67432925Y-91106453D01*
X67573850Y-91244907D01*
X67718910Y-91106453D01*
X67779907Y-91049239D01*
X67826572Y-91008718D01*
X67862180Y-90983276D01*
X67890002Y-90971296D01*
X67913313Y-90971164D01*
X67935385Y-90981263D01*
X67950268Y-90992264D01*
X67980250Y-91016529D01*
X67983924Y-91430298D01*
X67987598Y-91844066D01*
X68015674Y-91850033D01*
X68043257Y-91855567D01*
X68085290Y-91863652D01*
X68119950Y-91870164D01*
X68193803Y-91885543D01*
X68284114Y-91906877D01*
X68383227Y-91932132D01*
X68483485Y-91959277D01*
X68577236Y-91986280D01*
X68656823Y-92011109D01*
X68678750Y-92018505D01*
X68782000Y-92055190D01*
X68862766Y-92086167D01*
X68923077Y-92112380D01*
X68964962Y-92134769D01*
X68990451Y-92154275D01*
X68999986Y-92167485D01*
X69006013Y-92200840D01*
X69004652Y-92254973D01*
X68996631Y-92326595D01*
X68982677Y-92412418D01*
X68963520Y-92509152D01*
X68939887Y-92613506D01*
X68912507Y-92722193D01*
X68882108Y-92831922D01*
X68849417Y-92939404D01*
X68815163Y-93041349D01*
X68793532Y-93100144D01*
X68671192Y-93386930D01*
X68525056Y-93670748D01*
X68356721Y-93949317D01*
X68167781Y-94220360D01*
X67959832Y-94481595D01*
X67734468Y-94730744D01*
X67493286Y-94965528D01*
X67478600Y-94978879D01*
X67408745Y-95041040D01*
X67354088Y-95086921D01*
X67312049Y-95118388D01*
X67280049Y-95137305D01*
X67255509Y-95145534D01*
X67246996Y-95146252D01*
X67227773Y-95138463D01*
X67195382Y-95117630D01*
X67155607Y-95087623D01*
X67139046Y-95074019D01*
X66984827Y-94938926D01*
X66835030Y-94797518D01*
X66697872Y-94657624D01*
X66668165Y-94625600D01*
X66442642Y-94364111D01*
X66239954Y-94096768D01*
X66060496Y-93824298D01*
X65904660Y-93547427D01*
X65772842Y-93266883D01*
X65665435Y-92983391D01*
X65582833Y-92697679D01*
X65554373Y-92571089D01*
X65536880Y-92480254D01*
X65522351Y-92393791D01*
X65511300Y-92315776D01*
X65504875Y-92256157D01*
X65673567Y-92256157D01*
X65681757Y-92320103D01*
X65723187Y-92558624D01*
X65786885Y-92804174D01*
X65871861Y-93053577D01*
X65977124Y-93303657D01*
X66010719Y-93374650D01*
X66115364Y-93578578D01*
X66226386Y-93770660D01*
X66347208Y-93955937D01*
X66481256Y-94139451D01*
X66631954Y-94326242D01*
X66749024Y-94461465D01*
X66793562Y-94510296D01*
X66845381Y-94564955D01*
X66901497Y-94622527D01*
X66958928Y-94680100D01*
X67014691Y-94734760D01*
X67065802Y-94783595D01*
X67109279Y-94823690D01*
X67142139Y-94852133D01*
X67161399Y-94866010D01*
X67164164Y-94866900D01*
X67166347Y-94854666D01*
X67168356Y-94819828D01*
X67170135Y-94765184D01*
X67171626Y-94693528D01*
X67172772Y-94607657D01*
X67173515Y-94510367D01*
X67173798Y-94404454D01*
X67173800Y-94397326D01*
X67173800Y-93929524D01*
X67338900Y-93929524D01*
X67338900Y-94398212D01*
X67339116Y-94504485D01*
X67339733Y-94602315D01*
X67340701Y-94688903D01*
X67341969Y-94761449D01*
X67343490Y-94817157D01*
X67345212Y-94853225D01*
X67347086Y-94866856D01*
X67347200Y-94866900D01*
X67358613Y-94858439D01*
X67384794Y-94835062D01*
X67422513Y-94799772D01*
X67468540Y-94755573D01*
X67500838Y-94724025D01*
X67740790Y-94473105D01*
X67959066Y-94213684D01*
X68155177Y-93946630D01*
X68328634Y-93672810D01*
X68478947Y-93393093D01*
X68605627Y-93108346D01*
X68708185Y-92819438D01*
X68786132Y-92527237D01*
X68812708Y-92396750D01*
X68823030Y-92338892D01*
X68828448Y-92300839D01*
X68829051Y-92277493D01*
X68824925Y-92263753D01*
X68816157Y-92254521D01*
X68815161Y-92253751D01*
X68789303Y-92240110D01*
X68742725Y-92221611D01*
X68679381Y-92199412D01*
X68603229Y-92174675D01*
X68518225Y-92148557D01*
X68428323Y-92122219D01*
X68337481Y-92096819D01*
X68249654Y-92073518D01*
X68168798Y-92053474D01*
X68098870Y-92037848D01*
X68044606Y-92027914D01*
X67986600Y-92019215D01*
X67986411Y-92188932D01*
X67979666Y-92453511D01*
X67960124Y-92699324D01*
X67927917Y-92925775D01*
X67883175Y-93132269D01*
X67826030Y-93318208D01*
X67756613Y-93482997D01*
X67675054Y-93626038D01*
X67668808Y-93635348D01*
X67615823Y-93704559D01*
X67552857Y-93772896D01*
X67486567Y-93833868D01*
X67423611Y-93880983D01*
X67405830Y-93891751D01*
X67338900Y-93929524D01*
X67173800Y-93929524D01*
X67173800Y-93927752D01*
X67132525Y-93906878D01*
X67034043Y-93843685D01*
X66941115Y-93757301D01*
X66855111Y-93649587D01*
X66777403Y-93522407D01*
X66709361Y-93377622D01*
X66674268Y-93284583D01*
X66632901Y-93152389D01*
X66599334Y-93016107D01*
X66572955Y-92871658D01*
X66553152Y-92714966D01*
X66539314Y-92541956D01*
X66530830Y-92348549D01*
X66530136Y-92323511D01*
X66522239Y-92021673D01*
X66476544Y-92029519D01*
X66268836Y-92072062D01*
X66052023Y-92129324D01*
X65835642Y-92198769D01*
X65823608Y-92203011D01*
X65673567Y-92256157D01*
X65504875Y-92256157D01*
X65504242Y-92250289D01*
X65501690Y-92201408D01*
X65504158Y-92173212D01*
X65504191Y-92173109D01*
X65519427Y-92153713D01*
X65549952Y-92130784D01*
X65572927Y-92117690D01*
X65636611Y-92089144D01*
X65720398Y-92057201D01*
X65819457Y-92023320D01*
X65893222Y-92000171D01*
X66701040Y-92000171D01*
X66707305Y-92344510D01*
X66709872Y-92462449D01*
X66713042Y-92559406D01*
X66717107Y-92639802D01*
X66722361Y-92708052D01*
X66729096Y-92768576D01*
X66737605Y-92825790D01*
X66740246Y-92841250D01*
X66779156Y-93031619D01*
X66825581Y-93199443D01*
X66880282Y-93346664D01*
X66944025Y-93475224D01*
X67017571Y-93587064D01*
X67048918Y-93626381D01*
X67083495Y-93662229D01*
X67126324Y-93699196D01*
X67171384Y-93732894D01*
X67212655Y-93758937D01*
X67244117Y-93772936D01*
X67251727Y-93774179D01*
X67272035Y-93767706D01*
X67305979Y-93750179D01*
X67346501Y-93725275D01*
X67349737Y-93723126D01*
X67439588Y-93648499D01*
X67520595Y-93551208D01*
X67592363Y-93432543D01*
X67654498Y-93293794D01*
X67706604Y-93136251D01*
X67748286Y-92961203D01*
X67779149Y-92769941D01*
X67798799Y-92563753D01*
X67806840Y-92343930D01*
X67806424Y-92231650D01*
X67802450Y-91990350D01*
X67732600Y-91981606D01*
X67656724Y-91974218D01*
X67565024Y-91968689D01*
X67461715Y-91964971D01*
X67351011Y-91963019D01*
X67237126Y-91962784D01*
X67124276Y-91964222D01*
X67016676Y-91967285D01*
X66918540Y-91971928D01*
X66834082Y-91978102D01*
X66767519Y-91985763D01*
X66731045Y-91992661D01*
X66701040Y-92000171D01*
X65893222Y-92000171D01*
X65928959Y-91988956D01*
X66044075Y-91955569D01*
X66159975Y-91924614D01*
X66271830Y-91897550D01*
X66373700Y-91876046D01*
X66425625Y-91865845D01*
X66469771Y-91856745D01*
X66498787Y-91850278D01*
X66503875Y-91848957D01*
X66510052Y-91845642D01*
X66514971Y-91837881D01*
X66518774Y-91823054D01*
X66521603Y-91798543D01*
X66523600Y-91761731D01*
X66524906Y-91710000D01*
X66525663Y-91640731D01*
X66526014Y-91551305D01*
X66526099Y-91439106D01*
X66526100Y-91438756D01*
X66526160Y-91326660D01*
X66526393Y-91255695D01*
X66703900Y-91255695D01*
X66703900Y-91820225D01*
X66815025Y-91810037D01*
X66858443Y-91807255D01*
X66922414Y-91804763D01*
X67002091Y-91802669D01*
X67092628Y-91801082D01*
X67189179Y-91800110D01*
X67269050Y-91799850D01*
X67366006Y-91800203D01*
X67460073Y-91801200D01*
X67546599Y-91802739D01*
X67620938Y-91804724D01*
X67678439Y-91807055D01*
X67710375Y-91809213D01*
X67808800Y-91818576D01*
X67808800Y-91255695D01*
X67708658Y-91353147D01*
X67661747Y-91398130D01*
X67624692Y-91429094D01*
X67593295Y-91445482D01*
X67563363Y-91446738D01*
X67530699Y-91432305D01*
X67491108Y-91401626D01*
X67440394Y-91354146D01*
X67397274Y-91311839D01*
X67256350Y-91173079D01*
X67113632Y-91311839D01*
X67053976Y-91368730D01*
X67008840Y-91408958D01*
X66975591Y-91434597D01*
X66951600Y-91447719D01*
X66937549Y-91450600D01*
X66914918Y-91444583D01*
X66884339Y-91425057D01*
X66842776Y-91389805D01*
X66804041Y-91353147D01*
X66703900Y-91255695D01*
X66526393Y-91255695D01*
X66526455Y-91237140D01*
X66527154Y-91167372D01*
X66528427Y-91114534D01*
X66530444Y-91075803D01*
X66533376Y-91048353D01*
X66537391Y-91029363D01*
X66542661Y-91016008D01*
X66549354Y-91005465D01*
X66552421Y-91001462D01*
X66572623Y-90979926D01*
X66593428Y-90969281D01*
X66617779Y-90970833D01*
X66648619Y-90985892D01*
X66688891Y-91015763D01*
X66741537Y-91061755D01*
X66790528Y-91107251D01*
X66938420Y-91246503D01*
X67079560Y-91107251D01*
X67136942Y-91051559D01*
X67180087Y-91012157D01*
X67211995Y-90986682D01*
X67235667Y-90972771D01*
X67254103Y-90968060D01*
X67256349Y-90968000D01*
X67274394Y-90971684D01*
X67274394Y-90971684D01*
G37*
X67274394Y-90971684D02*
X67297347Y-90984307D01*
X67328215Y-91008227D01*
X67370002Y-91045800D01*
X67425716Y-91099382D01*
X67432925Y-91106453D01*
X67573850Y-91244907D01*
X67718910Y-91106453D01*
X67779907Y-91049239D01*
X67826572Y-91008718D01*
X67862180Y-90983276D01*
X67890002Y-90971296D01*
X67913313Y-90971164D01*
X67935385Y-90981263D01*
X67950268Y-90992264D01*
X67980250Y-91016529D01*
X67983924Y-91430298D01*
X67987598Y-91844066D01*
X68015674Y-91850033D01*
X68043257Y-91855567D01*
X68085290Y-91863652D01*
X68119950Y-91870164D01*
X68193803Y-91885543D01*
X68284114Y-91906877D01*
X68383227Y-91932132D01*
X68483485Y-91959277D01*
X68577236Y-91986280D01*
X68656823Y-92011109D01*
X68678750Y-92018505D01*
X68782000Y-92055190D01*
X68862766Y-92086167D01*
X68923077Y-92112380D01*
X68964962Y-92134769D01*
X68990451Y-92154275D01*
X68999986Y-92167485D01*
X69006013Y-92200840D01*
X69004652Y-92254973D01*
X68996631Y-92326595D01*
X68982677Y-92412418D01*
X68963520Y-92509152D01*
X68939887Y-92613506D01*
X68912507Y-92722193D01*
X68882108Y-92831922D01*
X68849417Y-92939404D01*
X68815163Y-93041349D01*
X68793532Y-93100144D01*
X68671192Y-93386930D01*
X68525056Y-93670748D01*
X68356721Y-93949317D01*
X68167781Y-94220360D01*
X67959832Y-94481595D01*
X67734468Y-94730744D01*
X67493286Y-94965528D01*
X67478600Y-94978879D01*
X67408745Y-95041040D01*
X67354088Y-95086921D01*
X67312049Y-95118388D01*
X67280049Y-95137305D01*
X67255509Y-95145534D01*
X67246996Y-95146252D01*
X67227773Y-95138463D01*
X67195382Y-95117630D01*
X67155607Y-95087623D01*
X67139046Y-95074019D01*
X66984827Y-94938926D01*
X66835030Y-94797518D01*
X66697872Y-94657624D01*
X66668165Y-94625600D01*
X66442642Y-94364111D01*
X66239954Y-94096768D01*
X66060496Y-93824298D01*
X65904660Y-93547427D01*
X65772842Y-93266883D01*
X65665435Y-92983391D01*
X65582833Y-92697679D01*
X65554373Y-92571089D01*
X65536880Y-92480254D01*
X65522351Y-92393791D01*
X65511300Y-92315776D01*
X65504875Y-92256157D01*
X65673567Y-92256157D01*
X65681757Y-92320103D01*
X65723187Y-92558624D01*
X65786885Y-92804174D01*
X65871861Y-93053577D01*
X65977124Y-93303657D01*
X66010719Y-93374650D01*
X66115364Y-93578578D01*
X66226386Y-93770660D01*
X66347208Y-93955937D01*
X66481256Y-94139451D01*
X66631954Y-94326242D01*
X66749024Y-94461465D01*
X66793562Y-94510296D01*
X66845381Y-94564955D01*
X66901497Y-94622527D01*
X66958928Y-94680100D01*
X67014691Y-94734760D01*
X67065802Y-94783595D01*
X67109279Y-94823690D01*
X67142139Y-94852133D01*
X67161399Y-94866010D01*
X67164164Y-94866900D01*
X67166347Y-94854666D01*
X67168356Y-94819828D01*
X67170135Y-94765184D01*
X67171626Y-94693528D01*
X67172772Y-94607657D01*
X67173515Y-94510367D01*
X67173798Y-94404454D01*
X67173800Y-94397326D01*
X67173800Y-93929524D01*
X67338900Y-93929524D01*
X67338900Y-94398212D01*
X67339116Y-94504485D01*
X67339733Y-94602315D01*
X67340701Y-94688903D01*
X67341969Y-94761449D01*
X67343490Y-94817157D01*
X67345212Y-94853225D01*
X67347086Y-94866856D01*
X67347200Y-94866900D01*
X67358613Y-94858439D01*
X67384794Y-94835062D01*
X67422513Y-94799772D01*
X67468540Y-94755573D01*
X67500838Y-94724025D01*
X67740790Y-94473105D01*
X67959066Y-94213684D01*
X68155177Y-93946630D01*
X68328634Y-93672810D01*
X68478947Y-93393093D01*
X68605627Y-93108346D01*
X68708185Y-92819438D01*
X68786132Y-92527237D01*
X68812708Y-92396750D01*
X68823030Y-92338892D01*
X68828448Y-92300839D01*
X68829051Y-92277493D01*
X68824925Y-92263753D01*
X68816157Y-92254521D01*
X68815161Y-92253751D01*
X68789303Y-92240110D01*
X68742725Y-92221611D01*
X68679381Y-92199412D01*
X68603229Y-92174675D01*
X68518225Y-92148557D01*
X68428323Y-92122219D01*
X68337481Y-92096819D01*
X68249654Y-92073518D01*
X68168798Y-92053474D01*
X68098870Y-92037848D01*
X68044606Y-92027914D01*
X67986600Y-92019215D01*
X67986411Y-92188932D01*
X67979666Y-92453511D01*
X67960124Y-92699324D01*
X67927917Y-92925775D01*
X67883175Y-93132269D01*
X67826030Y-93318208D01*
X67756613Y-93482997D01*
X67675054Y-93626038D01*
X67668808Y-93635348D01*
X67615823Y-93704559D01*
X67552857Y-93772896D01*
X67486567Y-93833868D01*
X67423611Y-93880983D01*
X67405830Y-93891751D01*
X67338900Y-93929524D01*
X67173800Y-93929524D01*
X67173800Y-93927752D01*
X67132525Y-93906878D01*
X67034043Y-93843685D01*
X66941115Y-93757301D01*
X66855111Y-93649587D01*
X66777403Y-93522407D01*
X66709361Y-93377622D01*
X66674268Y-93284583D01*
X66632901Y-93152389D01*
X66599334Y-93016107D01*
X66572955Y-92871658D01*
X66553152Y-92714966D01*
X66539314Y-92541956D01*
X66530830Y-92348549D01*
X66530136Y-92323511D01*
X66522239Y-92021673D01*
X66476544Y-92029519D01*
X66268836Y-92072062D01*
X66052023Y-92129324D01*
X65835642Y-92198769D01*
X65823608Y-92203011D01*
X65673567Y-92256157D01*
X65504875Y-92256157D01*
X65504242Y-92250289D01*
X65501690Y-92201408D01*
X65504158Y-92173212D01*
X65504191Y-92173109D01*
X65519427Y-92153713D01*
X65549952Y-92130784D01*
X65572927Y-92117690D01*
X65636611Y-92089144D01*
X65720398Y-92057201D01*
X65819457Y-92023320D01*
X65893222Y-92000171D01*
X66701040Y-92000171D01*
X66707305Y-92344510D01*
X66709872Y-92462449D01*
X66713042Y-92559406D01*
X66717107Y-92639802D01*
X66722361Y-92708052D01*
X66729096Y-92768576D01*
X66737605Y-92825790D01*
X66740246Y-92841250D01*
X66779156Y-93031619D01*
X66825581Y-93199443D01*
X66880282Y-93346664D01*
X66944025Y-93475224D01*
X67017571Y-93587064D01*
X67048918Y-93626381D01*
X67083495Y-93662229D01*
X67126324Y-93699196D01*
X67171384Y-93732894D01*
X67212655Y-93758937D01*
X67244117Y-93772936D01*
X67251727Y-93774179D01*
X67272035Y-93767706D01*
X67305979Y-93750179D01*
X67346501Y-93725275D01*
X67349737Y-93723126D01*
X67439588Y-93648499D01*
X67520595Y-93551208D01*
X67592363Y-93432543D01*
X67654498Y-93293794D01*
X67706604Y-93136251D01*
X67748286Y-92961203D01*
X67779149Y-92769941D01*
X67798799Y-92563753D01*
X67806840Y-92343930D01*
X67806424Y-92231650D01*
X67802450Y-91990350D01*
X67732600Y-91981606D01*
X67656724Y-91974218D01*
X67565024Y-91968689D01*
X67461715Y-91964971D01*
X67351011Y-91963019D01*
X67237126Y-91962784D01*
X67124276Y-91964222D01*
X67016676Y-91967285D01*
X66918540Y-91971928D01*
X66834082Y-91978102D01*
X66767519Y-91985763D01*
X66731045Y-91992661D01*
X66701040Y-92000171D01*
X65893222Y-92000171D01*
X65928959Y-91988956D01*
X66044075Y-91955569D01*
X66159975Y-91924614D01*
X66271830Y-91897550D01*
X66373700Y-91876046D01*
X66425625Y-91865845D01*
X66469771Y-91856745D01*
X66498787Y-91850278D01*
X66503875Y-91848957D01*
X66510052Y-91845642D01*
X66514971Y-91837881D01*
X66518774Y-91823054D01*
X66521603Y-91798543D01*
X66523600Y-91761731D01*
X66524906Y-91710000D01*
X66525663Y-91640731D01*
X66526014Y-91551305D01*
X66526099Y-91439106D01*
X66526100Y-91438756D01*
X66526160Y-91326660D01*
X66526393Y-91255695D01*
X66703900Y-91255695D01*
X66703900Y-91820225D01*
X66815025Y-91810037D01*
X66858443Y-91807255D01*
X66922414Y-91804763D01*
X67002091Y-91802669D01*
X67092628Y-91801082D01*
X67189179Y-91800110D01*
X67269050Y-91799850D01*
X67366006Y-91800203D01*
X67460073Y-91801200D01*
X67546599Y-91802739D01*
X67620938Y-91804724D01*
X67678439Y-91807055D01*
X67710375Y-91809213D01*
X67808800Y-91818576D01*
X67808800Y-91255695D01*
X67708658Y-91353147D01*
X67661747Y-91398130D01*
X67624692Y-91429094D01*
X67593295Y-91445482D01*
X67563363Y-91446738D01*
X67530699Y-91432305D01*
X67491108Y-91401626D01*
X67440394Y-91354146D01*
X67397274Y-91311839D01*
X67256350Y-91173079D01*
X67113632Y-91311839D01*
X67053976Y-91368730D01*
X67008840Y-91408958D01*
X66975591Y-91434597D01*
X66951600Y-91447719D01*
X66937549Y-91450600D01*
X66914918Y-91444583D01*
X66884339Y-91425057D01*
X66842776Y-91389805D01*
X66804041Y-91353147D01*
X66703900Y-91255695D01*
X66526393Y-91255695D01*
X66526455Y-91237140D01*
X66527154Y-91167372D01*
X66528427Y-91114534D01*
X66530444Y-91075803D01*
X66533376Y-91048353D01*
X66537391Y-91029363D01*
X66542661Y-91016008D01*
X66549354Y-91005465D01*
X66552421Y-91001462D01*
X66572623Y-90979926D01*
X66593428Y-90969281D01*
X66617779Y-90970833D01*
X66648619Y-90985892D01*
X66688891Y-91015763D01*
X66741537Y-91061755D01*
X66790528Y-91107251D01*
X66938420Y-91246503D01*
X67079560Y-91107251D01*
X67136942Y-91051559D01*
X67180087Y-91012157D01*
X67211995Y-90986682D01*
X67235667Y-90972771D01*
X67254103Y-90968060D01*
X67256349Y-90968000D01*
X67274394Y-90971684D01*
D11*
X102988095Y-72452381D02*
X102988095Y-73261905D01*
X103035714Y-73357143D01*
X103083333Y-73404762D01*
X103178571Y-73452381D01*
X103369048Y-73452381D01*
X103464286Y-73404762D01*
X103511905Y-73357143D01*
X103559524Y-73261905D01*
X103559524Y-72452381D01*
X103940476Y-72452381D02*
X104559524Y-72452381D01*
X104226190Y-72833333D01*
X104369048Y-72833333D01*
X104464286Y-72880952D01*
X104511905Y-72928571D01*
X104559524Y-73023810D01*
X104559524Y-73261905D01*
X104511905Y-73357143D01*
X104464286Y-73404762D01*
X104369048Y-73452381D01*
X104083333Y-73452381D01*
X103988095Y-73404762D01*
X103940476Y-73357143D01*
X103442857Y-79209524D02*
X103442857Y-78942857D01*
X103861905Y-78828571D02*
X103861905Y-79209524D01*
X103061905Y-79209524D01*
X103061905Y-78828571D01*
X103823810Y-78523809D02*
X103861905Y-78409523D01*
X103861905Y-78219047D01*
X103823810Y-78142857D01*
X103785714Y-78104761D01*
X103709524Y-78066666D01*
X103633333Y-78066666D01*
X103557143Y-78104761D01*
X103519048Y-78142857D01*
X103480952Y-78219047D01*
X103442857Y-78371428D01*
X103404762Y-78447619D01*
X103366667Y-78485714D01*
X103290476Y-78523809D01*
X103214286Y-78523809D01*
X103138095Y-78485714D01*
X103100000Y-78447619D01*
X103061905Y-78371428D01*
X103061905Y-78180952D01*
X103100000Y-78066666D01*
X103861905Y-77723809D02*
X103061905Y-77723809D01*
X103061905Y-77419047D01*
X103100000Y-77342856D01*
X103138095Y-77304761D01*
X103214286Y-77266666D01*
X103328571Y-77266666D01*
X103404762Y-77304761D01*
X103442857Y-77342856D01*
X103480952Y-77419047D01*
X103480952Y-77723809D01*
X103557143Y-76923809D02*
X103557143Y-76314285D01*
X103061905Y-75780952D02*
X103061905Y-75704761D01*
X103100000Y-75628571D01*
X103138095Y-75590476D01*
X103214286Y-75552380D01*
X103366667Y-75514285D01*
X103557143Y-75514285D01*
X103709524Y-75552380D01*
X103785714Y-75590476D01*
X103823810Y-75628571D01*
X103861905Y-75704761D01*
X103861905Y-75780952D01*
X103823810Y-75857142D01*
X103785714Y-75895238D01*
X103709524Y-75933333D01*
X103557143Y-75971428D01*
X103366667Y-75971428D01*
X103214286Y-75933333D01*
X103138095Y-75895238D01*
X103100000Y-75857142D01*
X103061905Y-75780952D01*
X103861905Y-74752380D02*
X103861905Y-75209523D01*
X103861905Y-74980952D02*
X103061905Y-74980952D01*
X103176190Y-75057142D01*
X103252381Y-75133333D01*
X103290476Y-75209523D01*
X108416667Y-69702381D02*
X108416667Y-70416667D01*
X108369047Y-70559524D01*
X108273809Y-70654762D01*
X108130952Y-70702381D01*
X108035714Y-70702381D01*
X109321429Y-70035714D02*
X109321429Y-70702381D01*
X109083333Y-69654762D02*
X108845238Y-70369048D01*
X109464286Y-70369048D01*
X116357143Y-87416666D02*
X116404762Y-87464285D01*
X116452381Y-87607142D01*
X116452381Y-87702380D01*
X116404762Y-87845238D01*
X116309524Y-87940476D01*
X116214286Y-87988095D01*
X116023810Y-88035714D01*
X115880952Y-88035714D01*
X115690476Y-87988095D01*
X115595238Y-87940476D01*
X115500000Y-87845238D01*
X115452381Y-87702380D01*
X115452381Y-87607142D01*
X115500000Y-87464285D01*
X115547619Y-87416666D01*
X116452381Y-86464285D02*
X116452381Y-87035714D01*
X116452381Y-86750000D02*
X115452381Y-86750000D01*
X115595238Y-86845238D01*
X115690476Y-86940476D01*
X115738095Y-87035714D01*
X117952381Y-87595238D02*
X117952381Y-88166667D01*
X117952381Y-87880953D02*
X116952381Y-87880953D01*
X117095238Y-87976191D01*
X117190476Y-88071429D01*
X117238095Y-88166667D01*
X117285714Y-86738095D02*
X117952381Y-86738095D01*
X117285714Y-87166667D02*
X117809524Y-87166667D01*
X117904762Y-87119048D01*
X117952381Y-87023810D01*
X117952381Y-86880952D01*
X117904762Y-86785714D01*
X117857143Y-86738095D01*
X117428571Y-85928571D02*
X117428571Y-86261905D01*
X117952381Y-86261905D02*
X116952381Y-86261905D01*
X116952381Y-85785714D01*
X105357143Y-92416666D02*
X105404762Y-92464285D01*
X105452381Y-92607142D01*
X105452381Y-92702380D01*
X105404762Y-92845238D01*
X105309524Y-92940476D01*
X105214286Y-92988095D01*
X105023810Y-93035714D01*
X104880952Y-93035714D01*
X104690476Y-92988095D01*
X104595238Y-92940476D01*
X104500000Y-92845238D01*
X104452381Y-92702380D01*
X104452381Y-92607142D01*
X104500000Y-92464285D01*
X104547619Y-92416666D01*
X104547619Y-92035714D02*
X104500000Y-91988095D01*
X104452381Y-91892857D01*
X104452381Y-91654761D01*
X104500000Y-91559523D01*
X104547619Y-91511904D01*
X104642857Y-91464285D01*
X104738095Y-91464285D01*
X104880952Y-91511904D01*
X105452381Y-92083333D01*
X105452381Y-91464285D01*
X105452381Y-89845238D02*
X105452381Y-90416667D01*
X105452381Y-90130953D02*
X104452381Y-90130953D01*
X104595238Y-90226191D01*
X104690476Y-90321429D01*
X104738095Y-90416667D01*
X104785714Y-88988095D02*
X105452381Y-88988095D01*
X104785714Y-89416667D02*
X105309524Y-89416667D01*
X105404762Y-89369048D01*
X105452381Y-89273810D01*
X105452381Y-89130952D01*
X105404762Y-89035714D01*
X105357143Y-88988095D01*
X104928571Y-88178571D02*
X104928571Y-88511905D01*
X105452381Y-88511905D02*
X104452381Y-88511905D01*
X104452381Y-88035714D01*
X100187143Y-90694285D02*
X100234762Y-90741904D01*
X100282381Y-90884761D01*
X100282381Y-90979999D01*
X100234762Y-91122857D01*
X100139524Y-91218095D01*
X100044286Y-91265714D01*
X99853810Y-91313333D01*
X99710952Y-91313333D01*
X99520476Y-91265714D01*
X99425238Y-91218095D01*
X99330000Y-91122857D01*
X99282381Y-90979999D01*
X99282381Y-90884761D01*
X99330000Y-90741904D01*
X99377619Y-90694285D01*
X99282381Y-90075238D02*
X99282381Y-89884761D01*
X99330000Y-89789523D01*
X99425238Y-89694285D01*
X99615714Y-89646666D01*
X99949048Y-89646666D01*
X100139524Y-89694285D01*
X100234762Y-89789523D01*
X100282381Y-89884761D01*
X100282381Y-90075238D01*
X100234762Y-90170476D01*
X100139524Y-90265714D01*
X99949048Y-90313333D01*
X99615714Y-90313333D01*
X99425238Y-90265714D01*
X99330000Y-90170476D01*
X99282381Y-90075238D01*
X100282381Y-89218095D02*
X99282381Y-89218095D01*
X100282381Y-88646666D01*
X99282381Y-88646666D01*
X100282381Y-87646666D02*
X100282381Y-88218095D01*
X100282381Y-87932381D02*
X99282381Y-87932381D01*
X99425238Y-88027619D01*
X99520476Y-88122857D01*
X99568095Y-88218095D01*
X91473810Y-93383333D02*
X91854762Y-93383333D01*
X91397619Y-93611905D02*
X91664286Y-92811905D01*
X91930953Y-93611905D01*
X92083333Y-92811905D02*
X92350000Y-93611905D01*
X92616667Y-92811905D01*
X93340476Y-93611905D02*
X93073809Y-93230952D01*
X92883333Y-93611905D02*
X92883333Y-92811905D01*
X93188095Y-92811905D01*
X93264286Y-92850000D01*
X93302381Y-92888095D01*
X93340476Y-92964286D01*
X93340476Y-93078571D01*
X93302381Y-93154762D01*
X93264286Y-93192857D01*
X93188095Y-93230952D01*
X92883333Y-93230952D01*
X93683333Y-93307143D02*
X94292857Y-93307143D01*
X94673809Y-93611905D02*
X94673809Y-92811905D01*
X95016666Y-93573810D02*
X95130952Y-93611905D01*
X95321428Y-93611905D01*
X95397618Y-93573810D01*
X95435714Y-93535714D01*
X95473809Y-93459524D01*
X95473809Y-93383333D01*
X95435714Y-93307143D01*
X95397618Y-93269048D01*
X95321428Y-93230952D01*
X95169047Y-93192857D01*
X95092856Y-93154762D01*
X95054761Y-93116667D01*
X95016666Y-93040476D01*
X95016666Y-92964286D01*
X95054761Y-92888095D01*
X95092856Y-92850000D01*
X95169047Y-92811905D01*
X95359523Y-92811905D01*
X95473809Y-92850000D01*
X95816666Y-93611905D02*
X95816666Y-92811905D01*
X96121428Y-92811905D01*
X96197619Y-92850000D01*
X96235714Y-92888095D01*
X96273809Y-92964286D01*
X96273809Y-93078571D01*
X96235714Y-93154762D01*
X96197619Y-93192857D01*
X96121428Y-93230952D01*
X95816666Y-93230952D01*
X96616666Y-93307143D02*
X97226190Y-93307143D01*
X97949999Y-92811905D02*
X97797618Y-92811905D01*
X97721428Y-92850000D01*
X97683333Y-92888095D01*
X97607142Y-93002381D01*
X97569047Y-93154762D01*
X97569047Y-93459524D01*
X97607142Y-93535714D01*
X97645237Y-93573810D01*
X97721428Y-93611905D01*
X97873809Y-93611905D01*
X97949999Y-93573810D01*
X97988095Y-93535714D01*
X98026190Y-93459524D01*
X98026190Y-93269048D01*
X97988095Y-93192857D01*
X97949999Y-93154762D01*
X97873809Y-93116667D01*
X97721428Y-93116667D01*
X97645237Y-93154762D01*
X97607142Y-93192857D01*
X97569047Y-93269048D01*
X65666667Y-71702381D02*
X65666667Y-72416667D01*
X65619047Y-72559524D01*
X65523809Y-72654762D01*
X65380952Y-72702381D01*
X65285714Y-72702381D01*
X66095238Y-71797619D02*
X66142857Y-71750000D01*
X66238095Y-71702381D01*
X66476191Y-71702381D01*
X66571429Y-71750000D01*
X66619048Y-71797619D01*
X66666667Y-71892857D01*
X66666667Y-71988095D01*
X66619048Y-72130952D01*
X66047619Y-72702381D01*
X66666667Y-72702381D01*
X115754762Y-82797619D02*
X115659524Y-82750000D01*
X115564286Y-82654762D01*
X115421429Y-82511905D01*
X115326190Y-82464286D01*
X115230952Y-82464286D01*
X115278571Y-82702381D02*
X115183333Y-82654762D01*
X115088095Y-82559524D01*
X115040476Y-82369048D01*
X115040476Y-82035714D01*
X115088095Y-81845238D01*
X115183333Y-81750000D01*
X115278571Y-81702381D01*
X115469048Y-81702381D01*
X115564286Y-81750000D01*
X115659524Y-81845238D01*
X115707143Y-82035714D01*
X115707143Y-82369048D01*
X115659524Y-82559524D01*
X115564286Y-82654762D01*
X115469048Y-82702381D01*
X115278571Y-82702381D01*
X116659524Y-82702381D02*
X116088095Y-82702381D01*
X116373809Y-82702381D02*
X116373809Y-81702381D01*
X116278571Y-81845238D01*
X116183333Y-81940476D01*
X116088095Y-81988095D01*
X111240476Y-84111905D02*
X111240476Y-83311905D01*
X111507143Y-83883333D01*
X111773810Y-83311905D01*
X111773810Y-84111905D01*
X112154762Y-84111905D02*
X112154762Y-83311905D01*
X112421429Y-83883333D01*
X112688096Y-83311905D01*
X112688096Y-84111905D01*
X113335715Y-83692857D02*
X113450001Y-83730952D01*
X113488096Y-83769048D01*
X113526191Y-83845238D01*
X113526191Y-83959524D01*
X113488096Y-84035714D01*
X113450001Y-84073810D01*
X113373810Y-84111905D01*
X113069048Y-84111905D01*
X113069048Y-83311905D01*
X113335715Y-83311905D01*
X113411905Y-83350000D01*
X113450001Y-83388095D01*
X113488096Y-83464286D01*
X113488096Y-83540476D01*
X113450001Y-83616667D01*
X113411905Y-83654762D01*
X113335715Y-83692857D01*
X113069048Y-83692857D01*
X114135715Y-83692857D02*
X113869048Y-83692857D01*
X113869048Y-84111905D02*
X113869048Y-83311905D01*
X114250001Y-83311905D01*
X114973810Y-84111905D02*
X114516667Y-84111905D01*
X114745238Y-84111905D02*
X114745238Y-83311905D01*
X114669048Y-83426190D01*
X114592857Y-83502381D01*
X114516667Y-83540476D01*
X115240477Y-83311905D02*
X115773810Y-83311905D01*
X115430953Y-84111905D01*
X116230953Y-83311905D02*
X116307144Y-83311905D01*
X116383334Y-83350000D01*
X116421429Y-83388095D01*
X116459525Y-83464286D01*
X116497620Y-83616667D01*
X116497620Y-83807143D01*
X116459525Y-83959524D01*
X116421429Y-84035714D01*
X116383334Y-84073810D01*
X116307144Y-84111905D01*
X116230953Y-84111905D01*
X116154763Y-84073810D01*
X116116667Y-84035714D01*
X116078572Y-83959524D01*
X116040477Y-83807143D01*
X116040477Y-83616667D01*
X116078572Y-83464286D01*
X116116667Y-83388095D01*
X116154763Y-83350000D01*
X116230953Y-83311905D01*
X56654762Y-87797619D02*
X56559524Y-87750000D01*
X56464286Y-87654762D01*
X56321429Y-87511905D01*
X56226190Y-87464286D01*
X56130952Y-87464286D01*
X56178571Y-87702381D02*
X56083333Y-87654762D01*
X55988095Y-87559524D01*
X55940476Y-87369048D01*
X55940476Y-87035714D01*
X55988095Y-86845238D01*
X56083333Y-86750000D01*
X56178571Y-86702381D01*
X56369048Y-86702381D01*
X56464286Y-86750000D01*
X56559524Y-86845238D01*
X56607143Y-87035714D01*
X56607143Y-87369048D01*
X56559524Y-87559524D01*
X56464286Y-87654762D01*
X56369048Y-87702381D01*
X56178571Y-87702381D01*
X56988095Y-86797619D02*
X57035714Y-86750000D01*
X57130952Y-86702381D01*
X57369048Y-86702381D01*
X57464286Y-86750000D01*
X57511905Y-86797619D01*
X57559524Y-86892857D01*
X57559524Y-86988095D01*
X57511905Y-87130952D01*
X56940476Y-87702381D01*
X57559524Y-87702381D01*
X54828571Y-88138095D02*
X54866666Y-88100000D01*
X54942857Y-88061905D01*
X55133333Y-88061905D01*
X55209523Y-88100000D01*
X55247619Y-88138095D01*
X55285714Y-88214286D01*
X55285714Y-88290476D01*
X55247619Y-88404762D01*
X54790476Y-88861905D01*
X55285714Y-88861905D01*
X55628571Y-88861905D02*
X55628571Y-88061905D01*
X56085714Y-88861905D01*
X56085714Y-88061905D01*
X56390476Y-88061905D02*
X56923809Y-88061905D01*
X56580952Y-88861905D01*
X57380952Y-88061905D02*
X57457143Y-88061905D01*
X57533333Y-88100000D01*
X57571428Y-88138095D01*
X57609524Y-88214286D01*
X57647619Y-88366667D01*
X57647619Y-88557143D01*
X57609524Y-88709524D01*
X57571428Y-88785714D01*
X57533333Y-88823810D01*
X57457143Y-88861905D01*
X57380952Y-88861905D01*
X57304762Y-88823810D01*
X57266666Y-88785714D01*
X57228571Y-88709524D01*
X57190476Y-88557143D01*
X57190476Y-88366667D01*
X57228571Y-88214286D01*
X57266666Y-88138095D01*
X57304762Y-88100000D01*
X57380952Y-88061905D01*
X58142857Y-88061905D02*
X58219048Y-88061905D01*
X58295238Y-88100000D01*
X58333333Y-88138095D01*
X58371429Y-88214286D01*
X58409524Y-88366667D01*
X58409524Y-88557143D01*
X58371429Y-88709524D01*
X58333333Y-88785714D01*
X58295238Y-88823810D01*
X58219048Y-88861905D01*
X58142857Y-88861905D01*
X58066667Y-88823810D01*
X58028571Y-88785714D01*
X57990476Y-88709524D01*
X57952381Y-88557143D01*
X57952381Y-88366667D01*
X57990476Y-88214286D01*
X58028571Y-88138095D01*
X58066667Y-88100000D01*
X58142857Y-88061905D01*
X58714286Y-88138095D02*
X58752381Y-88100000D01*
X58828572Y-88061905D01*
X59019048Y-88061905D01*
X59095238Y-88100000D01*
X59133334Y-88138095D01*
X59171429Y-88214286D01*
X59171429Y-88290476D01*
X59133334Y-88404762D01*
X58676191Y-88861905D01*
X59171429Y-88861905D01*
X105583334Y-84452381D02*
X105250000Y-83976190D01*
X105011905Y-84452381D02*
X105011905Y-83452381D01*
X105392858Y-83452381D01*
X105488096Y-83500000D01*
X105535715Y-83547619D01*
X105583334Y-83642857D01*
X105583334Y-83785714D01*
X105535715Y-83880952D01*
X105488096Y-83928571D01*
X105392858Y-83976190D01*
X105011905Y-83976190D01*
X105916667Y-83452381D02*
X106535715Y-83452381D01*
X106202381Y-83833333D01*
X106345239Y-83833333D01*
X106440477Y-83880952D01*
X106488096Y-83928571D01*
X106535715Y-84023810D01*
X106535715Y-84261905D01*
X106488096Y-84357143D01*
X106440477Y-84404762D01*
X106345239Y-84452381D01*
X106059524Y-84452381D01*
X105964286Y-84404762D01*
X105916667Y-84357143D01*
X107904762Y-84452381D02*
X107333333Y-84452381D01*
X107619047Y-84452381D02*
X107619047Y-83452381D01*
X107523809Y-83595238D01*
X107428571Y-83690476D01*
X107333333Y-83738095D01*
X108523809Y-83452381D02*
X108619048Y-83452381D01*
X108714286Y-83500000D01*
X108761905Y-83547619D01*
X108809524Y-83642857D01*
X108857143Y-83833333D01*
X108857143Y-84071429D01*
X108809524Y-84261905D01*
X108761905Y-84357143D01*
X108714286Y-84404762D01*
X108619048Y-84452381D01*
X108523809Y-84452381D01*
X108428571Y-84404762D01*
X108380952Y-84357143D01*
X108333333Y-84261905D01*
X108285714Y-84071429D01*
X108285714Y-83833333D01*
X108333333Y-83642857D01*
X108380952Y-83547619D01*
X108428571Y-83500000D01*
X108523809Y-83452381D01*
X109285714Y-84452381D02*
X109285714Y-83452381D01*
X109380952Y-84071429D02*
X109666667Y-84452381D01*
X109666667Y-83785714D02*
X109285714Y-84166667D01*
X65083334Y-83452381D02*
X64750000Y-82976190D01*
X64511905Y-83452381D02*
X64511905Y-82452381D01*
X64892858Y-82452381D01*
X64988096Y-82500000D01*
X65035715Y-82547619D01*
X65083334Y-82642857D01*
X65083334Y-82785714D01*
X65035715Y-82880952D01*
X64988096Y-82928571D01*
X64892858Y-82976190D01*
X64511905Y-82976190D01*
X65940477Y-82785714D02*
X65940477Y-83452381D01*
X65702381Y-82404762D02*
X65464286Y-83119048D01*
X66083334Y-83119048D01*
X64904762Y-84702381D02*
X64333333Y-84702381D01*
X64619047Y-84702381D02*
X64619047Y-83702381D01*
X64523809Y-83845238D01*
X64428571Y-83940476D01*
X64333333Y-83988095D01*
X65523809Y-83702381D02*
X65619048Y-83702381D01*
X65714286Y-83750000D01*
X65761905Y-83797619D01*
X65809524Y-83892857D01*
X65857143Y-84083333D01*
X65857143Y-84321429D01*
X65809524Y-84511905D01*
X65761905Y-84607143D01*
X65714286Y-84654762D01*
X65619048Y-84702381D01*
X65523809Y-84702381D01*
X65428571Y-84654762D01*
X65380952Y-84607143D01*
X65333333Y-84511905D01*
X65285714Y-84321429D01*
X65285714Y-84083333D01*
X65333333Y-83892857D01*
X65380952Y-83797619D01*
X65428571Y-83750000D01*
X65523809Y-83702381D01*
X66285714Y-84702381D02*
X66285714Y-83702381D01*
X66380952Y-84321429D02*
X66666667Y-84702381D01*
X66666667Y-84035714D02*
X66285714Y-84416667D01*
X105583334Y-79202381D02*
X105250000Y-78726190D01*
X105011905Y-79202381D02*
X105011905Y-78202381D01*
X105392858Y-78202381D01*
X105488096Y-78250000D01*
X105535715Y-78297619D01*
X105583334Y-78392857D01*
X105583334Y-78535714D01*
X105535715Y-78630952D01*
X105488096Y-78678571D01*
X105392858Y-78726190D01*
X105011905Y-78726190D01*
X106488096Y-78202381D02*
X106011905Y-78202381D01*
X105964286Y-78678571D01*
X106011905Y-78630952D01*
X106107143Y-78583333D01*
X106345239Y-78583333D01*
X106440477Y-78630952D01*
X106488096Y-78678571D01*
X106535715Y-78773810D01*
X106535715Y-79011905D01*
X106488096Y-79107143D01*
X106440477Y-79154762D01*
X106345239Y-79202381D01*
X106107143Y-79202381D01*
X106011905Y-79154762D01*
X105964286Y-79107143D01*
X107214286Y-78202381D02*
X107833334Y-78202381D01*
X107500000Y-78583333D01*
X107642858Y-78583333D01*
X107738096Y-78630952D01*
X107785715Y-78678571D01*
X107833334Y-78773810D01*
X107833334Y-79011905D01*
X107785715Y-79107143D01*
X107738096Y-79154762D01*
X107642858Y-79202381D01*
X107357143Y-79202381D01*
X107261905Y-79154762D01*
X107214286Y-79107143D01*
X108166667Y-78202381D02*
X108785715Y-78202381D01*
X108452381Y-78583333D01*
X108595239Y-78583333D01*
X108690477Y-78630952D01*
X108738096Y-78678571D01*
X108785715Y-78773810D01*
X108785715Y-79011905D01*
X108738096Y-79107143D01*
X108690477Y-79154762D01*
X108595239Y-79202381D01*
X108309524Y-79202381D01*
X108214286Y-79154762D01*
X108166667Y-79107143D01*
X109404762Y-78202381D02*
X109500001Y-78202381D01*
X109595239Y-78250000D01*
X109642858Y-78297619D01*
X109690477Y-78392857D01*
X109738096Y-78583333D01*
X109738096Y-78821429D01*
X109690477Y-79011905D01*
X109642858Y-79107143D01*
X109595239Y-79154762D01*
X109500001Y-79202381D01*
X109404762Y-79202381D01*
X109309524Y-79154762D01*
X109261905Y-79107143D01*
X109214286Y-79011905D01*
X109166667Y-78821429D01*
X109166667Y-78583333D01*
X109214286Y-78392857D01*
X109261905Y-78297619D01*
X109309524Y-78250000D01*
X109404762Y-78202381D01*
X65083334Y-85952381D02*
X64750000Y-85476190D01*
X64511905Y-85952381D02*
X64511905Y-84952381D01*
X64892858Y-84952381D01*
X64988096Y-85000000D01*
X65035715Y-85047619D01*
X65083334Y-85142857D01*
X65083334Y-85285714D01*
X65035715Y-85380952D01*
X64988096Y-85428571D01*
X64892858Y-85476190D01*
X64511905Y-85476190D01*
X65940477Y-84952381D02*
X65750000Y-84952381D01*
X65654762Y-85000000D01*
X65607143Y-85047619D01*
X65511905Y-85190476D01*
X65464286Y-85380952D01*
X65464286Y-85761905D01*
X65511905Y-85857143D01*
X65559524Y-85904762D01*
X65654762Y-85952381D01*
X65845239Y-85952381D01*
X65940477Y-85904762D01*
X65988096Y-85857143D01*
X66035715Y-85761905D01*
X66035715Y-85523810D01*
X65988096Y-85428571D01*
X65940477Y-85380952D01*
X65845239Y-85333333D01*
X65654762Y-85333333D01*
X65559524Y-85380952D01*
X65511905Y-85428571D01*
X65464286Y-85523810D01*
X64464286Y-86452381D02*
X65083334Y-86452381D01*
X64750000Y-86833333D01*
X64892858Y-86833333D01*
X64988096Y-86880952D01*
X65035715Y-86928571D01*
X65083334Y-87023810D01*
X65083334Y-87261905D01*
X65035715Y-87357143D01*
X64988096Y-87404762D01*
X64892858Y-87452381D01*
X64607143Y-87452381D01*
X64511905Y-87404762D01*
X64464286Y-87357143D01*
X65416667Y-86452381D02*
X66035715Y-86452381D01*
X65702381Y-86833333D01*
X65845239Y-86833333D01*
X65940477Y-86880952D01*
X65988096Y-86928571D01*
X66035715Y-87023810D01*
X66035715Y-87261905D01*
X65988096Y-87357143D01*
X65940477Y-87404762D01*
X65845239Y-87452381D01*
X65559524Y-87452381D01*
X65464286Y-87404762D01*
X65416667Y-87357143D01*
X66654762Y-86452381D02*
X66750001Y-86452381D01*
X66845239Y-86500000D01*
X66892858Y-86547619D01*
X66940477Y-86642857D01*
X66988096Y-86833333D01*
X66988096Y-87071429D01*
X66940477Y-87261905D01*
X66892858Y-87357143D01*
X66845239Y-87404762D01*
X66750001Y-87452381D01*
X66654762Y-87452381D01*
X66559524Y-87404762D01*
X66511905Y-87357143D01*
X66464286Y-87261905D01*
X66416667Y-87071429D01*
X66416667Y-86833333D01*
X66464286Y-86642857D01*
X66511905Y-86547619D01*
X66559524Y-86500000D01*
X66654762Y-86452381D01*
X111208095Y-86652381D02*
X111208095Y-87461905D01*
X111255714Y-87557143D01*
X111303333Y-87604762D01*
X111398571Y-87652381D01*
X111589048Y-87652381D01*
X111684286Y-87604762D01*
X111731905Y-87557143D01*
X111779524Y-87461905D01*
X111779524Y-86652381D01*
X112779524Y-87652381D02*
X112208095Y-87652381D01*
X112493809Y-87652381D02*
X112493809Y-86652381D01*
X112398571Y-86795238D01*
X112303333Y-86890476D01*
X112208095Y-86938095D01*
X108781905Y-94102381D02*
X108781905Y-93102381D01*
X109115239Y-93816667D01*
X109448572Y-93102381D01*
X109448572Y-94102381D01*
X110496191Y-94007143D02*
X110448572Y-94054762D01*
X110305715Y-94102381D01*
X110210477Y-94102381D01*
X110067619Y-94054762D01*
X109972381Y-93959524D01*
X109924762Y-93864286D01*
X109877143Y-93673810D01*
X109877143Y-93530952D01*
X109924762Y-93340476D01*
X109972381Y-93245238D01*
X110067619Y-93150000D01*
X110210477Y-93102381D01*
X110305715Y-93102381D01*
X110448572Y-93150000D01*
X110496191Y-93197619D01*
X110924762Y-94102381D02*
X110924762Y-93102381D01*
X111305715Y-93102381D01*
X111400953Y-93150000D01*
X111448572Y-93197619D01*
X111496191Y-93292857D01*
X111496191Y-93435714D01*
X111448572Y-93530952D01*
X111400953Y-93578571D01*
X111305715Y-93626190D01*
X110924762Y-93626190D01*
X112448572Y-94102381D02*
X111877143Y-94102381D01*
X112162857Y-94102381D02*
X112162857Y-93102381D01*
X112067619Y-93245238D01*
X111972381Y-93340476D01*
X111877143Y-93388095D01*
X112781905Y-93102381D02*
X113448572Y-93102381D01*
X113020000Y-94102381D01*
X114020000Y-93102381D02*
X114115239Y-93102381D01*
X114210477Y-93150000D01*
X114258096Y-93197619D01*
X114305715Y-93292857D01*
X114353334Y-93483333D01*
X114353334Y-93721429D01*
X114305715Y-93911905D01*
X114258096Y-94007143D01*
X114210477Y-94054762D01*
X114115239Y-94102381D01*
X114020000Y-94102381D01*
X113924762Y-94054762D01*
X113877143Y-94007143D01*
X113829524Y-93911905D01*
X113781905Y-93721429D01*
X113781905Y-93483333D01*
X113829524Y-93292857D01*
X113877143Y-93197619D01*
X113924762Y-93150000D01*
X114020000Y-93102381D01*
X114686667Y-93102381D02*
X115305715Y-93102381D01*
X114972381Y-93483333D01*
X115115239Y-93483333D01*
X115210477Y-93530952D01*
X115258096Y-93578571D01*
X115305715Y-93673810D01*
X115305715Y-93911905D01*
X115258096Y-94007143D01*
X115210477Y-94054762D01*
X115115239Y-94102381D01*
X114829524Y-94102381D01*
X114734286Y-94054762D01*
X114686667Y-94007143D01*
X119202381Y-86488095D02*
X118202381Y-86488095D01*
X118202381Y-86250000D01*
X118250000Y-86107142D01*
X118345238Y-86011904D01*
X118440476Y-85964285D01*
X118630952Y-85916666D01*
X118773810Y-85916666D01*
X118964286Y-85964285D01*
X119059524Y-86011904D01*
X119154762Y-86107142D01*
X119202381Y-86250000D01*
X119202381Y-86488095D01*
X119202381Y-84964285D02*
X119202381Y-85535714D01*
X119202381Y-85250000D02*
X118202381Y-85250000D01*
X118345238Y-85345238D01*
X118440476Y-85440476D01*
X118488095Y-85535714D01*
X124302381Y-86559524D02*
X123302381Y-86559524D01*
X124016667Y-86226190D01*
X123302381Y-85892857D01*
X124302381Y-85892857D01*
X123302381Y-85511905D02*
X123302381Y-84845238D01*
X124302381Y-85273810D01*
X117416667Y-69452381D02*
X117416667Y-70166667D01*
X117369047Y-70309524D01*
X117273809Y-70404762D01*
X117130952Y-70452381D01*
X117035714Y-70452381D01*
X118416667Y-70452381D02*
X117845238Y-70452381D01*
X118130952Y-70452381D02*
X118130952Y-69452381D01*
X118035714Y-69595238D01*
X117940476Y-69690476D01*
X117845238Y-69738095D01*
X64666667Y-69452381D02*
X64666667Y-70166667D01*
X64619047Y-70309524D01*
X64523809Y-70404762D01*
X64380952Y-70452381D01*
X64285714Y-70452381D01*
X65047619Y-69452381D02*
X65666667Y-69452381D01*
X65333333Y-69833333D01*
X65476191Y-69833333D01*
X65571429Y-69880952D01*
X65619048Y-69928571D01*
X65666667Y-70023810D01*
X65666667Y-70261905D01*
X65619048Y-70357143D01*
X65571429Y-70404762D01*
X65476191Y-70452381D01*
X65190476Y-70452381D01*
X65095238Y-70404762D01*
X65047619Y-70357143D01*
X83472381Y-89963905D02*
X84281905Y-89963905D01*
X84377143Y-89916286D01*
X84424762Y-89868667D01*
X84472381Y-89773429D01*
X84472381Y-89582952D01*
X84424762Y-89487714D01*
X84377143Y-89440095D01*
X84281905Y-89392476D01*
X83472381Y-89392476D01*
X83567619Y-88963905D02*
X83520000Y-88916286D01*
X83472381Y-88821048D01*
X83472381Y-88582952D01*
X83520000Y-88487714D01*
X83567619Y-88440095D01*
X83662857Y-88392476D01*
X83758095Y-88392476D01*
X83900952Y-88440095D01*
X84472381Y-89011524D01*
X84472381Y-88392476D01*
X75047619Y-94383333D02*
X75428571Y-94383333D01*
X74971428Y-94611905D02*
X75238095Y-93811905D01*
X75504762Y-94611905D01*
X75657142Y-93811905D02*
X76114285Y-93811905D01*
X75885714Y-94611905D02*
X75885714Y-93811905D01*
X76266666Y-93811905D02*
X76723809Y-93811905D01*
X76495238Y-94611905D02*
X76495238Y-93811905D01*
X76990476Y-94611905D02*
X76990476Y-93811905D01*
X77371428Y-94611905D02*
X77371428Y-93811905D01*
X77828571Y-94611905D01*
X77828571Y-93811905D01*
X78361904Y-94230952D02*
X78361904Y-94611905D01*
X78095237Y-93811905D02*
X78361904Y-94230952D01*
X78628571Y-93811905D01*
X79009523Y-94154762D02*
X78933332Y-94116667D01*
X78895237Y-94078571D01*
X78857142Y-94002381D01*
X78857142Y-93964286D01*
X78895237Y-93888095D01*
X78933332Y-93850000D01*
X79009523Y-93811905D01*
X79161904Y-93811905D01*
X79238094Y-93850000D01*
X79276190Y-93888095D01*
X79314285Y-93964286D01*
X79314285Y-94002381D01*
X79276190Y-94078571D01*
X79238094Y-94116667D01*
X79161904Y-94154762D01*
X79009523Y-94154762D01*
X78933332Y-94192857D01*
X78895237Y-94230952D01*
X78857142Y-94307143D01*
X78857142Y-94459524D01*
X78895237Y-94535714D01*
X78933332Y-94573810D01*
X79009523Y-94611905D01*
X79161904Y-94611905D01*
X79238094Y-94573810D01*
X79276190Y-94535714D01*
X79314285Y-94459524D01*
X79314285Y-94307143D01*
X79276190Y-94230952D01*
X79238094Y-94192857D01*
X79161904Y-94154762D01*
X79999999Y-94078571D02*
X79999999Y-94611905D01*
X79809523Y-93773810D02*
X79619047Y-94345238D01*
X80114285Y-94345238D01*
X80419047Y-94307143D02*
X81028571Y-94307143D01*
X81371428Y-93888095D02*
X81409523Y-93850000D01*
X81485714Y-93811905D01*
X81676190Y-93811905D01*
X81752380Y-93850000D01*
X81790476Y-93888095D01*
X81828571Y-93964286D01*
X81828571Y-94040476D01*
X81790476Y-94154762D01*
X81333333Y-94611905D01*
X81828571Y-94611905D01*
X82323809Y-93811905D02*
X82400000Y-93811905D01*
X82476190Y-93850000D01*
X82514285Y-93888095D01*
X82552381Y-93964286D01*
X82590476Y-94116667D01*
X82590476Y-94307143D01*
X82552381Y-94459524D01*
X82514285Y-94535714D01*
X82476190Y-94573810D01*
X82400000Y-94611905D01*
X82323809Y-94611905D01*
X82247619Y-94573810D01*
X82209523Y-94535714D01*
X82171428Y-94459524D01*
X82133333Y-94307143D01*
X82133333Y-94116667D01*
X82171428Y-93964286D01*
X82209523Y-93888095D01*
X82247619Y-93850000D01*
X82323809Y-93811905D01*
X82895238Y-94573810D02*
X83009524Y-94611905D01*
X83200000Y-94611905D01*
X83276190Y-94573810D01*
X83314286Y-94535714D01*
X83352381Y-94459524D01*
X83352381Y-94383333D01*
X83314286Y-94307143D01*
X83276190Y-94269048D01*
X83200000Y-94230952D01*
X83047619Y-94192857D01*
X82971428Y-94154762D01*
X82933333Y-94116667D01*
X82895238Y-94040476D01*
X82895238Y-93964286D01*
X82933333Y-93888095D01*
X82971428Y-93850000D01*
X83047619Y-93811905D01*
X83238095Y-93811905D01*
X83352381Y-93850000D01*
X83657143Y-94573810D02*
X83771429Y-94611905D01*
X83961905Y-94611905D01*
X84038095Y-94573810D01*
X84076191Y-94535714D01*
X84114286Y-94459524D01*
X84114286Y-94383333D01*
X84076191Y-94307143D01*
X84038095Y-94269048D01*
X83961905Y-94230952D01*
X83809524Y-94192857D01*
X83733333Y-94154762D01*
X83695238Y-94116667D01*
X83657143Y-94040476D01*
X83657143Y-93964286D01*
X83695238Y-93888095D01*
X83733333Y-93850000D01*
X83809524Y-93811905D01*
X84000000Y-93811905D01*
X84114286Y-93850000D01*
X84457143Y-93811905D02*
X84457143Y-94459524D01*
X84495238Y-94535714D01*
X84533334Y-94573810D01*
X84609524Y-94611905D01*
X84761905Y-94611905D01*
X84838096Y-94573810D01*
X84876191Y-94535714D01*
X84914286Y-94459524D01*
X84914286Y-93811905D01*
X56190476Y-92952381D02*
X56190476Y-91952381D01*
X56523810Y-92666667D01*
X56857143Y-91952381D01*
X56857143Y-92952381D01*
X57238095Y-91952381D02*
X57857143Y-91952381D01*
X57523809Y-92333333D01*
X57666667Y-92333333D01*
X57761905Y-92380952D01*
X57809524Y-92428571D01*
X57857143Y-92523810D01*
X57857143Y-92761905D01*
X57809524Y-92857143D01*
X57761905Y-92904762D01*
X57666667Y-92952381D01*
X57380952Y-92952381D01*
X57285714Y-92904762D01*
X57238095Y-92857143D01*
X124190476Y-92952381D02*
X124190476Y-91952381D01*
X124523810Y-92666667D01*
X124857143Y-91952381D01*
X124857143Y-92952381D01*
X125238095Y-91952381D02*
X125857143Y-91952381D01*
X125523809Y-92333333D01*
X125666667Y-92333333D01*
X125761905Y-92380952D01*
X125809524Y-92428571D01*
X125857143Y-92523810D01*
X125857143Y-92761905D01*
X125809524Y-92857143D01*
X125761905Y-92904762D01*
X125666667Y-92952381D01*
X125380952Y-92952381D01*
X125285714Y-92904762D01*
X125238095Y-92857143D01*
M02*
