G04 #@! TF.FileFunction,Copper,L2,Bot,Signal*
%FSLAX46Y46*%
G04 Gerber Fmt 4.6, Leading zero omitted, Abs format (unit mm)*
G04 Created by KiCad (PCBNEW 4.0.6-e0-6349~53~ubuntu16.04.1) date Wed Jun 28 19:47:55 2017*
%MOMM*%
%LPD*%
G01*
G04 APERTURE LIST*
%ADD10C,0.100000*%
%ADD11R,1.700000X1.700000*%
%ADD12O,1.700000X1.700000*%
%ADD13O,1.998980X1.998980*%
%ADD14R,1.998980X1.998980*%
%ADD15R,1.250000X1.500000*%
%ADD16R,1.500000X1.300000*%
%ADD17R,3.500000X1.800000*%
%ADD18R,2.500000X2.500000*%
%ADD19C,2.500000*%
%ADD20C,1.200000*%
%ADD21C,0.600000*%
%ADD22C,0.600000*%
%ADD23C,0.250000*%
%ADD24C,0.254000*%
G04 APERTURE END LIST*
D10*
D11*
X98750000Y-81250000D03*
D12*
X98750000Y-78710000D03*
X98750000Y-76170000D03*
X98750000Y-73630000D03*
X101290000Y-81250000D03*
X101290000Y-78710000D03*
X101290000Y-76170000D03*
X101290000Y-73630000D03*
D13*
X111460000Y-72750000D03*
D14*
X114000000Y-72750000D03*
D15*
X74250000Y-90750000D03*
X74250000Y-88250000D03*
D11*
X97500000Y-88210000D03*
D12*
X97500000Y-90750000D03*
X94960000Y-88210000D03*
X94960000Y-90750000D03*
X92420000Y-88210000D03*
X92420000Y-90750000D03*
D11*
X68670000Y-71000000D03*
D12*
X71210000Y-71000000D03*
X73750000Y-71000000D03*
X76290000Y-71000000D03*
D16*
X57600000Y-80250000D03*
X54900000Y-80250000D03*
X57600000Y-77500000D03*
X54900000Y-77500000D03*
D17*
X110000000Y-78000000D03*
X115000000Y-78000000D03*
D18*
X126250000Y-74000000D03*
D19*
X121250000Y-74000000D03*
D13*
X54880000Y-72500000D03*
D14*
X62500000Y-72500000D03*
D13*
X59960000Y-72500000D03*
X57420000Y-72500000D03*
D20*
X59000000Y-82250000D03*
X74250000Y-84250000D03*
X74250000Y-94500000D03*
D21*
X106000000Y-84750000D03*
X84000000Y-93750000D03*
X80500000Y-91077400D03*
D22*
X74250000Y-88250000D02*
X74250000Y-84250000D01*
X74250000Y-90750000D02*
X74250000Y-94500000D01*
X54900000Y-80250000D02*
X54900000Y-77500000D01*
X54900000Y-77500000D02*
X54900000Y-72520000D01*
X54900000Y-72520000D02*
X54880000Y-72500000D01*
D23*
X97500000Y-88210000D02*
X102540000Y-88210000D01*
X102540000Y-88210000D02*
X106000000Y-84750000D01*
X59960000Y-72500000D02*
X59960000Y-70790000D01*
X59960000Y-70790000D02*
X60500000Y-70250000D01*
X60500000Y-70250000D02*
X66250000Y-70250000D01*
X66250000Y-70250000D02*
X67000000Y-71000000D01*
X67000000Y-71000000D02*
X68670000Y-71000000D01*
X57600000Y-77500000D02*
X57600000Y-74860000D01*
X57600000Y-74860000D02*
X59960000Y-72500000D01*
X62500000Y-72500000D02*
X63749490Y-72500000D01*
X63749490Y-72500000D02*
X64499490Y-73250000D01*
X64499490Y-73250000D02*
X70162081Y-73250000D01*
X70162081Y-73250000D02*
X71210000Y-72202081D01*
X71210000Y-72202081D02*
X71210000Y-71000000D01*
X71210000Y-71000000D02*
X71210000Y-71710000D01*
X57600000Y-80250000D02*
X58600000Y-80250000D01*
X58600000Y-80250000D02*
X62500000Y-76350000D01*
X62500000Y-76350000D02*
X62500000Y-73749490D01*
X62500000Y-73749490D02*
X62500000Y-72500000D01*
X84000000Y-93750000D02*
X84000000Y-91000000D01*
X84000000Y-91000000D02*
X86790000Y-88210000D01*
X86790000Y-88210000D02*
X92420000Y-88210000D01*
D22*
X111460000Y-72750000D02*
X111460000Y-71336508D01*
X111460000Y-71336508D02*
X112296508Y-70500000D01*
X112296508Y-70500000D02*
X119500000Y-70500000D01*
X119500000Y-70500000D02*
X121250000Y-72250000D01*
X121250000Y-72250000D02*
X121250000Y-74000000D01*
X111460000Y-72750000D02*
X111460000Y-76540000D01*
X111460000Y-76540000D02*
X110000000Y-78000000D01*
D23*
X73750000Y-71000000D02*
X73750000Y-72500000D01*
X73750000Y-72500000D02*
X74880000Y-73630000D01*
X74880000Y-73630000D02*
X98750000Y-73630000D01*
D22*
X115000000Y-78000000D02*
X115000000Y-73750000D01*
X115000000Y-73750000D02*
X114000000Y-72750000D01*
D24*
X86000000Y-85500000D02*
X80500000Y-91077400D01*
X80500000Y-91000000D02*
X80500000Y-91077400D01*
X100250000Y-85500000D02*
X86000000Y-85500000D01*
X103500000Y-82250000D02*
X100250000Y-85500000D01*
X103500000Y-79717919D02*
X103500000Y-82250000D01*
X101290000Y-78710000D02*
X102492081Y-78710000D01*
X102492081Y-78710000D02*
X103500000Y-79717919D01*
G36*
X111635363Y-69838855D02*
X110798855Y-70675363D01*
X110596173Y-70978699D01*
X110525000Y-71336508D01*
X110525000Y-71425338D01*
X110272219Y-71594241D01*
X109917906Y-72124508D01*
X109793488Y-72750000D01*
X109917906Y-73375492D01*
X110272219Y-73905759D01*
X110525000Y-74074662D01*
X110525000Y-76152710D01*
X110225150Y-76452560D01*
X108250000Y-76452560D01*
X108014683Y-76496838D01*
X107798559Y-76635910D01*
X107653569Y-76848110D01*
X107602560Y-77100000D01*
X107602560Y-78900000D01*
X107646838Y-79135317D01*
X107785910Y-79351441D01*
X107998110Y-79496431D01*
X108250000Y-79547440D01*
X111750000Y-79547440D01*
X111985317Y-79503162D01*
X112201441Y-79364090D01*
X112346431Y-79151890D01*
X112397440Y-78900000D01*
X112397440Y-77100000D01*
X112353162Y-76864683D01*
X112335787Y-76837682D01*
X112395000Y-76540000D01*
X112395000Y-74074662D01*
X112437077Y-74046547D01*
X112536420Y-74200931D01*
X112748620Y-74345921D01*
X113000510Y-74396930D01*
X114065000Y-74396930D01*
X114065000Y-76452560D01*
X113250000Y-76452560D01*
X113014683Y-76496838D01*
X112798559Y-76635910D01*
X112653569Y-76848110D01*
X112602560Y-77100000D01*
X112602560Y-78900000D01*
X112646838Y-79135317D01*
X112785910Y-79351441D01*
X112998110Y-79496431D01*
X113250000Y-79547440D01*
X116750000Y-79547440D01*
X116985317Y-79503162D01*
X117201441Y-79364090D01*
X117346431Y-79151890D01*
X117397440Y-78900000D01*
X117397440Y-77100000D01*
X117353162Y-76864683D01*
X117214090Y-76648559D01*
X117001890Y-76503569D01*
X116750000Y-76452560D01*
X115935000Y-76452560D01*
X115935000Y-73750005D01*
X115935001Y-73750000D01*
X115863827Y-73392192D01*
X115863827Y-73392191D01*
X115661145Y-73088855D01*
X115646930Y-73074640D01*
X115646930Y-71750510D01*
X115602652Y-71515193D01*
X115551049Y-71435000D01*
X119112710Y-71435000D01*
X120131145Y-72453435D01*
X119652907Y-72930839D01*
X119365328Y-73623405D01*
X119364674Y-74373305D01*
X119651043Y-75066372D01*
X120180839Y-75597093D01*
X120873405Y-75884672D01*
X121623305Y-75885326D01*
X122316372Y-75598957D01*
X122847093Y-75069161D01*
X123134672Y-74376595D01*
X123134751Y-74285750D01*
X124365000Y-74285750D01*
X124365000Y-75376310D01*
X124461673Y-75609699D01*
X124640302Y-75788327D01*
X124873691Y-75885000D01*
X125964250Y-75885000D01*
X126123000Y-75726250D01*
X126123000Y-74127000D01*
X126377000Y-74127000D01*
X126377000Y-75726250D01*
X126535750Y-75885000D01*
X127626309Y-75885000D01*
X127859698Y-75788327D01*
X128038327Y-75609699D01*
X128135000Y-75376310D01*
X128135000Y-74285750D01*
X127976250Y-74127000D01*
X126377000Y-74127000D01*
X126123000Y-74127000D01*
X124523750Y-74127000D01*
X124365000Y-74285750D01*
X123134751Y-74285750D01*
X123135326Y-73626695D01*
X122848957Y-72933628D01*
X122539560Y-72623690D01*
X124365000Y-72623690D01*
X124365000Y-73714250D01*
X124523750Y-73873000D01*
X126123000Y-73873000D01*
X126123000Y-72273750D01*
X126377000Y-72273750D01*
X126377000Y-73873000D01*
X127976250Y-73873000D01*
X128135000Y-73714250D01*
X128135000Y-72623690D01*
X128038327Y-72390301D01*
X127859698Y-72211673D01*
X127626309Y-72115000D01*
X126535750Y-72115000D01*
X126377000Y-72273750D01*
X126123000Y-72273750D01*
X125964250Y-72115000D01*
X124873691Y-72115000D01*
X124640302Y-72211673D01*
X124461673Y-72390301D01*
X124365000Y-72623690D01*
X122539560Y-72623690D01*
X122319161Y-72402907D01*
X122185000Y-72347198D01*
X122185000Y-72250000D01*
X122113827Y-71892191D01*
X121911145Y-71588855D01*
X120161145Y-69838855D01*
X119968299Y-69710000D01*
X128290000Y-69710000D01*
X128290000Y-98290000D01*
X53710000Y-98290000D01*
X53710000Y-95442619D01*
X54764613Y-95442619D01*
X55104155Y-96264372D01*
X55732321Y-96893636D01*
X56553481Y-97234611D01*
X57442619Y-97235387D01*
X58264372Y-96895845D01*
X58893636Y-96267679D01*
X59234611Y-95446519D01*
X59235387Y-94557381D01*
X58895845Y-93735628D01*
X58267679Y-93106364D01*
X57446519Y-92765389D01*
X56557381Y-92764613D01*
X55735628Y-93104155D01*
X55106364Y-93732321D01*
X54765389Y-94553481D01*
X54764613Y-95442619D01*
X53710000Y-95442619D01*
X53710000Y-90000000D01*
X72977560Y-90000000D01*
X72977560Y-91500000D01*
X73021838Y-91735317D01*
X73160910Y-91951441D01*
X73315000Y-92056726D01*
X73315000Y-93688338D01*
X73203629Y-93799515D01*
X73015215Y-94253266D01*
X73014786Y-94744579D01*
X73202408Y-95198657D01*
X73549515Y-95546371D01*
X74003266Y-95734785D01*
X74494579Y-95735214D01*
X74948657Y-95547592D01*
X75053813Y-95442619D01*
X122764613Y-95442619D01*
X123104155Y-96264372D01*
X123732321Y-96893636D01*
X124553481Y-97234611D01*
X125442619Y-97235387D01*
X126264372Y-96895845D01*
X126893636Y-96267679D01*
X127234611Y-95446519D01*
X127235387Y-94557381D01*
X126895845Y-93735628D01*
X126267679Y-93106364D01*
X125446519Y-92765389D01*
X124557381Y-92764613D01*
X123735628Y-93104155D01*
X123106364Y-93732321D01*
X122765389Y-94553481D01*
X122764613Y-95442619D01*
X75053813Y-95442619D01*
X75296371Y-95200485D01*
X75484785Y-94746734D01*
X75485214Y-94255421D01*
X75352888Y-93935167D01*
X83064838Y-93935167D01*
X83206883Y-94278943D01*
X83469673Y-94542192D01*
X83813201Y-94684838D01*
X84185167Y-94685162D01*
X84528943Y-94543117D01*
X84792192Y-94280327D01*
X84934838Y-93936799D01*
X84935162Y-93564833D01*
X84793117Y-93221057D01*
X84760000Y-93187882D01*
X84760000Y-91314802D01*
X84967910Y-91106892D01*
X90978514Y-91106892D01*
X91224817Y-91631358D01*
X91653076Y-92021645D01*
X92063110Y-92191476D01*
X92293000Y-92070155D01*
X92293000Y-90877000D01*
X91099181Y-90877000D01*
X90978514Y-91106892D01*
X84967910Y-91106892D01*
X87104802Y-88970000D01*
X91156699Y-88970000D01*
X91369946Y-89289147D01*
X91653101Y-89478345D01*
X91653076Y-89478355D01*
X91224817Y-89868642D01*
X90978514Y-90393108D01*
X91099181Y-90623000D01*
X92293000Y-90623000D01*
X92293000Y-90603000D01*
X92547000Y-90603000D01*
X92547000Y-90623000D01*
X92567000Y-90623000D01*
X92567000Y-90877000D01*
X92547000Y-90877000D01*
X92547000Y-92070155D01*
X92776890Y-92191476D01*
X93186924Y-92021645D01*
X93615183Y-91631358D01*
X93682298Y-91488447D01*
X93909946Y-91829147D01*
X94391715Y-92151054D01*
X94960000Y-92264093D01*
X95528285Y-92151054D01*
X96010054Y-91829147D01*
X96230000Y-91499974D01*
X96449946Y-91829147D01*
X96931715Y-92151054D01*
X97500000Y-92264093D01*
X98068285Y-92151054D01*
X98550054Y-91829147D01*
X98871961Y-91347378D01*
X98985000Y-90779093D01*
X98985000Y-90720907D01*
X98871961Y-90152622D01*
X98550054Y-89670853D01*
X98548821Y-89670029D01*
X98585317Y-89663162D01*
X98801441Y-89524090D01*
X98946431Y-89311890D01*
X98997440Y-89060000D01*
X98997440Y-88970000D01*
X102540000Y-88970000D01*
X102830839Y-88912148D01*
X103077401Y-88747401D01*
X106139680Y-85685122D01*
X106185167Y-85685162D01*
X106528943Y-85543117D01*
X106792192Y-85280327D01*
X106934838Y-84936799D01*
X106935162Y-84564833D01*
X106793117Y-84221057D01*
X106530327Y-83957808D01*
X106186799Y-83815162D01*
X105814833Y-83814838D01*
X105471057Y-83956883D01*
X105207808Y-84219673D01*
X105065162Y-84563201D01*
X105065121Y-84610077D01*
X102225198Y-87450000D01*
X98997440Y-87450000D01*
X98997440Y-87360000D01*
X98953162Y-87124683D01*
X98814090Y-86908559D01*
X98601890Y-86763569D01*
X98350000Y-86712560D01*
X96650000Y-86712560D01*
X96414683Y-86756838D01*
X96198559Y-86895910D01*
X96053569Y-87108110D01*
X96039914Y-87175541D01*
X96010054Y-87130853D01*
X95528285Y-86808946D01*
X94960000Y-86695907D01*
X94391715Y-86808946D01*
X93909946Y-87130853D01*
X93690000Y-87460026D01*
X93470054Y-87130853D01*
X92988285Y-86808946D01*
X92420000Y-86695907D01*
X91851715Y-86808946D01*
X91369946Y-87130853D01*
X91156699Y-87450000D01*
X86790000Y-87450000D01*
X86499161Y-87507852D01*
X86252599Y-87672599D01*
X83462599Y-90462599D01*
X83297852Y-90709161D01*
X83240000Y-91000000D01*
X83240000Y-93187537D01*
X83207808Y-93219673D01*
X83065162Y-93563201D01*
X83064838Y-93935167D01*
X75352888Y-93935167D01*
X75297592Y-93801343D01*
X75185000Y-93688554D01*
X75185000Y-92055105D01*
X75326441Y-91964090D01*
X75471431Y-91751890D01*
X75522440Y-91500000D01*
X75522440Y-90000000D01*
X75478162Y-89764683D01*
X75339090Y-89548559D01*
X75270994Y-89502031D01*
X75413327Y-89359698D01*
X75510000Y-89126309D01*
X75510000Y-88535750D01*
X75351250Y-88377000D01*
X74377000Y-88377000D01*
X74377000Y-88397000D01*
X74123000Y-88397000D01*
X74123000Y-88377000D01*
X73148750Y-88377000D01*
X72990000Y-88535750D01*
X72990000Y-89126309D01*
X73086673Y-89359698D01*
X73227910Y-89500936D01*
X73173559Y-89535910D01*
X73028569Y-89748110D01*
X72977560Y-90000000D01*
X53710000Y-90000000D01*
X53710000Y-87373691D01*
X72990000Y-87373691D01*
X72990000Y-87964250D01*
X73148750Y-88123000D01*
X74123000Y-88123000D01*
X74123000Y-87023750D01*
X74377000Y-87023750D01*
X74377000Y-88123000D01*
X75351250Y-88123000D01*
X75510000Y-87964250D01*
X75510000Y-87373691D01*
X75413327Y-87140302D01*
X75234699Y-86961673D01*
X75001310Y-86865000D01*
X74535750Y-86865000D01*
X74377000Y-87023750D01*
X74123000Y-87023750D01*
X73964250Y-86865000D01*
X73498690Y-86865000D01*
X73265301Y-86961673D01*
X73086673Y-87140302D01*
X72990000Y-87373691D01*
X53710000Y-87373691D01*
X53710000Y-81367901D01*
X53898110Y-81496431D01*
X54150000Y-81547440D01*
X55650000Y-81547440D01*
X55885317Y-81503162D01*
X56101441Y-81364090D01*
X56246431Y-81151890D01*
X56249081Y-81138803D01*
X56385910Y-81351441D01*
X56598110Y-81496431D01*
X56850000Y-81547440D01*
X58350000Y-81547440D01*
X58412126Y-81535750D01*
X97265000Y-81535750D01*
X97265000Y-82226309D01*
X97361673Y-82459698D01*
X97540301Y-82638327D01*
X97773690Y-82735000D01*
X98464250Y-82735000D01*
X98623000Y-82576250D01*
X98623000Y-81377000D01*
X97423750Y-81377000D01*
X97265000Y-81535750D01*
X58412126Y-81535750D01*
X58585317Y-81503162D01*
X58801441Y-81364090D01*
X58946431Y-81151890D01*
X58997440Y-80900000D01*
X58997440Y-80880920D01*
X59137401Y-80787401D01*
X63037401Y-76887401D01*
X63202148Y-76640839D01*
X63260000Y-76350000D01*
X63260000Y-74146930D01*
X63499490Y-74146930D01*
X63734807Y-74102652D01*
X63950931Y-73963580D01*
X64037074Y-73837505D01*
X64208650Y-73952148D01*
X64499490Y-74010000D01*
X70162081Y-74010000D01*
X70452920Y-73952148D01*
X70699482Y-73787401D01*
X71747401Y-72739482D01*
X71912148Y-72492921D01*
X71953741Y-72283818D01*
X72260054Y-72079147D01*
X72480000Y-71749974D01*
X72699946Y-72079147D01*
X72990000Y-72272954D01*
X72990000Y-72500000D01*
X73047852Y-72790839D01*
X73212599Y-73037401D01*
X74342599Y-74167401D01*
X74589160Y-74332148D01*
X74880000Y-74390000D01*
X97486699Y-74390000D01*
X97699946Y-74709147D01*
X97985578Y-74900000D01*
X97699946Y-75090853D01*
X97378039Y-75572622D01*
X97265000Y-76140907D01*
X97265000Y-76199093D01*
X97378039Y-76767378D01*
X97699946Y-77249147D01*
X97985578Y-77440000D01*
X97699946Y-77630853D01*
X97378039Y-78112622D01*
X97265000Y-78680907D01*
X97265000Y-78739093D01*
X97378039Y-79307378D01*
X97699946Y-79789147D01*
X97705858Y-79793097D01*
X97540301Y-79861673D01*
X97361673Y-80040302D01*
X97265000Y-80273691D01*
X97265000Y-80964250D01*
X97423750Y-81123000D01*
X98623000Y-81123000D01*
X98623000Y-81103000D01*
X98877000Y-81103000D01*
X98877000Y-81123000D01*
X98897000Y-81123000D01*
X98897000Y-81377000D01*
X98877000Y-81377000D01*
X98877000Y-82576250D01*
X99035750Y-82735000D01*
X99726310Y-82735000D01*
X99959699Y-82638327D01*
X100138327Y-82459698D01*
X100210597Y-82285223D01*
X100239946Y-82329147D01*
X100721715Y-82651054D01*
X101290000Y-82764093D01*
X101858285Y-82651054D01*
X102340054Y-82329147D01*
X102661961Y-81847378D01*
X102738000Y-81465104D01*
X102738000Y-81934370D01*
X99934370Y-84738000D01*
X86000000Y-84738000D01*
X85997339Y-84738529D01*
X85994676Y-84738019D01*
X85851633Y-84767512D01*
X85708395Y-84796004D01*
X85706141Y-84797510D01*
X85703484Y-84798058D01*
X85582555Y-84880088D01*
X85461185Y-84961185D01*
X85459680Y-84963438D01*
X85457433Y-84964962D01*
X80351973Y-90142270D01*
X80314833Y-90142238D01*
X79971057Y-90284283D01*
X79707808Y-90547073D01*
X79565162Y-90890601D01*
X79564838Y-91262567D01*
X79706883Y-91606343D01*
X79969673Y-91869592D01*
X80313201Y-92012238D01*
X80685167Y-92012562D01*
X81028943Y-91870517D01*
X81292192Y-91607727D01*
X81434838Y-91264199D01*
X81434881Y-91214602D01*
X86318754Y-86262000D01*
X100250000Y-86262000D01*
X100541605Y-86203996D01*
X100788815Y-86038815D01*
X104038815Y-82788815D01*
X104203996Y-82541605D01*
X104220288Y-82459698D01*
X104262000Y-82250000D01*
X104262000Y-79717919D01*
X104203996Y-79426314D01*
X104085395Y-79248815D01*
X104038816Y-79179104D01*
X103030896Y-78171185D01*
X103015870Y-78161145D01*
X102783686Y-78006004D01*
X102561143Y-77961737D01*
X102340054Y-77630853D01*
X102054422Y-77440000D01*
X102340054Y-77249147D01*
X102661961Y-76767378D01*
X102775000Y-76199093D01*
X102775000Y-76140907D01*
X102661961Y-75572622D01*
X102340054Y-75090853D01*
X102054422Y-74900000D01*
X102340054Y-74709147D01*
X102661961Y-74227378D01*
X102775000Y-73659093D01*
X102775000Y-73600907D01*
X102661961Y-73032622D01*
X102340054Y-72550853D01*
X101858285Y-72228946D01*
X101290000Y-72115907D01*
X100721715Y-72228946D01*
X100239946Y-72550853D01*
X100020000Y-72880026D01*
X99800054Y-72550853D01*
X99318285Y-72228946D01*
X98750000Y-72115907D01*
X98181715Y-72228946D01*
X97699946Y-72550853D01*
X97486699Y-72870000D01*
X75194802Y-72870000D01*
X74562606Y-72237804D01*
X74800054Y-72079147D01*
X75020000Y-71749974D01*
X75239946Y-72079147D01*
X75721715Y-72401054D01*
X76290000Y-72514093D01*
X76858285Y-72401054D01*
X77340054Y-72079147D01*
X77661961Y-71597378D01*
X77775000Y-71029093D01*
X77775000Y-70970907D01*
X77661961Y-70402622D01*
X77340054Y-69920853D01*
X77024489Y-69710000D01*
X111828209Y-69710000D01*
X111635363Y-69838855D01*
X111635363Y-69838855D01*
G37*
X111635363Y-69838855D02*
X110798855Y-70675363D01*
X110596173Y-70978699D01*
X110525000Y-71336508D01*
X110525000Y-71425338D01*
X110272219Y-71594241D01*
X109917906Y-72124508D01*
X109793488Y-72750000D01*
X109917906Y-73375492D01*
X110272219Y-73905759D01*
X110525000Y-74074662D01*
X110525000Y-76152710D01*
X110225150Y-76452560D01*
X108250000Y-76452560D01*
X108014683Y-76496838D01*
X107798559Y-76635910D01*
X107653569Y-76848110D01*
X107602560Y-77100000D01*
X107602560Y-78900000D01*
X107646838Y-79135317D01*
X107785910Y-79351441D01*
X107998110Y-79496431D01*
X108250000Y-79547440D01*
X111750000Y-79547440D01*
X111985317Y-79503162D01*
X112201441Y-79364090D01*
X112346431Y-79151890D01*
X112397440Y-78900000D01*
X112397440Y-77100000D01*
X112353162Y-76864683D01*
X112335787Y-76837682D01*
X112395000Y-76540000D01*
X112395000Y-74074662D01*
X112437077Y-74046547D01*
X112536420Y-74200931D01*
X112748620Y-74345921D01*
X113000510Y-74396930D01*
X114065000Y-74396930D01*
X114065000Y-76452560D01*
X113250000Y-76452560D01*
X113014683Y-76496838D01*
X112798559Y-76635910D01*
X112653569Y-76848110D01*
X112602560Y-77100000D01*
X112602560Y-78900000D01*
X112646838Y-79135317D01*
X112785910Y-79351441D01*
X112998110Y-79496431D01*
X113250000Y-79547440D01*
X116750000Y-79547440D01*
X116985317Y-79503162D01*
X117201441Y-79364090D01*
X117346431Y-79151890D01*
X117397440Y-78900000D01*
X117397440Y-77100000D01*
X117353162Y-76864683D01*
X117214090Y-76648559D01*
X117001890Y-76503569D01*
X116750000Y-76452560D01*
X115935000Y-76452560D01*
X115935000Y-73750005D01*
X115935001Y-73750000D01*
X115863827Y-73392192D01*
X115863827Y-73392191D01*
X115661145Y-73088855D01*
X115646930Y-73074640D01*
X115646930Y-71750510D01*
X115602652Y-71515193D01*
X115551049Y-71435000D01*
X119112710Y-71435000D01*
X120131145Y-72453435D01*
X119652907Y-72930839D01*
X119365328Y-73623405D01*
X119364674Y-74373305D01*
X119651043Y-75066372D01*
X120180839Y-75597093D01*
X120873405Y-75884672D01*
X121623305Y-75885326D01*
X122316372Y-75598957D01*
X122847093Y-75069161D01*
X123134672Y-74376595D01*
X123134751Y-74285750D01*
X124365000Y-74285750D01*
X124365000Y-75376310D01*
X124461673Y-75609699D01*
X124640302Y-75788327D01*
X124873691Y-75885000D01*
X125964250Y-75885000D01*
X126123000Y-75726250D01*
X126123000Y-74127000D01*
X126377000Y-74127000D01*
X126377000Y-75726250D01*
X126535750Y-75885000D01*
X127626309Y-75885000D01*
X127859698Y-75788327D01*
X128038327Y-75609699D01*
X128135000Y-75376310D01*
X128135000Y-74285750D01*
X127976250Y-74127000D01*
X126377000Y-74127000D01*
X126123000Y-74127000D01*
X124523750Y-74127000D01*
X124365000Y-74285750D01*
X123134751Y-74285750D01*
X123135326Y-73626695D01*
X122848957Y-72933628D01*
X122539560Y-72623690D01*
X124365000Y-72623690D01*
X124365000Y-73714250D01*
X124523750Y-73873000D01*
X126123000Y-73873000D01*
X126123000Y-72273750D01*
X126377000Y-72273750D01*
X126377000Y-73873000D01*
X127976250Y-73873000D01*
X128135000Y-73714250D01*
X128135000Y-72623690D01*
X128038327Y-72390301D01*
X127859698Y-72211673D01*
X127626309Y-72115000D01*
X126535750Y-72115000D01*
X126377000Y-72273750D01*
X126123000Y-72273750D01*
X125964250Y-72115000D01*
X124873691Y-72115000D01*
X124640302Y-72211673D01*
X124461673Y-72390301D01*
X124365000Y-72623690D01*
X122539560Y-72623690D01*
X122319161Y-72402907D01*
X122185000Y-72347198D01*
X122185000Y-72250000D01*
X122113827Y-71892191D01*
X121911145Y-71588855D01*
X120161145Y-69838855D01*
X119968299Y-69710000D01*
X128290000Y-69710000D01*
X128290000Y-98290000D01*
X53710000Y-98290000D01*
X53710000Y-95442619D01*
X54764613Y-95442619D01*
X55104155Y-96264372D01*
X55732321Y-96893636D01*
X56553481Y-97234611D01*
X57442619Y-97235387D01*
X58264372Y-96895845D01*
X58893636Y-96267679D01*
X59234611Y-95446519D01*
X59235387Y-94557381D01*
X58895845Y-93735628D01*
X58267679Y-93106364D01*
X57446519Y-92765389D01*
X56557381Y-92764613D01*
X55735628Y-93104155D01*
X55106364Y-93732321D01*
X54765389Y-94553481D01*
X54764613Y-95442619D01*
X53710000Y-95442619D01*
X53710000Y-90000000D01*
X72977560Y-90000000D01*
X72977560Y-91500000D01*
X73021838Y-91735317D01*
X73160910Y-91951441D01*
X73315000Y-92056726D01*
X73315000Y-93688338D01*
X73203629Y-93799515D01*
X73015215Y-94253266D01*
X73014786Y-94744579D01*
X73202408Y-95198657D01*
X73549515Y-95546371D01*
X74003266Y-95734785D01*
X74494579Y-95735214D01*
X74948657Y-95547592D01*
X75053813Y-95442619D01*
X122764613Y-95442619D01*
X123104155Y-96264372D01*
X123732321Y-96893636D01*
X124553481Y-97234611D01*
X125442619Y-97235387D01*
X126264372Y-96895845D01*
X126893636Y-96267679D01*
X127234611Y-95446519D01*
X127235387Y-94557381D01*
X126895845Y-93735628D01*
X126267679Y-93106364D01*
X125446519Y-92765389D01*
X124557381Y-92764613D01*
X123735628Y-93104155D01*
X123106364Y-93732321D01*
X122765389Y-94553481D01*
X122764613Y-95442619D01*
X75053813Y-95442619D01*
X75296371Y-95200485D01*
X75484785Y-94746734D01*
X75485214Y-94255421D01*
X75352888Y-93935167D01*
X83064838Y-93935167D01*
X83206883Y-94278943D01*
X83469673Y-94542192D01*
X83813201Y-94684838D01*
X84185167Y-94685162D01*
X84528943Y-94543117D01*
X84792192Y-94280327D01*
X84934838Y-93936799D01*
X84935162Y-93564833D01*
X84793117Y-93221057D01*
X84760000Y-93187882D01*
X84760000Y-91314802D01*
X84967910Y-91106892D01*
X90978514Y-91106892D01*
X91224817Y-91631358D01*
X91653076Y-92021645D01*
X92063110Y-92191476D01*
X92293000Y-92070155D01*
X92293000Y-90877000D01*
X91099181Y-90877000D01*
X90978514Y-91106892D01*
X84967910Y-91106892D01*
X87104802Y-88970000D01*
X91156699Y-88970000D01*
X91369946Y-89289147D01*
X91653101Y-89478345D01*
X91653076Y-89478355D01*
X91224817Y-89868642D01*
X90978514Y-90393108D01*
X91099181Y-90623000D01*
X92293000Y-90623000D01*
X92293000Y-90603000D01*
X92547000Y-90603000D01*
X92547000Y-90623000D01*
X92567000Y-90623000D01*
X92567000Y-90877000D01*
X92547000Y-90877000D01*
X92547000Y-92070155D01*
X92776890Y-92191476D01*
X93186924Y-92021645D01*
X93615183Y-91631358D01*
X93682298Y-91488447D01*
X93909946Y-91829147D01*
X94391715Y-92151054D01*
X94960000Y-92264093D01*
X95528285Y-92151054D01*
X96010054Y-91829147D01*
X96230000Y-91499974D01*
X96449946Y-91829147D01*
X96931715Y-92151054D01*
X97500000Y-92264093D01*
X98068285Y-92151054D01*
X98550054Y-91829147D01*
X98871961Y-91347378D01*
X98985000Y-90779093D01*
X98985000Y-90720907D01*
X98871961Y-90152622D01*
X98550054Y-89670853D01*
X98548821Y-89670029D01*
X98585317Y-89663162D01*
X98801441Y-89524090D01*
X98946431Y-89311890D01*
X98997440Y-89060000D01*
X98997440Y-88970000D01*
X102540000Y-88970000D01*
X102830839Y-88912148D01*
X103077401Y-88747401D01*
X106139680Y-85685122D01*
X106185167Y-85685162D01*
X106528943Y-85543117D01*
X106792192Y-85280327D01*
X106934838Y-84936799D01*
X106935162Y-84564833D01*
X106793117Y-84221057D01*
X106530327Y-83957808D01*
X106186799Y-83815162D01*
X105814833Y-83814838D01*
X105471057Y-83956883D01*
X105207808Y-84219673D01*
X105065162Y-84563201D01*
X105065121Y-84610077D01*
X102225198Y-87450000D01*
X98997440Y-87450000D01*
X98997440Y-87360000D01*
X98953162Y-87124683D01*
X98814090Y-86908559D01*
X98601890Y-86763569D01*
X98350000Y-86712560D01*
X96650000Y-86712560D01*
X96414683Y-86756838D01*
X96198559Y-86895910D01*
X96053569Y-87108110D01*
X96039914Y-87175541D01*
X96010054Y-87130853D01*
X95528285Y-86808946D01*
X94960000Y-86695907D01*
X94391715Y-86808946D01*
X93909946Y-87130853D01*
X93690000Y-87460026D01*
X93470054Y-87130853D01*
X92988285Y-86808946D01*
X92420000Y-86695907D01*
X91851715Y-86808946D01*
X91369946Y-87130853D01*
X91156699Y-87450000D01*
X86790000Y-87450000D01*
X86499161Y-87507852D01*
X86252599Y-87672599D01*
X83462599Y-90462599D01*
X83297852Y-90709161D01*
X83240000Y-91000000D01*
X83240000Y-93187537D01*
X83207808Y-93219673D01*
X83065162Y-93563201D01*
X83064838Y-93935167D01*
X75352888Y-93935167D01*
X75297592Y-93801343D01*
X75185000Y-93688554D01*
X75185000Y-92055105D01*
X75326441Y-91964090D01*
X75471431Y-91751890D01*
X75522440Y-91500000D01*
X75522440Y-90000000D01*
X75478162Y-89764683D01*
X75339090Y-89548559D01*
X75270994Y-89502031D01*
X75413327Y-89359698D01*
X75510000Y-89126309D01*
X75510000Y-88535750D01*
X75351250Y-88377000D01*
X74377000Y-88377000D01*
X74377000Y-88397000D01*
X74123000Y-88397000D01*
X74123000Y-88377000D01*
X73148750Y-88377000D01*
X72990000Y-88535750D01*
X72990000Y-89126309D01*
X73086673Y-89359698D01*
X73227910Y-89500936D01*
X73173559Y-89535910D01*
X73028569Y-89748110D01*
X72977560Y-90000000D01*
X53710000Y-90000000D01*
X53710000Y-87373691D01*
X72990000Y-87373691D01*
X72990000Y-87964250D01*
X73148750Y-88123000D01*
X74123000Y-88123000D01*
X74123000Y-87023750D01*
X74377000Y-87023750D01*
X74377000Y-88123000D01*
X75351250Y-88123000D01*
X75510000Y-87964250D01*
X75510000Y-87373691D01*
X75413327Y-87140302D01*
X75234699Y-86961673D01*
X75001310Y-86865000D01*
X74535750Y-86865000D01*
X74377000Y-87023750D01*
X74123000Y-87023750D01*
X73964250Y-86865000D01*
X73498690Y-86865000D01*
X73265301Y-86961673D01*
X73086673Y-87140302D01*
X72990000Y-87373691D01*
X53710000Y-87373691D01*
X53710000Y-81367901D01*
X53898110Y-81496431D01*
X54150000Y-81547440D01*
X55650000Y-81547440D01*
X55885317Y-81503162D01*
X56101441Y-81364090D01*
X56246431Y-81151890D01*
X56249081Y-81138803D01*
X56385910Y-81351441D01*
X56598110Y-81496431D01*
X56850000Y-81547440D01*
X58350000Y-81547440D01*
X58412126Y-81535750D01*
X97265000Y-81535750D01*
X97265000Y-82226309D01*
X97361673Y-82459698D01*
X97540301Y-82638327D01*
X97773690Y-82735000D01*
X98464250Y-82735000D01*
X98623000Y-82576250D01*
X98623000Y-81377000D01*
X97423750Y-81377000D01*
X97265000Y-81535750D01*
X58412126Y-81535750D01*
X58585317Y-81503162D01*
X58801441Y-81364090D01*
X58946431Y-81151890D01*
X58997440Y-80900000D01*
X58997440Y-80880920D01*
X59137401Y-80787401D01*
X63037401Y-76887401D01*
X63202148Y-76640839D01*
X63260000Y-76350000D01*
X63260000Y-74146930D01*
X63499490Y-74146930D01*
X63734807Y-74102652D01*
X63950931Y-73963580D01*
X64037074Y-73837505D01*
X64208650Y-73952148D01*
X64499490Y-74010000D01*
X70162081Y-74010000D01*
X70452920Y-73952148D01*
X70699482Y-73787401D01*
X71747401Y-72739482D01*
X71912148Y-72492921D01*
X71953741Y-72283818D01*
X72260054Y-72079147D01*
X72480000Y-71749974D01*
X72699946Y-72079147D01*
X72990000Y-72272954D01*
X72990000Y-72500000D01*
X73047852Y-72790839D01*
X73212599Y-73037401D01*
X74342599Y-74167401D01*
X74589160Y-74332148D01*
X74880000Y-74390000D01*
X97486699Y-74390000D01*
X97699946Y-74709147D01*
X97985578Y-74900000D01*
X97699946Y-75090853D01*
X97378039Y-75572622D01*
X97265000Y-76140907D01*
X97265000Y-76199093D01*
X97378039Y-76767378D01*
X97699946Y-77249147D01*
X97985578Y-77440000D01*
X97699946Y-77630853D01*
X97378039Y-78112622D01*
X97265000Y-78680907D01*
X97265000Y-78739093D01*
X97378039Y-79307378D01*
X97699946Y-79789147D01*
X97705858Y-79793097D01*
X97540301Y-79861673D01*
X97361673Y-80040302D01*
X97265000Y-80273691D01*
X97265000Y-80964250D01*
X97423750Y-81123000D01*
X98623000Y-81123000D01*
X98623000Y-81103000D01*
X98877000Y-81103000D01*
X98877000Y-81123000D01*
X98897000Y-81123000D01*
X98897000Y-81377000D01*
X98877000Y-81377000D01*
X98877000Y-82576250D01*
X99035750Y-82735000D01*
X99726310Y-82735000D01*
X99959699Y-82638327D01*
X100138327Y-82459698D01*
X100210597Y-82285223D01*
X100239946Y-82329147D01*
X100721715Y-82651054D01*
X101290000Y-82764093D01*
X101858285Y-82651054D01*
X102340054Y-82329147D01*
X102661961Y-81847378D01*
X102738000Y-81465104D01*
X102738000Y-81934370D01*
X99934370Y-84738000D01*
X86000000Y-84738000D01*
X85997339Y-84738529D01*
X85994676Y-84738019D01*
X85851633Y-84767512D01*
X85708395Y-84796004D01*
X85706141Y-84797510D01*
X85703484Y-84798058D01*
X85582555Y-84880088D01*
X85461185Y-84961185D01*
X85459680Y-84963438D01*
X85457433Y-84964962D01*
X80351973Y-90142270D01*
X80314833Y-90142238D01*
X79971057Y-90284283D01*
X79707808Y-90547073D01*
X79565162Y-90890601D01*
X79564838Y-91262567D01*
X79706883Y-91606343D01*
X79969673Y-91869592D01*
X80313201Y-92012238D01*
X80685167Y-92012562D01*
X81028943Y-91870517D01*
X81292192Y-91607727D01*
X81434838Y-91264199D01*
X81434881Y-91214602D01*
X86318754Y-86262000D01*
X100250000Y-86262000D01*
X100541605Y-86203996D01*
X100788815Y-86038815D01*
X104038815Y-82788815D01*
X104203996Y-82541605D01*
X104220288Y-82459698D01*
X104262000Y-82250000D01*
X104262000Y-79717919D01*
X104203996Y-79426314D01*
X104085395Y-79248815D01*
X104038816Y-79179104D01*
X103030896Y-78171185D01*
X103015870Y-78161145D01*
X102783686Y-78006004D01*
X102561143Y-77961737D01*
X102340054Y-77630853D01*
X102054422Y-77440000D01*
X102340054Y-77249147D01*
X102661961Y-76767378D01*
X102775000Y-76199093D01*
X102775000Y-76140907D01*
X102661961Y-75572622D01*
X102340054Y-75090853D01*
X102054422Y-74900000D01*
X102340054Y-74709147D01*
X102661961Y-74227378D01*
X102775000Y-73659093D01*
X102775000Y-73600907D01*
X102661961Y-73032622D01*
X102340054Y-72550853D01*
X101858285Y-72228946D01*
X101290000Y-72115907D01*
X100721715Y-72228946D01*
X100239946Y-72550853D01*
X100020000Y-72880026D01*
X99800054Y-72550853D01*
X99318285Y-72228946D01*
X98750000Y-72115907D01*
X98181715Y-72228946D01*
X97699946Y-72550853D01*
X97486699Y-72870000D01*
X75194802Y-72870000D01*
X74562606Y-72237804D01*
X74800054Y-72079147D01*
X75020000Y-71749974D01*
X75239946Y-72079147D01*
X75721715Y-72401054D01*
X76290000Y-72514093D01*
X76858285Y-72401054D01*
X77340054Y-72079147D01*
X77661961Y-71597378D01*
X77775000Y-71029093D01*
X77775000Y-70970907D01*
X77661961Y-70402622D01*
X77340054Y-69920853D01*
X77024489Y-69710000D01*
X111828209Y-69710000D01*
X111635363Y-69838855D01*
M02*
