M48
;DRILL file {KiCad 4.0.6-e0-6349~53~ubuntu16.04.1} date Wed Jun 28 19:43:29 2017
;FORMAT={-:-/ absolute / inch / decimal}
FMAT,2
INCH,TZ
T1C0.016
T2C0.031
T3C0.039
T4C0.043
T5C0.051
%
G90
G05
M72
T1
X3.1693Y-3.5857
X3.3071Y-3.6909
X4.1732Y-3.3366
T2
X2.3228Y-3.2382
X2.9232Y-3.3169
X2.9232Y-3.7205
T3
X2.7035Y-2.7953
X2.8035Y-2.7953
X2.9035Y-2.7953
X3.0035Y-2.7953
X3.6386Y-3.4728
X3.6386Y-3.5728
X3.7386Y-3.4728
X3.7386Y-3.5728
X3.8386Y-3.4728
X3.8386Y-3.5728
X3.8878Y-2.8988
X3.8878Y-2.9988
X3.8878Y-3.0988
X3.8878Y-3.1988
X3.9878Y-2.8988
X3.9878Y-2.9988
X3.9878Y-3.0988
X3.9878Y-3.1988
T4
X2.1606Y-2.8543
X2.2606Y-2.8543
X2.3606Y-2.8543
X2.4606Y-2.8543
X4.3882Y-2.8642
X4.4882Y-2.8642
T5
X4.7736Y-2.9134
X4.9705Y-2.9134
T0
M30
