G04 #@! TF.FileFunction,Copper,L1,Top,Signal*
%FSLAX46Y46*%
G04 Gerber Fmt 4.6, Leading zero omitted, Abs format (unit mm)*
G04 Created by KiCad (PCBNEW 4.0.6-e0-6349~53~ubuntu16.04.1) date Tue Jun 20 20:26:24 2017*
%MOMM*%
%LPD*%
G01*
G04 APERTURE LIST*
%ADD10C,0.100000*%
%ADD11R,1.700000X1.700000*%
%ADD12O,1.700000X1.700000*%
%ADD13O,1.998980X1.998980*%
%ADD14R,1.998980X1.998980*%
%ADD15R,1.250000X1.500000*%
%ADD16R,0.800000X0.900000*%
%ADD17R,0.900000X0.800000*%
%ADD18R,1.500000X1.300000*%
%ADD19R,2.500000X1.000000*%
%ADD20R,4.000000X2.000000*%
%ADD21R,1.800000X3.500000*%
%ADD22R,2.500000X2.500000*%
%ADD23C,2.500000*%
%ADD24R,0.508000X1.143000*%
%ADD25C,1.200000*%
%ADD26C,0.600000*%
%ADD27C,0.600000*%
%ADD28C,0.250000*%
%ADD29C,0.254000*%
G04 APERTURE END LIST*
D10*
D11*
X98750000Y-81250000D03*
D12*
X98750000Y-78710000D03*
X98750000Y-76170000D03*
X98750000Y-73630000D03*
X101290000Y-81250000D03*
X101290000Y-78710000D03*
X101290000Y-76170000D03*
X101290000Y-73630000D03*
D13*
X111460000Y-72750000D03*
D14*
X114000000Y-72750000D03*
D15*
X117000000Y-91750000D03*
X117000000Y-89250000D03*
X106500000Y-92000000D03*
X106500000Y-89500000D03*
D11*
X97500000Y-88210000D03*
D12*
X97500000Y-90750000D03*
X94960000Y-88210000D03*
X94960000Y-90750000D03*
X92420000Y-88210000D03*
X92420000Y-90750000D03*
D11*
X68670000Y-71000000D03*
D12*
X71210000Y-71000000D03*
X73750000Y-71000000D03*
X76290000Y-71000000D03*
D16*
X112100000Y-82250000D03*
X114000000Y-82250000D03*
X113050000Y-80250000D03*
D17*
X57750000Y-85700000D03*
X57750000Y-83800000D03*
X55750000Y-84750000D03*
D18*
X108850000Y-82500000D03*
X106150000Y-82500000D03*
X60500000Y-83750000D03*
X63200000Y-83750000D03*
X108850000Y-80250000D03*
X106150000Y-80250000D03*
X60500000Y-86250000D03*
X63200000Y-86250000D03*
D19*
X109540000Y-89000000D03*
X109540000Y-90500000D03*
X109540000Y-92000000D03*
D20*
X113500000Y-90500000D03*
D10*
G36*
X111525000Y-91500000D02*
X110775000Y-91000000D01*
X110775000Y-90000000D01*
X111525000Y-89500000D01*
X111525000Y-91500000D01*
X111525000Y-91500000D01*
G37*
D21*
X121250000Y-88250000D03*
X121250000Y-83250000D03*
D22*
X126250000Y-74000000D03*
D23*
X121250000Y-74000000D03*
D13*
X54880000Y-72500000D03*
D14*
X62500000Y-72500000D03*
D13*
X59960000Y-72500000D03*
X57420000Y-72500000D03*
D24*
X74190000Y-92552000D03*
X75460000Y-92552000D03*
X76730000Y-92552000D03*
X78000000Y-92552000D03*
X79270000Y-92552000D03*
X80540000Y-92552000D03*
X81810000Y-92552000D03*
X81810000Y-86202000D03*
X80540000Y-86202000D03*
X78000000Y-86202000D03*
X76730000Y-86202000D03*
X75460000Y-86202000D03*
X74190000Y-86202000D03*
X79270000Y-86202000D03*
D25*
X59000000Y-82250000D03*
X74250000Y-84250000D03*
X74250000Y-94500000D03*
D26*
X106000000Y-84750000D03*
X84000000Y-93750000D03*
D27*
X109540000Y-90500000D02*
X111150000Y-90500000D01*
X109540000Y-90500000D02*
X113500000Y-90500000D01*
X117000000Y-91750000D02*
X114750000Y-91750000D01*
X114750000Y-91750000D02*
X113500000Y-90500000D01*
X121250000Y-88250000D02*
X121250000Y-90600000D01*
X121250000Y-90600000D02*
X120100000Y-91750000D01*
X120100000Y-91750000D02*
X118225000Y-91750000D01*
X118225000Y-91750000D02*
X117000000Y-91750000D01*
X60500000Y-83750000D02*
X59250000Y-82500000D01*
X59250000Y-82500000D02*
X59000000Y-82250000D01*
X57750000Y-83800000D02*
X57800000Y-83800000D01*
X57800000Y-83800000D02*
X59100000Y-82500000D01*
X59100000Y-82500000D02*
X59250000Y-82500000D01*
X57750000Y-83800000D02*
X60450000Y-83800000D01*
X74250000Y-84250000D02*
X74250000Y-86142000D01*
X74250000Y-86142000D02*
X74190000Y-86202000D01*
X60450000Y-83800000D02*
X60500000Y-83750000D01*
X108850000Y-82500000D02*
X108850000Y-83750000D01*
X108850000Y-83750000D02*
X110850000Y-85750000D01*
X110850000Y-85750000D02*
X117450000Y-85750000D01*
X106500000Y-89500000D02*
X107000000Y-89000000D01*
X107000000Y-89000000D02*
X109540000Y-89000000D01*
X108850000Y-82500000D02*
X108850000Y-88310000D01*
X108850000Y-88310000D02*
X109540000Y-89000000D01*
X117000000Y-89250000D02*
X117000000Y-86200000D01*
X117000000Y-86200000D02*
X117450000Y-85750000D01*
X114000000Y-82250000D02*
X114000000Y-82300000D01*
X117450000Y-85750000D02*
X125250000Y-85750000D01*
X114000000Y-82300000D02*
X117450000Y-85750000D01*
X125250000Y-85750000D02*
X126250000Y-84750000D01*
X126250000Y-84750000D02*
X126250000Y-74000000D01*
X106000000Y-97250000D02*
X104000000Y-97250000D01*
X103500000Y-96750000D02*
X104000000Y-97250000D01*
X104000000Y-97250000D02*
X103250000Y-97250000D01*
X103500000Y-96500000D02*
X103500000Y-96750000D01*
X103500000Y-96500000D02*
X102750000Y-97250000D01*
X103500000Y-79750000D02*
X103500000Y-96500000D01*
X102782081Y-79032081D02*
X103500000Y-79750000D01*
X102782081Y-79000000D02*
X102782081Y-79032081D01*
X101290000Y-78710000D02*
X102492081Y-78710000D01*
X102492081Y-78710000D02*
X102782081Y-79000000D01*
X101290000Y-76170000D02*
X101290000Y-78710000D01*
X101290000Y-73630000D02*
X101290000Y-76170000D01*
X103250000Y-97250000D02*
X102750000Y-97250000D01*
X102750000Y-97250000D02*
X102000000Y-97250000D01*
X98250000Y-97250000D02*
X96750000Y-97250000D01*
X96750000Y-97250000D02*
X94750000Y-97250000D01*
X97500000Y-96500000D02*
X96750000Y-97250000D01*
X100750000Y-97250000D02*
X98250000Y-97250000D01*
X97500000Y-90750000D02*
X97500000Y-96500000D01*
X97500000Y-96500000D02*
X98250000Y-97250000D01*
X102000000Y-97250000D02*
X100750000Y-97250000D01*
X106000000Y-97250000D02*
X107000000Y-97250000D01*
X73500000Y-97250000D02*
X75000000Y-97250000D01*
X94750000Y-97250000D02*
X93500000Y-97250000D01*
X93500000Y-97250000D02*
X75000000Y-97250000D01*
X66409998Y-97250000D02*
X73500000Y-97250000D01*
X73500000Y-97250000D02*
X74250000Y-96500000D01*
X54250000Y-74543492D02*
X54250000Y-85090002D01*
X54250000Y-85090002D02*
X66409998Y-97250000D01*
X54880000Y-72500000D02*
X54880000Y-73913492D01*
X54880000Y-73913492D02*
X54250000Y-74543492D01*
X106500000Y-96750000D02*
X106000000Y-97250000D01*
X75000000Y-97250000D02*
X74250000Y-96500000D01*
X74250000Y-96500000D02*
X74250000Y-94500000D01*
X107000000Y-97250000D02*
X106500000Y-96750000D01*
X106500000Y-96750000D02*
X106500000Y-92000000D01*
X108500000Y-97250000D02*
X107000000Y-97250000D01*
X109500000Y-96250000D02*
X108500000Y-97250000D01*
X109500000Y-93140000D02*
X109500000Y-96250000D01*
X109540000Y-92000000D02*
X109540000Y-93100000D01*
X109540000Y-93100000D02*
X109500000Y-93140000D01*
X74250000Y-94500000D02*
X74250000Y-92612000D01*
X74250000Y-92612000D02*
X74190000Y-92552000D01*
X106750000Y-91750000D02*
X106500000Y-91500000D01*
D28*
X106000000Y-84750000D02*
X106000000Y-82650000D01*
X106000000Y-82650000D02*
X106150000Y-82500000D01*
X96250000Y-85000000D02*
X97500000Y-86250000D01*
X97500000Y-86250000D02*
X97500000Y-88210000D01*
X82190500Y-85000000D02*
X96250000Y-85000000D01*
X81810000Y-86202000D02*
X81810000Y-85380500D01*
X81810000Y-85380500D02*
X82190500Y-85000000D01*
X106150000Y-80250000D02*
X106150000Y-82500000D01*
X80540000Y-86202000D02*
X80540000Y-88290000D01*
X80540000Y-88290000D02*
X81250000Y-89000000D01*
X81250000Y-89000000D02*
X84500000Y-89000000D01*
X87500000Y-86000000D02*
X94500000Y-86000000D01*
X84500000Y-89000000D02*
X87500000Y-86000000D01*
X94500000Y-86000000D02*
X94960000Y-86460000D01*
X94960000Y-86460000D02*
X94960000Y-88210000D01*
X59960000Y-72500000D02*
X59960000Y-70790000D01*
X59960000Y-70790000D02*
X60250000Y-70500000D01*
X66500000Y-73000000D02*
X66500000Y-86250000D01*
X60250000Y-70500000D02*
X64000000Y-70500000D01*
X79750000Y-89000000D02*
X80540000Y-88210000D01*
X64000000Y-70500000D02*
X66500000Y-73000000D01*
X66500000Y-86250000D02*
X69250000Y-89000000D01*
X69250000Y-89000000D02*
X79750000Y-89000000D01*
X80540000Y-88210000D02*
X80540000Y-86202000D01*
X81810000Y-92552000D02*
X94360081Y-92552000D01*
X94360081Y-92552000D02*
X94960000Y-91952081D01*
X94960000Y-91952081D02*
X94960000Y-90750000D01*
X65000000Y-82250000D02*
X62500000Y-79750000D01*
X62500000Y-79750000D02*
X62500000Y-72500000D01*
X65000000Y-87750000D02*
X65000000Y-82250000D01*
X67750000Y-90500000D02*
X65000000Y-87750000D01*
X81370000Y-90500000D02*
X67750000Y-90500000D01*
X81810000Y-90940000D02*
X81370000Y-90500000D01*
X81810000Y-92552000D02*
X81810000Y-90940000D01*
X78250000Y-93750000D02*
X84000000Y-93750000D01*
X78000000Y-93500000D02*
X78250000Y-93750000D01*
X78000000Y-92869500D02*
X78000000Y-93500000D01*
X78000000Y-92552000D02*
X78000000Y-92869500D01*
D27*
X121250000Y-74000000D02*
X121250000Y-83250000D01*
D28*
X73750000Y-71000000D02*
X73750000Y-81250000D01*
X73750000Y-81250000D02*
X78000000Y-85500000D01*
X78000000Y-85500000D02*
X78000000Y-86202000D01*
X76290000Y-71000000D02*
X76290000Y-72202081D01*
X76290000Y-72202081D02*
X76250000Y-72242081D01*
X76250000Y-72242081D02*
X76250000Y-82360500D01*
X76250000Y-82360500D02*
X79270000Y-85380500D01*
X79270000Y-85380500D02*
X79270000Y-86202000D01*
X79270000Y-86202000D02*
X79270000Y-85230000D01*
X79270000Y-85230000D02*
X80750000Y-83750000D01*
X80750000Y-83750000D02*
X100250000Y-83750000D01*
X100250000Y-83750000D02*
X101290000Y-82710000D01*
X101290000Y-82710000D02*
X101290000Y-81250000D01*
X79270000Y-85380500D02*
X79250000Y-85360500D01*
D27*
X57420000Y-72500000D02*
X57420000Y-77330000D01*
X57420000Y-77330000D02*
X55750000Y-79000000D01*
X55750000Y-79000000D02*
X55750000Y-84750000D01*
D28*
X112100000Y-82250000D02*
X112100000Y-82200000D01*
X112100000Y-82200000D02*
X110150000Y-80250000D01*
X110150000Y-80250000D02*
X109850000Y-80250000D01*
X109850000Y-80250000D02*
X108850000Y-80250000D01*
D27*
X114000000Y-72750000D02*
X114000000Y-79300000D01*
X114000000Y-79300000D02*
X113050000Y-80250000D01*
D28*
X57750000Y-85700000D02*
X59950000Y-85700000D01*
X59950000Y-85700000D02*
X60500000Y-86250000D01*
X64750000Y-91250000D02*
X63200000Y-89700000D01*
X63200000Y-89700000D02*
X63200000Y-86250000D01*
X74979500Y-91250000D02*
X64750000Y-91250000D01*
X75460000Y-92552000D02*
X75460000Y-91730500D01*
X75460000Y-91730500D02*
X74979500Y-91250000D01*
X63200000Y-83750000D02*
X63200000Y-86250000D01*
D29*
G36*
X128290000Y-98290000D02*
X53710000Y-98290000D01*
X53710000Y-95442619D01*
X54764613Y-95442619D01*
X55104155Y-96264372D01*
X55732321Y-96893636D01*
X56553481Y-97234611D01*
X57442619Y-97235387D01*
X58264372Y-96895845D01*
X58893636Y-96267679D01*
X59234611Y-95446519D01*
X59235387Y-94557381D01*
X58895845Y-93735628D01*
X58267679Y-93106364D01*
X57446519Y-92765389D01*
X56557381Y-92764613D01*
X55735628Y-93104155D01*
X55106364Y-93732321D01*
X54765389Y-94553481D01*
X54764613Y-95442619D01*
X53710000Y-95442619D01*
X53710000Y-85872292D01*
X65748853Y-97911145D01*
X66052189Y-98113827D01*
X66409998Y-98185000D01*
X108500000Y-98185000D01*
X108857809Y-98113827D01*
X109161145Y-97911145D01*
X110161145Y-96911145D01*
X110268818Y-96750000D01*
X110363827Y-96607809D01*
X110385272Y-96500000D01*
X110435001Y-96250000D01*
X110435000Y-96249995D01*
X110435000Y-95442619D01*
X122764613Y-95442619D01*
X123104155Y-96264372D01*
X123732321Y-96893636D01*
X124553481Y-97234611D01*
X125442619Y-97235387D01*
X126264372Y-96895845D01*
X126893636Y-96267679D01*
X127234611Y-95446519D01*
X127235387Y-94557381D01*
X126895845Y-93735628D01*
X126267679Y-93106364D01*
X125446519Y-92765389D01*
X124557381Y-92764613D01*
X123735628Y-93104155D01*
X123106364Y-93732321D01*
X122765389Y-94553481D01*
X122764613Y-95442619D01*
X110435000Y-95442619D01*
X110435000Y-93301094D01*
X110465564Y-93147440D01*
X110790000Y-93147440D01*
X111025317Y-93103162D01*
X111241441Y-92964090D01*
X111386431Y-92751890D01*
X111437440Y-92500000D01*
X111437440Y-92134771D01*
X111500000Y-92147440D01*
X113825150Y-92147440D01*
X114088855Y-92411145D01*
X114392191Y-92613827D01*
X114750000Y-92685000D01*
X115762370Y-92685000D01*
X115771838Y-92735317D01*
X115910910Y-92951441D01*
X116123110Y-93096431D01*
X116375000Y-93147440D01*
X117625000Y-93147440D01*
X117860317Y-93103162D01*
X118076441Y-92964090D01*
X118221431Y-92751890D01*
X118234977Y-92685000D01*
X120100000Y-92685000D01*
X120457809Y-92613827D01*
X120761145Y-92411145D01*
X121911145Y-91261145D01*
X121957292Y-91192081D01*
X122113827Y-90957809D01*
X122133718Y-90857809D01*
X122176558Y-90642443D01*
X122385317Y-90603162D01*
X122601441Y-90464090D01*
X122746431Y-90251890D01*
X122797440Y-90000000D01*
X122797440Y-86500000D01*
X122753162Y-86264683D01*
X122614090Y-86048559D01*
X122401890Y-85903569D01*
X122150000Y-85852560D01*
X120350000Y-85852560D01*
X120114683Y-85896838D01*
X119898559Y-86035910D01*
X119753569Y-86248110D01*
X119702560Y-86500000D01*
X119702560Y-90000000D01*
X119746838Y-90235317D01*
X119885910Y-90451441D01*
X119998999Y-90528711D01*
X119712710Y-90815000D01*
X118237630Y-90815000D01*
X118228162Y-90764683D01*
X118089090Y-90548559D01*
X118020994Y-90502031D01*
X118163327Y-90359698D01*
X118260000Y-90126309D01*
X118260000Y-89535750D01*
X118101250Y-89377000D01*
X117127000Y-89377000D01*
X117127000Y-89397000D01*
X116873000Y-89397000D01*
X116873000Y-89377000D01*
X116853000Y-89377000D01*
X116853000Y-89123000D01*
X116873000Y-89123000D01*
X116873000Y-88023750D01*
X117127000Y-88023750D01*
X117127000Y-89123000D01*
X118101250Y-89123000D01*
X118260000Y-88964250D01*
X118260000Y-88373691D01*
X118163327Y-88140302D01*
X117984699Y-87961673D01*
X117751310Y-87865000D01*
X117285750Y-87865000D01*
X117127000Y-88023750D01*
X116873000Y-88023750D01*
X116714250Y-87865000D01*
X116248690Y-87865000D01*
X116015301Y-87961673D01*
X115836673Y-88140302D01*
X115740000Y-88373691D01*
X115740000Y-88901161D01*
X115500000Y-88852560D01*
X111500000Y-88852560D01*
X111437095Y-88864396D01*
X111403745Y-88864016D01*
X111381782Y-88872998D01*
X111266252Y-88872998D01*
X111425000Y-88714250D01*
X111425000Y-88373691D01*
X111328327Y-88140302D01*
X111149699Y-87961673D01*
X110916310Y-87865000D01*
X109825750Y-87865000D01*
X109667000Y-88023750D01*
X109667000Y-88873000D01*
X109687000Y-88873000D01*
X109687000Y-89127000D01*
X109667000Y-89127000D01*
X109667000Y-89147000D01*
X109413000Y-89147000D01*
X109413000Y-89127000D01*
X109393000Y-89127000D01*
X109393000Y-88873000D01*
X109413000Y-88873000D01*
X109413000Y-88023750D01*
X109254250Y-87865000D01*
X108163690Y-87865000D01*
X107930301Y-87961673D01*
X107751673Y-88140302D01*
X107655000Y-88373691D01*
X107655000Y-88381975D01*
X107484699Y-88211673D01*
X107251310Y-88115000D01*
X106785750Y-88115000D01*
X106627000Y-88273750D01*
X106627000Y-89373000D01*
X106647000Y-89373000D01*
X106647000Y-89627000D01*
X106627000Y-89627000D01*
X106627000Y-89647000D01*
X106373000Y-89647000D01*
X106373000Y-89627000D01*
X105398750Y-89627000D01*
X105240000Y-89785750D01*
X105240000Y-90376309D01*
X105336673Y-90609698D01*
X105477910Y-90750936D01*
X105423559Y-90785910D01*
X105278569Y-90998110D01*
X105227560Y-91250000D01*
X105227560Y-92750000D01*
X105271838Y-92985317D01*
X105410910Y-93201441D01*
X105565000Y-93306726D01*
X105565000Y-96315000D01*
X104435000Y-96315000D01*
X104435000Y-88623691D01*
X105240000Y-88623691D01*
X105240000Y-89214250D01*
X105398750Y-89373000D01*
X106373000Y-89373000D01*
X106373000Y-88273750D01*
X106214250Y-88115000D01*
X105748690Y-88115000D01*
X105515301Y-88211673D01*
X105336673Y-88390302D01*
X105240000Y-88623691D01*
X104435000Y-88623691D01*
X104435000Y-79750000D01*
X104405163Y-79600000D01*
X104752560Y-79600000D01*
X104752560Y-80900000D01*
X104796838Y-81135317D01*
X104935910Y-81351441D01*
X104968025Y-81373384D01*
X104948559Y-81385910D01*
X104803569Y-81598110D01*
X104752560Y-81850000D01*
X104752560Y-83150000D01*
X104796838Y-83385317D01*
X104935910Y-83601441D01*
X105148110Y-83746431D01*
X105240000Y-83765039D01*
X105240000Y-84187537D01*
X105207808Y-84219673D01*
X105065162Y-84563201D01*
X105064838Y-84935167D01*
X105206883Y-85278943D01*
X105469673Y-85542192D01*
X105813201Y-85684838D01*
X106185167Y-85685162D01*
X106528943Y-85543117D01*
X106792192Y-85280327D01*
X106934838Y-84936799D01*
X106935162Y-84564833D01*
X106793117Y-84221057D01*
X106760000Y-84187882D01*
X106760000Y-83797440D01*
X106900000Y-83797440D01*
X107135317Y-83753162D01*
X107351441Y-83614090D01*
X107496431Y-83401890D01*
X107503191Y-83368510D01*
X107561673Y-83509699D01*
X107740302Y-83688327D01*
X107973691Y-83785000D01*
X108564250Y-83785000D01*
X108723000Y-83626250D01*
X108723000Y-82627000D01*
X108977000Y-82627000D01*
X108977000Y-83626250D01*
X109135750Y-83785000D01*
X109726309Y-83785000D01*
X109959698Y-83688327D01*
X110138327Y-83509699D01*
X110235000Y-83276310D01*
X110235000Y-82785750D01*
X110076250Y-82627000D01*
X108977000Y-82627000D01*
X108723000Y-82627000D01*
X108703000Y-82627000D01*
X108703000Y-82373000D01*
X108723000Y-82373000D01*
X108723000Y-82353000D01*
X108977000Y-82353000D01*
X108977000Y-82373000D01*
X110076250Y-82373000D01*
X110235000Y-82214250D01*
X110235000Y-81723690D01*
X110138327Y-81490301D01*
X110027513Y-81379487D01*
X110051441Y-81364090D01*
X110107396Y-81282198D01*
X111052560Y-82227362D01*
X111052560Y-82700000D01*
X111096838Y-82935317D01*
X111235910Y-83151441D01*
X111448110Y-83296431D01*
X111700000Y-83347440D01*
X112500000Y-83347440D01*
X112735317Y-83303162D01*
X112951441Y-83164090D01*
X113046990Y-83024250D01*
X113061673Y-83059698D01*
X113240301Y-83238327D01*
X113473690Y-83335000D01*
X113714250Y-83335000D01*
X113873000Y-83176250D01*
X113873000Y-82377000D01*
X114127000Y-82377000D01*
X114127000Y-83176250D01*
X114285750Y-83335000D01*
X114526310Y-83335000D01*
X114759699Y-83238327D01*
X114938327Y-83059698D01*
X115035000Y-82826309D01*
X115035000Y-82535750D01*
X114876250Y-82377000D01*
X114127000Y-82377000D01*
X113873000Y-82377000D01*
X113853000Y-82377000D01*
X113853000Y-82123000D01*
X113873000Y-82123000D01*
X113873000Y-81323750D01*
X114127000Y-81323750D01*
X114127000Y-82123000D01*
X114876250Y-82123000D01*
X115035000Y-81964250D01*
X115035000Y-81673691D01*
X114938327Y-81440302D01*
X114759699Y-81261673D01*
X114526310Y-81165000D01*
X114285750Y-81165000D01*
X114127000Y-81323750D01*
X113873000Y-81323750D01*
X113786988Y-81237738D01*
X113901441Y-81164090D01*
X114046431Y-80951890D01*
X114097440Y-80700000D01*
X114097440Y-80524850D01*
X114661145Y-79961145D01*
X114863827Y-79657809D01*
X114935000Y-79300000D01*
X114935000Y-74396930D01*
X114999490Y-74396930D01*
X115125045Y-74373305D01*
X119364674Y-74373305D01*
X119651043Y-75066372D01*
X120180839Y-75597093D01*
X120315000Y-75652802D01*
X120315000Y-80859146D01*
X120114683Y-80896838D01*
X119898559Y-81035910D01*
X119753569Y-81248110D01*
X119702560Y-81500000D01*
X119702560Y-85000000D01*
X119746838Y-85235317D01*
X119885910Y-85451441D01*
X120098110Y-85596431D01*
X120350000Y-85647440D01*
X122150000Y-85647440D01*
X122385317Y-85603162D01*
X122601441Y-85464090D01*
X122746431Y-85251890D01*
X122797440Y-85000000D01*
X122797440Y-81500000D01*
X122753162Y-81264683D01*
X122614090Y-81048559D01*
X122401890Y-80903569D01*
X122185000Y-80859648D01*
X122185000Y-75653239D01*
X122316372Y-75598957D01*
X122847093Y-75069161D01*
X123134672Y-74376595D01*
X123134751Y-74285750D01*
X124365000Y-74285750D01*
X124365000Y-75376310D01*
X124461673Y-75609699D01*
X124640302Y-75788327D01*
X124873691Y-75885000D01*
X125964250Y-75885000D01*
X126123000Y-75726250D01*
X126123000Y-74127000D01*
X126377000Y-74127000D01*
X126377000Y-75726250D01*
X126535750Y-75885000D01*
X127626309Y-75885000D01*
X127859698Y-75788327D01*
X128038327Y-75609699D01*
X128135000Y-75376310D01*
X128135000Y-74285750D01*
X127976250Y-74127000D01*
X126377000Y-74127000D01*
X126123000Y-74127000D01*
X124523750Y-74127000D01*
X124365000Y-74285750D01*
X123134751Y-74285750D01*
X123135326Y-73626695D01*
X122848957Y-72933628D01*
X122539560Y-72623690D01*
X124365000Y-72623690D01*
X124365000Y-73714250D01*
X124523750Y-73873000D01*
X126123000Y-73873000D01*
X126123000Y-72273750D01*
X126377000Y-72273750D01*
X126377000Y-73873000D01*
X127976250Y-73873000D01*
X128135000Y-73714250D01*
X128135000Y-72623690D01*
X128038327Y-72390301D01*
X127859698Y-72211673D01*
X127626309Y-72115000D01*
X126535750Y-72115000D01*
X126377000Y-72273750D01*
X126123000Y-72273750D01*
X125964250Y-72115000D01*
X124873691Y-72115000D01*
X124640302Y-72211673D01*
X124461673Y-72390301D01*
X124365000Y-72623690D01*
X122539560Y-72623690D01*
X122319161Y-72402907D01*
X121626595Y-72115328D01*
X120876695Y-72114674D01*
X120183628Y-72401043D01*
X119652907Y-72930839D01*
X119365328Y-73623405D01*
X119364674Y-74373305D01*
X115125045Y-74373305D01*
X115234807Y-74352652D01*
X115450931Y-74213580D01*
X115595921Y-74001380D01*
X115646930Y-73749490D01*
X115646930Y-71750510D01*
X115602652Y-71515193D01*
X115463580Y-71299069D01*
X115251380Y-71154079D01*
X114999490Y-71103070D01*
X113000510Y-71103070D01*
X112765193Y-71147348D01*
X112549069Y-71286420D01*
X112435610Y-71452473D01*
X112117514Y-71239928D01*
X111492022Y-71115510D01*
X111427978Y-71115510D01*
X110802486Y-71239928D01*
X110272219Y-71594241D01*
X109917906Y-72124508D01*
X109793488Y-72750000D01*
X109917906Y-73375492D01*
X110272219Y-73905759D01*
X110802486Y-74260072D01*
X111427978Y-74384490D01*
X111492022Y-74384490D01*
X112117514Y-74260072D01*
X112437077Y-74046547D01*
X112536420Y-74200931D01*
X112748620Y-74345921D01*
X113000510Y-74396930D01*
X113065000Y-74396930D01*
X113065000Y-78912710D01*
X112825150Y-79152560D01*
X112650000Y-79152560D01*
X112414683Y-79196838D01*
X112198559Y-79335910D01*
X112053569Y-79548110D01*
X112002560Y-79800000D01*
X112002560Y-80700000D01*
X112046838Y-80935317D01*
X112185910Y-81151441D01*
X112187548Y-81152560D01*
X112127362Y-81152560D01*
X110687401Y-79712599D01*
X110440839Y-79547852D01*
X110229726Y-79505859D01*
X110203162Y-79364683D01*
X110064090Y-79148559D01*
X109851890Y-79003569D01*
X109600000Y-78952560D01*
X108100000Y-78952560D01*
X107864683Y-78996838D01*
X107648559Y-79135910D01*
X107503569Y-79348110D01*
X107500919Y-79361197D01*
X107364090Y-79148559D01*
X107151890Y-79003569D01*
X106900000Y-78952560D01*
X105400000Y-78952560D01*
X105164683Y-78996838D01*
X104948559Y-79135910D01*
X104803569Y-79348110D01*
X104752560Y-79600000D01*
X104405163Y-79600000D01*
X104363827Y-79392191D01*
X104161145Y-79088855D01*
X103507826Y-78435536D01*
X103443226Y-78338855D01*
X103153226Y-78048855D01*
X102849890Y-77846173D01*
X102492081Y-77775000D01*
X102436370Y-77775000D01*
X102340054Y-77630853D01*
X102225000Y-77553977D01*
X102225000Y-77326023D01*
X102340054Y-77249147D01*
X102661961Y-76767378D01*
X102775000Y-76199093D01*
X102775000Y-76140907D01*
X102661961Y-75572622D01*
X102340054Y-75090853D01*
X102225000Y-75013977D01*
X102225000Y-74786023D01*
X102340054Y-74709147D01*
X102661961Y-74227378D01*
X102775000Y-73659093D01*
X102775000Y-73600907D01*
X102661961Y-73032622D01*
X102340054Y-72550853D01*
X101858285Y-72228946D01*
X101290000Y-72115907D01*
X100721715Y-72228946D01*
X100239946Y-72550853D01*
X100020000Y-72880026D01*
X99800054Y-72550853D01*
X99318285Y-72228946D01*
X98750000Y-72115907D01*
X98181715Y-72228946D01*
X97699946Y-72550853D01*
X97378039Y-73032622D01*
X97265000Y-73600907D01*
X97265000Y-73659093D01*
X97378039Y-74227378D01*
X97699946Y-74709147D01*
X97985578Y-74900000D01*
X97699946Y-75090853D01*
X97378039Y-75572622D01*
X97265000Y-76140907D01*
X97265000Y-76199093D01*
X97378039Y-76767378D01*
X97699946Y-77249147D01*
X97985578Y-77440000D01*
X97699946Y-77630853D01*
X97378039Y-78112622D01*
X97265000Y-78680907D01*
X97265000Y-78739093D01*
X97378039Y-79307378D01*
X97699946Y-79789147D01*
X97705858Y-79793097D01*
X97540301Y-79861673D01*
X97361673Y-80040302D01*
X97265000Y-80273691D01*
X97265000Y-80964250D01*
X97423750Y-81123000D01*
X98623000Y-81123000D01*
X98623000Y-81103000D01*
X98877000Y-81103000D01*
X98877000Y-81123000D01*
X98897000Y-81123000D01*
X98897000Y-81377000D01*
X98877000Y-81377000D01*
X98877000Y-82576250D01*
X99035750Y-82735000D01*
X99726310Y-82735000D01*
X99959699Y-82638327D01*
X100138327Y-82459698D01*
X100210597Y-82285223D01*
X100239946Y-82329147D01*
X100453416Y-82471782D01*
X99935198Y-82990000D01*
X80750000Y-82990000D01*
X80459161Y-83047852D01*
X80212599Y-83212599D01*
X79194750Y-84230448D01*
X77010000Y-82045698D01*
X77010000Y-81535750D01*
X97265000Y-81535750D01*
X97265000Y-82226309D01*
X97361673Y-82459698D01*
X97540301Y-82638327D01*
X97773690Y-82735000D01*
X98464250Y-82735000D01*
X98623000Y-82576250D01*
X98623000Y-81377000D01*
X97423750Y-81377000D01*
X97265000Y-81535750D01*
X77010000Y-81535750D01*
X77010000Y-72403173D01*
X77033741Y-72283818D01*
X77340054Y-72079147D01*
X77661961Y-71597378D01*
X77775000Y-71029093D01*
X77775000Y-70970907D01*
X77661961Y-70402622D01*
X77340054Y-69920853D01*
X77024489Y-69710000D01*
X128290000Y-69710000D01*
X128290000Y-98290000D01*
X128290000Y-98290000D01*
G37*
X128290000Y-98290000D02*
X53710000Y-98290000D01*
X53710000Y-95442619D01*
X54764613Y-95442619D01*
X55104155Y-96264372D01*
X55732321Y-96893636D01*
X56553481Y-97234611D01*
X57442619Y-97235387D01*
X58264372Y-96895845D01*
X58893636Y-96267679D01*
X59234611Y-95446519D01*
X59235387Y-94557381D01*
X58895845Y-93735628D01*
X58267679Y-93106364D01*
X57446519Y-92765389D01*
X56557381Y-92764613D01*
X55735628Y-93104155D01*
X55106364Y-93732321D01*
X54765389Y-94553481D01*
X54764613Y-95442619D01*
X53710000Y-95442619D01*
X53710000Y-85872292D01*
X65748853Y-97911145D01*
X66052189Y-98113827D01*
X66409998Y-98185000D01*
X108500000Y-98185000D01*
X108857809Y-98113827D01*
X109161145Y-97911145D01*
X110161145Y-96911145D01*
X110268818Y-96750000D01*
X110363827Y-96607809D01*
X110385272Y-96500000D01*
X110435001Y-96250000D01*
X110435000Y-96249995D01*
X110435000Y-95442619D01*
X122764613Y-95442619D01*
X123104155Y-96264372D01*
X123732321Y-96893636D01*
X124553481Y-97234611D01*
X125442619Y-97235387D01*
X126264372Y-96895845D01*
X126893636Y-96267679D01*
X127234611Y-95446519D01*
X127235387Y-94557381D01*
X126895845Y-93735628D01*
X126267679Y-93106364D01*
X125446519Y-92765389D01*
X124557381Y-92764613D01*
X123735628Y-93104155D01*
X123106364Y-93732321D01*
X122765389Y-94553481D01*
X122764613Y-95442619D01*
X110435000Y-95442619D01*
X110435000Y-93301094D01*
X110465564Y-93147440D01*
X110790000Y-93147440D01*
X111025317Y-93103162D01*
X111241441Y-92964090D01*
X111386431Y-92751890D01*
X111437440Y-92500000D01*
X111437440Y-92134771D01*
X111500000Y-92147440D01*
X113825150Y-92147440D01*
X114088855Y-92411145D01*
X114392191Y-92613827D01*
X114750000Y-92685000D01*
X115762370Y-92685000D01*
X115771838Y-92735317D01*
X115910910Y-92951441D01*
X116123110Y-93096431D01*
X116375000Y-93147440D01*
X117625000Y-93147440D01*
X117860317Y-93103162D01*
X118076441Y-92964090D01*
X118221431Y-92751890D01*
X118234977Y-92685000D01*
X120100000Y-92685000D01*
X120457809Y-92613827D01*
X120761145Y-92411145D01*
X121911145Y-91261145D01*
X121957292Y-91192081D01*
X122113827Y-90957809D01*
X122133718Y-90857809D01*
X122176558Y-90642443D01*
X122385317Y-90603162D01*
X122601441Y-90464090D01*
X122746431Y-90251890D01*
X122797440Y-90000000D01*
X122797440Y-86500000D01*
X122753162Y-86264683D01*
X122614090Y-86048559D01*
X122401890Y-85903569D01*
X122150000Y-85852560D01*
X120350000Y-85852560D01*
X120114683Y-85896838D01*
X119898559Y-86035910D01*
X119753569Y-86248110D01*
X119702560Y-86500000D01*
X119702560Y-90000000D01*
X119746838Y-90235317D01*
X119885910Y-90451441D01*
X119998999Y-90528711D01*
X119712710Y-90815000D01*
X118237630Y-90815000D01*
X118228162Y-90764683D01*
X118089090Y-90548559D01*
X118020994Y-90502031D01*
X118163327Y-90359698D01*
X118260000Y-90126309D01*
X118260000Y-89535750D01*
X118101250Y-89377000D01*
X117127000Y-89377000D01*
X117127000Y-89397000D01*
X116873000Y-89397000D01*
X116873000Y-89377000D01*
X116853000Y-89377000D01*
X116853000Y-89123000D01*
X116873000Y-89123000D01*
X116873000Y-88023750D01*
X117127000Y-88023750D01*
X117127000Y-89123000D01*
X118101250Y-89123000D01*
X118260000Y-88964250D01*
X118260000Y-88373691D01*
X118163327Y-88140302D01*
X117984699Y-87961673D01*
X117751310Y-87865000D01*
X117285750Y-87865000D01*
X117127000Y-88023750D01*
X116873000Y-88023750D01*
X116714250Y-87865000D01*
X116248690Y-87865000D01*
X116015301Y-87961673D01*
X115836673Y-88140302D01*
X115740000Y-88373691D01*
X115740000Y-88901161D01*
X115500000Y-88852560D01*
X111500000Y-88852560D01*
X111437095Y-88864396D01*
X111403745Y-88864016D01*
X111381782Y-88872998D01*
X111266252Y-88872998D01*
X111425000Y-88714250D01*
X111425000Y-88373691D01*
X111328327Y-88140302D01*
X111149699Y-87961673D01*
X110916310Y-87865000D01*
X109825750Y-87865000D01*
X109667000Y-88023750D01*
X109667000Y-88873000D01*
X109687000Y-88873000D01*
X109687000Y-89127000D01*
X109667000Y-89127000D01*
X109667000Y-89147000D01*
X109413000Y-89147000D01*
X109413000Y-89127000D01*
X109393000Y-89127000D01*
X109393000Y-88873000D01*
X109413000Y-88873000D01*
X109413000Y-88023750D01*
X109254250Y-87865000D01*
X108163690Y-87865000D01*
X107930301Y-87961673D01*
X107751673Y-88140302D01*
X107655000Y-88373691D01*
X107655000Y-88381975D01*
X107484699Y-88211673D01*
X107251310Y-88115000D01*
X106785750Y-88115000D01*
X106627000Y-88273750D01*
X106627000Y-89373000D01*
X106647000Y-89373000D01*
X106647000Y-89627000D01*
X106627000Y-89627000D01*
X106627000Y-89647000D01*
X106373000Y-89647000D01*
X106373000Y-89627000D01*
X105398750Y-89627000D01*
X105240000Y-89785750D01*
X105240000Y-90376309D01*
X105336673Y-90609698D01*
X105477910Y-90750936D01*
X105423559Y-90785910D01*
X105278569Y-90998110D01*
X105227560Y-91250000D01*
X105227560Y-92750000D01*
X105271838Y-92985317D01*
X105410910Y-93201441D01*
X105565000Y-93306726D01*
X105565000Y-96315000D01*
X104435000Y-96315000D01*
X104435000Y-88623691D01*
X105240000Y-88623691D01*
X105240000Y-89214250D01*
X105398750Y-89373000D01*
X106373000Y-89373000D01*
X106373000Y-88273750D01*
X106214250Y-88115000D01*
X105748690Y-88115000D01*
X105515301Y-88211673D01*
X105336673Y-88390302D01*
X105240000Y-88623691D01*
X104435000Y-88623691D01*
X104435000Y-79750000D01*
X104405163Y-79600000D01*
X104752560Y-79600000D01*
X104752560Y-80900000D01*
X104796838Y-81135317D01*
X104935910Y-81351441D01*
X104968025Y-81373384D01*
X104948559Y-81385910D01*
X104803569Y-81598110D01*
X104752560Y-81850000D01*
X104752560Y-83150000D01*
X104796838Y-83385317D01*
X104935910Y-83601441D01*
X105148110Y-83746431D01*
X105240000Y-83765039D01*
X105240000Y-84187537D01*
X105207808Y-84219673D01*
X105065162Y-84563201D01*
X105064838Y-84935167D01*
X105206883Y-85278943D01*
X105469673Y-85542192D01*
X105813201Y-85684838D01*
X106185167Y-85685162D01*
X106528943Y-85543117D01*
X106792192Y-85280327D01*
X106934838Y-84936799D01*
X106935162Y-84564833D01*
X106793117Y-84221057D01*
X106760000Y-84187882D01*
X106760000Y-83797440D01*
X106900000Y-83797440D01*
X107135317Y-83753162D01*
X107351441Y-83614090D01*
X107496431Y-83401890D01*
X107503191Y-83368510D01*
X107561673Y-83509699D01*
X107740302Y-83688327D01*
X107973691Y-83785000D01*
X108564250Y-83785000D01*
X108723000Y-83626250D01*
X108723000Y-82627000D01*
X108977000Y-82627000D01*
X108977000Y-83626250D01*
X109135750Y-83785000D01*
X109726309Y-83785000D01*
X109959698Y-83688327D01*
X110138327Y-83509699D01*
X110235000Y-83276310D01*
X110235000Y-82785750D01*
X110076250Y-82627000D01*
X108977000Y-82627000D01*
X108723000Y-82627000D01*
X108703000Y-82627000D01*
X108703000Y-82373000D01*
X108723000Y-82373000D01*
X108723000Y-82353000D01*
X108977000Y-82353000D01*
X108977000Y-82373000D01*
X110076250Y-82373000D01*
X110235000Y-82214250D01*
X110235000Y-81723690D01*
X110138327Y-81490301D01*
X110027513Y-81379487D01*
X110051441Y-81364090D01*
X110107396Y-81282198D01*
X111052560Y-82227362D01*
X111052560Y-82700000D01*
X111096838Y-82935317D01*
X111235910Y-83151441D01*
X111448110Y-83296431D01*
X111700000Y-83347440D01*
X112500000Y-83347440D01*
X112735317Y-83303162D01*
X112951441Y-83164090D01*
X113046990Y-83024250D01*
X113061673Y-83059698D01*
X113240301Y-83238327D01*
X113473690Y-83335000D01*
X113714250Y-83335000D01*
X113873000Y-83176250D01*
X113873000Y-82377000D01*
X114127000Y-82377000D01*
X114127000Y-83176250D01*
X114285750Y-83335000D01*
X114526310Y-83335000D01*
X114759699Y-83238327D01*
X114938327Y-83059698D01*
X115035000Y-82826309D01*
X115035000Y-82535750D01*
X114876250Y-82377000D01*
X114127000Y-82377000D01*
X113873000Y-82377000D01*
X113853000Y-82377000D01*
X113853000Y-82123000D01*
X113873000Y-82123000D01*
X113873000Y-81323750D01*
X114127000Y-81323750D01*
X114127000Y-82123000D01*
X114876250Y-82123000D01*
X115035000Y-81964250D01*
X115035000Y-81673691D01*
X114938327Y-81440302D01*
X114759699Y-81261673D01*
X114526310Y-81165000D01*
X114285750Y-81165000D01*
X114127000Y-81323750D01*
X113873000Y-81323750D01*
X113786988Y-81237738D01*
X113901441Y-81164090D01*
X114046431Y-80951890D01*
X114097440Y-80700000D01*
X114097440Y-80524850D01*
X114661145Y-79961145D01*
X114863827Y-79657809D01*
X114935000Y-79300000D01*
X114935000Y-74396930D01*
X114999490Y-74396930D01*
X115125045Y-74373305D01*
X119364674Y-74373305D01*
X119651043Y-75066372D01*
X120180839Y-75597093D01*
X120315000Y-75652802D01*
X120315000Y-80859146D01*
X120114683Y-80896838D01*
X119898559Y-81035910D01*
X119753569Y-81248110D01*
X119702560Y-81500000D01*
X119702560Y-85000000D01*
X119746838Y-85235317D01*
X119885910Y-85451441D01*
X120098110Y-85596431D01*
X120350000Y-85647440D01*
X122150000Y-85647440D01*
X122385317Y-85603162D01*
X122601441Y-85464090D01*
X122746431Y-85251890D01*
X122797440Y-85000000D01*
X122797440Y-81500000D01*
X122753162Y-81264683D01*
X122614090Y-81048559D01*
X122401890Y-80903569D01*
X122185000Y-80859648D01*
X122185000Y-75653239D01*
X122316372Y-75598957D01*
X122847093Y-75069161D01*
X123134672Y-74376595D01*
X123134751Y-74285750D01*
X124365000Y-74285750D01*
X124365000Y-75376310D01*
X124461673Y-75609699D01*
X124640302Y-75788327D01*
X124873691Y-75885000D01*
X125964250Y-75885000D01*
X126123000Y-75726250D01*
X126123000Y-74127000D01*
X126377000Y-74127000D01*
X126377000Y-75726250D01*
X126535750Y-75885000D01*
X127626309Y-75885000D01*
X127859698Y-75788327D01*
X128038327Y-75609699D01*
X128135000Y-75376310D01*
X128135000Y-74285750D01*
X127976250Y-74127000D01*
X126377000Y-74127000D01*
X126123000Y-74127000D01*
X124523750Y-74127000D01*
X124365000Y-74285750D01*
X123134751Y-74285750D01*
X123135326Y-73626695D01*
X122848957Y-72933628D01*
X122539560Y-72623690D01*
X124365000Y-72623690D01*
X124365000Y-73714250D01*
X124523750Y-73873000D01*
X126123000Y-73873000D01*
X126123000Y-72273750D01*
X126377000Y-72273750D01*
X126377000Y-73873000D01*
X127976250Y-73873000D01*
X128135000Y-73714250D01*
X128135000Y-72623690D01*
X128038327Y-72390301D01*
X127859698Y-72211673D01*
X127626309Y-72115000D01*
X126535750Y-72115000D01*
X126377000Y-72273750D01*
X126123000Y-72273750D01*
X125964250Y-72115000D01*
X124873691Y-72115000D01*
X124640302Y-72211673D01*
X124461673Y-72390301D01*
X124365000Y-72623690D01*
X122539560Y-72623690D01*
X122319161Y-72402907D01*
X121626595Y-72115328D01*
X120876695Y-72114674D01*
X120183628Y-72401043D01*
X119652907Y-72930839D01*
X119365328Y-73623405D01*
X119364674Y-74373305D01*
X115125045Y-74373305D01*
X115234807Y-74352652D01*
X115450931Y-74213580D01*
X115595921Y-74001380D01*
X115646930Y-73749490D01*
X115646930Y-71750510D01*
X115602652Y-71515193D01*
X115463580Y-71299069D01*
X115251380Y-71154079D01*
X114999490Y-71103070D01*
X113000510Y-71103070D01*
X112765193Y-71147348D01*
X112549069Y-71286420D01*
X112435610Y-71452473D01*
X112117514Y-71239928D01*
X111492022Y-71115510D01*
X111427978Y-71115510D01*
X110802486Y-71239928D01*
X110272219Y-71594241D01*
X109917906Y-72124508D01*
X109793488Y-72750000D01*
X109917906Y-73375492D01*
X110272219Y-73905759D01*
X110802486Y-74260072D01*
X111427978Y-74384490D01*
X111492022Y-74384490D01*
X112117514Y-74260072D01*
X112437077Y-74046547D01*
X112536420Y-74200931D01*
X112748620Y-74345921D01*
X113000510Y-74396930D01*
X113065000Y-74396930D01*
X113065000Y-78912710D01*
X112825150Y-79152560D01*
X112650000Y-79152560D01*
X112414683Y-79196838D01*
X112198559Y-79335910D01*
X112053569Y-79548110D01*
X112002560Y-79800000D01*
X112002560Y-80700000D01*
X112046838Y-80935317D01*
X112185910Y-81151441D01*
X112187548Y-81152560D01*
X112127362Y-81152560D01*
X110687401Y-79712599D01*
X110440839Y-79547852D01*
X110229726Y-79505859D01*
X110203162Y-79364683D01*
X110064090Y-79148559D01*
X109851890Y-79003569D01*
X109600000Y-78952560D01*
X108100000Y-78952560D01*
X107864683Y-78996838D01*
X107648559Y-79135910D01*
X107503569Y-79348110D01*
X107500919Y-79361197D01*
X107364090Y-79148559D01*
X107151890Y-79003569D01*
X106900000Y-78952560D01*
X105400000Y-78952560D01*
X105164683Y-78996838D01*
X104948559Y-79135910D01*
X104803569Y-79348110D01*
X104752560Y-79600000D01*
X104405163Y-79600000D01*
X104363827Y-79392191D01*
X104161145Y-79088855D01*
X103507826Y-78435536D01*
X103443226Y-78338855D01*
X103153226Y-78048855D01*
X102849890Y-77846173D01*
X102492081Y-77775000D01*
X102436370Y-77775000D01*
X102340054Y-77630853D01*
X102225000Y-77553977D01*
X102225000Y-77326023D01*
X102340054Y-77249147D01*
X102661961Y-76767378D01*
X102775000Y-76199093D01*
X102775000Y-76140907D01*
X102661961Y-75572622D01*
X102340054Y-75090853D01*
X102225000Y-75013977D01*
X102225000Y-74786023D01*
X102340054Y-74709147D01*
X102661961Y-74227378D01*
X102775000Y-73659093D01*
X102775000Y-73600907D01*
X102661961Y-73032622D01*
X102340054Y-72550853D01*
X101858285Y-72228946D01*
X101290000Y-72115907D01*
X100721715Y-72228946D01*
X100239946Y-72550853D01*
X100020000Y-72880026D01*
X99800054Y-72550853D01*
X99318285Y-72228946D01*
X98750000Y-72115907D01*
X98181715Y-72228946D01*
X97699946Y-72550853D01*
X97378039Y-73032622D01*
X97265000Y-73600907D01*
X97265000Y-73659093D01*
X97378039Y-74227378D01*
X97699946Y-74709147D01*
X97985578Y-74900000D01*
X97699946Y-75090853D01*
X97378039Y-75572622D01*
X97265000Y-76140907D01*
X97265000Y-76199093D01*
X97378039Y-76767378D01*
X97699946Y-77249147D01*
X97985578Y-77440000D01*
X97699946Y-77630853D01*
X97378039Y-78112622D01*
X97265000Y-78680907D01*
X97265000Y-78739093D01*
X97378039Y-79307378D01*
X97699946Y-79789147D01*
X97705858Y-79793097D01*
X97540301Y-79861673D01*
X97361673Y-80040302D01*
X97265000Y-80273691D01*
X97265000Y-80964250D01*
X97423750Y-81123000D01*
X98623000Y-81123000D01*
X98623000Y-81103000D01*
X98877000Y-81103000D01*
X98877000Y-81123000D01*
X98897000Y-81123000D01*
X98897000Y-81377000D01*
X98877000Y-81377000D01*
X98877000Y-82576250D01*
X99035750Y-82735000D01*
X99726310Y-82735000D01*
X99959699Y-82638327D01*
X100138327Y-82459698D01*
X100210597Y-82285223D01*
X100239946Y-82329147D01*
X100453416Y-82471782D01*
X99935198Y-82990000D01*
X80750000Y-82990000D01*
X80459161Y-83047852D01*
X80212599Y-83212599D01*
X79194750Y-84230448D01*
X77010000Y-82045698D01*
X77010000Y-81535750D01*
X97265000Y-81535750D01*
X97265000Y-82226309D01*
X97361673Y-82459698D01*
X97540301Y-82638327D01*
X97773690Y-82735000D01*
X98464250Y-82735000D01*
X98623000Y-82576250D01*
X98623000Y-81377000D01*
X97423750Y-81377000D01*
X97265000Y-81535750D01*
X77010000Y-81535750D01*
X77010000Y-72403173D01*
X77033741Y-72283818D01*
X77340054Y-72079147D01*
X77661961Y-71597378D01*
X77775000Y-71029093D01*
X77775000Y-70970907D01*
X77661961Y-70402622D01*
X77340054Y-69920853D01*
X77024489Y-69710000D01*
X128290000Y-69710000D01*
X128290000Y-98290000D01*
G36*
X91851715Y-86808946D02*
X91369946Y-87130853D01*
X91048039Y-87612622D01*
X90935000Y-88180907D01*
X90935000Y-88239093D01*
X91048039Y-88807378D01*
X91369946Y-89289147D01*
X91653101Y-89478345D01*
X91653076Y-89478355D01*
X91224817Y-89868642D01*
X90978514Y-90393108D01*
X91099181Y-90623000D01*
X92293000Y-90623000D01*
X92293000Y-90603000D01*
X92547000Y-90603000D01*
X92547000Y-90623000D01*
X92567000Y-90623000D01*
X92567000Y-90877000D01*
X92547000Y-90877000D01*
X92547000Y-90897000D01*
X92293000Y-90897000D01*
X92293000Y-90877000D01*
X91099181Y-90877000D01*
X90978514Y-91106892D01*
X91224817Y-91631358D01*
X91401088Y-91792000D01*
X82675971Y-91792000D01*
X82667162Y-91745183D01*
X82570000Y-91594189D01*
X82570000Y-90940000D01*
X82512148Y-90649161D01*
X82347401Y-90402599D01*
X81907401Y-89962599D01*
X81660839Y-89797852D01*
X81470546Y-89760000D01*
X84500000Y-89760000D01*
X84790839Y-89702148D01*
X85037401Y-89537401D01*
X87814802Y-86760000D01*
X92097783Y-86760000D01*
X91851715Y-86808946D01*
X91851715Y-86808946D01*
G37*
X91851715Y-86808946D02*
X91369946Y-87130853D01*
X91048039Y-87612622D01*
X90935000Y-88180907D01*
X90935000Y-88239093D01*
X91048039Y-88807378D01*
X91369946Y-89289147D01*
X91653101Y-89478345D01*
X91653076Y-89478355D01*
X91224817Y-89868642D01*
X90978514Y-90393108D01*
X91099181Y-90623000D01*
X92293000Y-90623000D01*
X92293000Y-90603000D01*
X92547000Y-90603000D01*
X92547000Y-90623000D01*
X92567000Y-90623000D01*
X92567000Y-90877000D01*
X92547000Y-90877000D01*
X92547000Y-90897000D01*
X92293000Y-90897000D01*
X92293000Y-90877000D01*
X91099181Y-90877000D01*
X90978514Y-91106892D01*
X91224817Y-91631358D01*
X91401088Y-91792000D01*
X82675971Y-91792000D01*
X82667162Y-91745183D01*
X82570000Y-91594189D01*
X82570000Y-90940000D01*
X82512148Y-90649161D01*
X82347401Y-90402599D01*
X81907401Y-89962599D01*
X81660839Y-89797852D01*
X81470546Y-89760000D01*
X84500000Y-89760000D01*
X84790839Y-89702148D01*
X85037401Y-89537401D01*
X87814802Y-86760000D01*
X92097783Y-86760000D01*
X91851715Y-86808946D01*
G36*
X67223569Y-69898110D02*
X67172560Y-70150000D01*
X67172560Y-71850000D01*
X67216838Y-72085317D01*
X67355910Y-72301441D01*
X67568110Y-72446431D01*
X67820000Y-72497440D01*
X69520000Y-72497440D01*
X69755317Y-72453162D01*
X69971441Y-72314090D01*
X70116431Y-72101890D01*
X70130086Y-72034459D01*
X70159946Y-72079147D01*
X70641715Y-72401054D01*
X71210000Y-72514093D01*
X71778285Y-72401054D01*
X72260054Y-72079147D01*
X72480000Y-71749974D01*
X72699946Y-72079147D01*
X72990000Y-72272954D01*
X72990000Y-81250000D01*
X73047852Y-81540839D01*
X73212599Y-81787401D01*
X76418986Y-84993788D01*
X76240683Y-85027338D01*
X76094093Y-85121666D01*
X75965890Y-85034069D01*
X75714000Y-84983060D01*
X75206000Y-84983060D01*
X74970683Y-85027338D01*
X74829629Y-85118104D01*
X74803698Y-85092173D01*
X74570309Y-84995500D01*
X74475750Y-84995500D01*
X74317000Y-85154250D01*
X74317000Y-86075000D01*
X74337000Y-86075000D01*
X74337000Y-86329000D01*
X74317000Y-86329000D01*
X74317000Y-87249750D01*
X74475750Y-87408500D01*
X74570309Y-87408500D01*
X74803698Y-87311827D01*
X74830235Y-87285291D01*
X74954110Y-87369931D01*
X75206000Y-87420940D01*
X75714000Y-87420940D01*
X75949317Y-87376662D01*
X76095907Y-87282334D01*
X76224110Y-87369931D01*
X76476000Y-87420940D01*
X76984000Y-87420940D01*
X77219317Y-87376662D01*
X77365907Y-87282334D01*
X77494110Y-87369931D01*
X77746000Y-87420940D01*
X78254000Y-87420940D01*
X78489317Y-87376662D01*
X78635907Y-87282334D01*
X78764110Y-87369931D01*
X79016000Y-87420940D01*
X79524000Y-87420940D01*
X79759317Y-87376662D01*
X79780000Y-87363353D01*
X79780000Y-87895198D01*
X79435198Y-88240000D01*
X69564802Y-88240000D01*
X67812552Y-86487750D01*
X73301000Y-86487750D01*
X73301000Y-86899810D01*
X73397673Y-87133199D01*
X73576302Y-87311827D01*
X73809691Y-87408500D01*
X73904250Y-87408500D01*
X74063000Y-87249750D01*
X74063000Y-86329000D01*
X73459750Y-86329000D01*
X73301000Y-86487750D01*
X67812552Y-86487750D01*
X67260000Y-85935198D01*
X67260000Y-85504190D01*
X73301000Y-85504190D01*
X73301000Y-85916250D01*
X73459750Y-86075000D01*
X74063000Y-86075000D01*
X74063000Y-85154250D01*
X73904250Y-84995500D01*
X73809691Y-84995500D01*
X73576302Y-85092173D01*
X73397673Y-85270801D01*
X73301000Y-85504190D01*
X67260000Y-85504190D01*
X67260000Y-73000000D01*
X67202148Y-72709161D01*
X67037401Y-72462599D01*
X64537401Y-69962599D01*
X64290839Y-69797852D01*
X64000000Y-69740000D01*
X60250000Y-69740000D01*
X59959161Y-69797852D01*
X59712599Y-69962599D01*
X59422599Y-70252599D01*
X59257852Y-70499161D01*
X59200000Y-70790000D01*
X59200000Y-71058407D01*
X58772219Y-71344241D01*
X58690000Y-71467290D01*
X58607781Y-71344241D01*
X58077514Y-70989928D01*
X57452022Y-70865510D01*
X57387978Y-70865510D01*
X56762486Y-70989928D01*
X56232219Y-71344241D01*
X56150000Y-71467290D01*
X56067781Y-71344241D01*
X55537514Y-70989928D01*
X54912022Y-70865510D01*
X54847978Y-70865510D01*
X54222486Y-70989928D01*
X53710000Y-71332360D01*
X53710000Y-69710000D01*
X67352099Y-69710000D01*
X67223569Y-69898110D01*
X67223569Y-69898110D01*
G37*
X67223569Y-69898110D02*
X67172560Y-70150000D01*
X67172560Y-71850000D01*
X67216838Y-72085317D01*
X67355910Y-72301441D01*
X67568110Y-72446431D01*
X67820000Y-72497440D01*
X69520000Y-72497440D01*
X69755317Y-72453162D01*
X69971441Y-72314090D01*
X70116431Y-72101890D01*
X70130086Y-72034459D01*
X70159946Y-72079147D01*
X70641715Y-72401054D01*
X71210000Y-72514093D01*
X71778285Y-72401054D01*
X72260054Y-72079147D01*
X72480000Y-71749974D01*
X72699946Y-72079147D01*
X72990000Y-72272954D01*
X72990000Y-81250000D01*
X73047852Y-81540839D01*
X73212599Y-81787401D01*
X76418986Y-84993788D01*
X76240683Y-85027338D01*
X76094093Y-85121666D01*
X75965890Y-85034069D01*
X75714000Y-84983060D01*
X75206000Y-84983060D01*
X74970683Y-85027338D01*
X74829629Y-85118104D01*
X74803698Y-85092173D01*
X74570309Y-84995500D01*
X74475750Y-84995500D01*
X74317000Y-85154250D01*
X74317000Y-86075000D01*
X74337000Y-86075000D01*
X74337000Y-86329000D01*
X74317000Y-86329000D01*
X74317000Y-87249750D01*
X74475750Y-87408500D01*
X74570309Y-87408500D01*
X74803698Y-87311827D01*
X74830235Y-87285291D01*
X74954110Y-87369931D01*
X75206000Y-87420940D01*
X75714000Y-87420940D01*
X75949317Y-87376662D01*
X76095907Y-87282334D01*
X76224110Y-87369931D01*
X76476000Y-87420940D01*
X76984000Y-87420940D01*
X77219317Y-87376662D01*
X77365907Y-87282334D01*
X77494110Y-87369931D01*
X77746000Y-87420940D01*
X78254000Y-87420940D01*
X78489317Y-87376662D01*
X78635907Y-87282334D01*
X78764110Y-87369931D01*
X79016000Y-87420940D01*
X79524000Y-87420940D01*
X79759317Y-87376662D01*
X79780000Y-87363353D01*
X79780000Y-87895198D01*
X79435198Y-88240000D01*
X69564802Y-88240000D01*
X67812552Y-86487750D01*
X73301000Y-86487750D01*
X73301000Y-86899810D01*
X73397673Y-87133199D01*
X73576302Y-87311827D01*
X73809691Y-87408500D01*
X73904250Y-87408500D01*
X74063000Y-87249750D01*
X74063000Y-86329000D01*
X73459750Y-86329000D01*
X73301000Y-86487750D01*
X67812552Y-86487750D01*
X67260000Y-85935198D01*
X67260000Y-85504190D01*
X73301000Y-85504190D01*
X73301000Y-85916250D01*
X73459750Y-86075000D01*
X74063000Y-86075000D01*
X74063000Y-85154250D01*
X73904250Y-84995500D01*
X73809691Y-84995500D01*
X73576302Y-85092173D01*
X73397673Y-85270801D01*
X73301000Y-85504190D01*
X67260000Y-85504190D01*
X67260000Y-73000000D01*
X67202148Y-72709161D01*
X67037401Y-72462599D01*
X64537401Y-69962599D01*
X64290839Y-69797852D01*
X64000000Y-69740000D01*
X60250000Y-69740000D01*
X59959161Y-69797852D01*
X59712599Y-69962599D01*
X59422599Y-70252599D01*
X59257852Y-70499161D01*
X59200000Y-70790000D01*
X59200000Y-71058407D01*
X58772219Y-71344241D01*
X58690000Y-71467290D01*
X58607781Y-71344241D01*
X58077514Y-70989928D01*
X57452022Y-70865510D01*
X57387978Y-70865510D01*
X56762486Y-70989928D01*
X56232219Y-71344241D01*
X56150000Y-71467290D01*
X56067781Y-71344241D01*
X55537514Y-70989928D01*
X54912022Y-70865510D01*
X54847978Y-70865510D01*
X54222486Y-70989928D01*
X53710000Y-71332360D01*
X53710000Y-69710000D01*
X67352099Y-69710000D01*
X67223569Y-69898110D01*
G36*
X58772219Y-73655759D02*
X59302486Y-74010072D01*
X59927978Y-74134490D01*
X59992022Y-74134490D01*
X60617514Y-74010072D01*
X60937077Y-73796547D01*
X61036420Y-73950931D01*
X61248620Y-74095921D01*
X61500510Y-74146930D01*
X61740000Y-74146930D01*
X61740000Y-79750000D01*
X61797852Y-80040839D01*
X61962599Y-80287401D01*
X64172895Y-82497697D01*
X63950000Y-82452560D01*
X62450000Y-82452560D01*
X62214683Y-82496838D01*
X61998559Y-82635910D01*
X61853569Y-82848110D01*
X61846809Y-82881490D01*
X61788327Y-82740301D01*
X61609698Y-82561673D01*
X61376309Y-82465000D01*
X60785750Y-82465000D01*
X60627000Y-82623750D01*
X60627000Y-83623000D01*
X60647000Y-83623000D01*
X60647000Y-83877000D01*
X60627000Y-83877000D01*
X60627000Y-83897000D01*
X60373000Y-83897000D01*
X60373000Y-83877000D01*
X59273750Y-83877000D01*
X59115000Y-84035750D01*
X59115000Y-84526310D01*
X59211673Y-84759699D01*
X59390302Y-84938327D01*
X59394341Y-84940000D01*
X58722931Y-84940000D01*
X58664090Y-84848559D01*
X58524250Y-84753010D01*
X58559698Y-84738327D01*
X58738327Y-84559699D01*
X58835000Y-84326310D01*
X58835000Y-84085750D01*
X58676250Y-83927000D01*
X57877000Y-83927000D01*
X57877000Y-83947000D01*
X57623000Y-83947000D01*
X57623000Y-83927000D01*
X57603000Y-83927000D01*
X57603000Y-83673000D01*
X57623000Y-83673000D01*
X57623000Y-82923750D01*
X57877000Y-82923750D01*
X57877000Y-83673000D01*
X58676250Y-83673000D01*
X58835000Y-83514250D01*
X58835000Y-83273690D01*
X58738327Y-83040301D01*
X58671716Y-82973690D01*
X59115000Y-82973690D01*
X59115000Y-83464250D01*
X59273750Y-83623000D01*
X60373000Y-83623000D01*
X60373000Y-82623750D01*
X60214250Y-82465000D01*
X59623691Y-82465000D01*
X59390302Y-82561673D01*
X59211673Y-82740301D01*
X59115000Y-82973690D01*
X58671716Y-82973690D01*
X58559698Y-82861673D01*
X58326309Y-82765000D01*
X58035750Y-82765000D01*
X57877000Y-82923750D01*
X57623000Y-82923750D01*
X57464250Y-82765000D01*
X57173691Y-82765000D01*
X56940302Y-82861673D01*
X56761673Y-83040301D01*
X56685000Y-83225406D01*
X56685000Y-79387290D01*
X58081145Y-77991145D01*
X58283827Y-77687809D01*
X58355000Y-77330000D01*
X58355000Y-73824662D01*
X58607781Y-73655759D01*
X58690000Y-73532710D01*
X58772219Y-73655759D01*
X58772219Y-73655759D01*
G37*
X58772219Y-73655759D02*
X59302486Y-74010072D01*
X59927978Y-74134490D01*
X59992022Y-74134490D01*
X60617514Y-74010072D01*
X60937077Y-73796547D01*
X61036420Y-73950931D01*
X61248620Y-74095921D01*
X61500510Y-74146930D01*
X61740000Y-74146930D01*
X61740000Y-79750000D01*
X61797852Y-80040839D01*
X61962599Y-80287401D01*
X64172895Y-82497697D01*
X63950000Y-82452560D01*
X62450000Y-82452560D01*
X62214683Y-82496838D01*
X61998559Y-82635910D01*
X61853569Y-82848110D01*
X61846809Y-82881490D01*
X61788327Y-82740301D01*
X61609698Y-82561673D01*
X61376309Y-82465000D01*
X60785750Y-82465000D01*
X60627000Y-82623750D01*
X60627000Y-83623000D01*
X60647000Y-83623000D01*
X60647000Y-83877000D01*
X60627000Y-83877000D01*
X60627000Y-83897000D01*
X60373000Y-83897000D01*
X60373000Y-83877000D01*
X59273750Y-83877000D01*
X59115000Y-84035750D01*
X59115000Y-84526310D01*
X59211673Y-84759699D01*
X59390302Y-84938327D01*
X59394341Y-84940000D01*
X58722931Y-84940000D01*
X58664090Y-84848559D01*
X58524250Y-84753010D01*
X58559698Y-84738327D01*
X58738327Y-84559699D01*
X58835000Y-84326310D01*
X58835000Y-84085750D01*
X58676250Y-83927000D01*
X57877000Y-83927000D01*
X57877000Y-83947000D01*
X57623000Y-83947000D01*
X57623000Y-83927000D01*
X57603000Y-83927000D01*
X57603000Y-83673000D01*
X57623000Y-83673000D01*
X57623000Y-82923750D01*
X57877000Y-82923750D01*
X57877000Y-83673000D01*
X58676250Y-83673000D01*
X58835000Y-83514250D01*
X58835000Y-83273690D01*
X58738327Y-83040301D01*
X58671716Y-82973690D01*
X59115000Y-82973690D01*
X59115000Y-83464250D01*
X59273750Y-83623000D01*
X60373000Y-83623000D01*
X60373000Y-82623750D01*
X60214250Y-82465000D01*
X59623691Y-82465000D01*
X59390302Y-82561673D01*
X59211673Y-82740301D01*
X59115000Y-82973690D01*
X58671716Y-82973690D01*
X58559698Y-82861673D01*
X58326309Y-82765000D01*
X58035750Y-82765000D01*
X57877000Y-82923750D01*
X57623000Y-82923750D01*
X57464250Y-82765000D01*
X57173691Y-82765000D01*
X56940302Y-82861673D01*
X56761673Y-83040301D01*
X56685000Y-83225406D01*
X56685000Y-79387290D01*
X58081145Y-77991145D01*
X58283827Y-77687809D01*
X58355000Y-77330000D01*
X58355000Y-73824662D01*
X58607781Y-73655759D01*
X58690000Y-73532710D01*
X58772219Y-73655759D01*
M02*
